<?xml version="1.0" encoding="UTF-8"?><svg xmlns="http://www.w3.org/2000/svg" viewBox="0 0 451.8725 240.31102"><g id="a"><path d="M62.79883,68.10317c-2.9,4.8,.1,7.1-2.8,10.5,0,.8-3.5,2.8-3.5,3.6-1.9,4.3-1.8,4.8-8.4,6.3-.7,0-3.5,2-4.2,2-1.9-.7-6.5,1.6-12.7-1.3-2.6,0-2.2-.6-2.2-3.5-.6-1,4.2-.7,6.4-.7,6.4,0,11-4.5,13.3-9.3v-14c0-2.2-1.7-4.3-5.7-8.4-2.9-3-7.8-3.5-8.5-4.2-.9,0-5.8-.9-6.3-.7-.1-.9-2.7,1.4-4.2,1.4-3.6,1.2-1.1,10.8-2.8,12.8,.3,1.8,1.4,3.7,1.4,5.6-1.07125,2.16858-1.5212,4.5914-1.3,7,0,.7,1.4,2.8,1.4,3.5v5.6c0,.6,.7,2.8,.7,3.5v3.6c0,1.3-.6,12.6-.6,14.1,.1,8.9-.4,13.6,2.2,14.1h5s1.4,.7,1.4,1.4c1.5,2.4-2.2,2.1-7,2.1-.8,0-2.8,.7-3.6,.7-2.9-.6-19.3,1.6-18.3-2.1-.7-2.7,3.5-2,5.6-2,3.2-1.5,3-5.9,4.9-9.3,.2-.8,0-1.3-.8-2.8,.2-.3-.6-.9,.8-3.5,.3-3.7-.8-5.5-.8-7.8,0-3.3,.2-7.3-.7-9.1-.1-9.5,1.4-15.4,1.4-22.6-.7-2.49998-1.3-6.89999-2.2-8.49998,1.1-3.7-1.8-5.1-2.8-5.6-2.7-.2-6.3-2.5-7.1-2.8v-1.3h7.8c-2.6-1,15-.7,21.9-.7,.7,0,7-.8,7.8-.8,4.5,.1,8-.9,14.1,4.2,.7,0,2.8,2.8,3.5,2.8,1.5,.8,3.6,1.6,3.5,2.1-.4,4.7,3.4,9.2,3.4,14.1Zm49-.4c-1.6,0-6-1.1-9,3.3l.8,.8c2.9,0,6.8,2.7,7.4,2.5,1-1,1.6,10,1.6,14.7,0,5.3,1.3,10.6,.8,11.4,0,2.9-2.8,6.5-1.6,8.2,0,1.9-2.7,5-2.5,4.9-6,6-8.2,1.4-13.9,4.9h-3.3c-3.2,0-6.4-3-8.1-4.8,0-4.7-1.6-10.4-1.6-13.1,0-3.5-.4-8.8,.8-10.6,0-1,1.1-12.3,.8-13,0-4.6-1.1-5.5-8.1-9-6.9,0-10.6-.1-9,4.1l.8,.9c.9,0,4.2,2.4,5,2.4,1.1,1.5,2,10.2,1.6,10.6-1.2,.2-.8,7.2-.8,10.6v9c0,3.5,1.7,7.1,1.7,8.9,0,.8,1.6,3.3,1.6,3.3,6.3,9.1,11.7,6.2,13.1,7.3,4.2,0,7.2-1.6,11.4-1.6,.8,0,3.3-3.3,3.3-3.3,.8,0,3.3-1.7,4.1-1.7-.3,0,4.1-.7,4.1,1.7,1.7,2.6,2.4,3.9,4.1,3.3,1.6,0,5.1-2.5,8.1-2.5,4.60001-1.1,6.8-1.3,5.8-3.3-.2,.2-2.4-2.5-4.1-2.5-2.1-.4-3.9-.7-5-2.3v-6.5c0-.8,.9-4.1,.9-5,0-2-1.6-4.3-.9-6.4,0-4.6,1.7-7.7,1.7-12.3-1.11403-3.38914-1.68771-6.93249-1.7-10.5-3.4-3.6-8.8-3.6-9.9-4.4Zm83.69999,31.1s-.8,3.3-1.60001,4.1c0,.8-2.5,4.1-2.5,4.8v3.2c-4.7,11.5-20.2,12-33.89999,12.3-.89999,0-2.5-1.6-3.3-1.6-1.8-.1-3.7-1.7-5.60001-3.1h-.8c-.8,0-4,3.2-4.8,3.2-1.2639-.57225-2.16258-1.73305-2.39999-3.1,0-2.4-.89999-2.5-.89999-4.1l.89999-3.4c.2-4.1-.89999-5.6-.89999-8,0-.8,.89999-4.1,.89999-4.9,.2-6.8-.89999-12.2-.89999-17,0-.8,.89999-7.2,.89999-8.2,0-5.5-.5-15.6,.8-16,.2-2.4-.8-4.3-.8-6.7-1.2-3.4,3.89999-3.3-8.3-13.6v-1.6c1.60001-.6,6.5-4.2,9.8-4.2,6.39999,0,8.89999,.2,8.89999,6.5,.7,.3-.89999,7.7-.89999,12.1,0,6.3,.3,16.2-.8,17,.2,4.7,2.10001,4.1,3.3,4.1,.8,0,4.8-1.6,5.60001-1.6,3.39999,0,8.8-1.7,12.2-1.7,3-.3,5.3,.8,8,1.7,4.2-.5,5.8,2.6,9,5.7l.8,1.6c8.00002,1.60001,7.30002,20,7.30002,22.5h-.00002Zm-15.49998-16.2c0-.8-3.2-3.2-3.2-3.9-2.39999-4.6-8.10001-4.4-9.7-5.8-2,.7-10.5-1.6-13.8,1.8,.10001-.2-2.39999,2.8-2.39999,4.8,0,2.4-.89999,13.8-.89999,16.2v.8c0,.8,.89999,4,.89999,4.8,0,6.7-.3,12.6,3.2,15.3,3.3,1.7,10.60001,2.4,11.39999,2.4,9.5-4.1,18.60001-6.1,18.5-20.3,.2-12.80002-2.40001-11.10002-4-16.10002Zm83.59999-26.6c.48376-1.51902,.72012-3.10594,.70001-4.7,0-1.1-4.89999-4.6-6.79999-4.6-4.10001-.8-6.2-.8-7.3-2.7h-2.7c-5.10001,0-11.3,2-16,1.4-1.2,1.3-4.2,2-6.8,2-1.60001,1.1-7.60001,4.3-8,4.6l-9.3,9.4c-1.7,3.2-4.7,7.4-4.7,10,0,.7-1.89999,3.4-1.89999,4.1-.2,.1-.7,7.9-.7,8.7s.7,4.1,.7,4.7v4.6c0,2,2.10001,3.8,1.89999,6.1,0,2.7,2.39999,3.7,2,5.3,0,2.1,11.89999,12.3,12.10001,11.4,1.10001,1.2,2.39999,2.6,3.39999,2.7,.7,0,5.3,1.9,6,1.9,1.7,0,7.3,1.3,11.39999,1.3l1.39999,.7h8c11.59999,0,13.40001-2.3,15.40001-3.3,.89999-1.1,1.70001-5,2-5.4,.5-2.8,1.20001-5.2,1.20001-6.7,0-2-1-3.3-1.20001-2.7-3.60001,0-5.10001,5.1-6.10001,6l-3.39999,3.4c-.7,0-3.89999,2-4.60001,2-2,.8-2.8,2-6.10001,2-4.39999,0-3.3,.9-8.7,.7-3-.8-8.10001-.8-11.39999-4s-4.3-1.8-9.39999-16c0-2-2.5-3.7-1.39999-6.1-.8-2.4-.7-3.5-.7-12.1,0-3.2,1.3-5.1,1.3-8,1.39999-2.6,1.8-5.1,2.7-8,0-.7,2.7-2.7,2.7-3.4,.7-.7,3.3-5.3,3.89999-6-.2-.6,6.39999-4.2,6.10001-4.1,6.39999-1.5,4.10001-2.1,12.10001-1.9,1.39999,0,5.3,.7,6,.7,3.7,1.9,11.09999,5.4,11.40001,9.3,4.10001,4,3.39999,1,4.10001,2,.60001-.3,.89999-1.2,1.29999-2-.20004-1.1-.50003-2.2-.60004-3.3Zm67.89999,42.6c-1.79999,5.2,.10001,6.1-7,13.2-3.5,3.5-4.60001,3.8-7.79999,7-4.60001,1.4-5.89999,.9-10.79999,4.8-5.57697-.32581-11.08887-1.3677-16.39999-3.1-2.79999,0-4.10001-3.5-11.60001-8.5-2.10001-1.8-6.20001-10.7-6.20001-17-.89999-.8,1.60001-3.2,1.60001-9.4,0-2,2.39999-3.7,3.79999-5.4-.89999-2.2,7.10001-11,14-13.3h14.79999c.70001,1.1,4.5,.8,7,.8,.10001,.6,3.20001,.9,5.39999,3.2,2.39999,0,5.29999,5.1,7.79999,7.8,.79999,.8,2.39999,5.4,3.20001,6.2,.10001,1,2.29999,7.9,2.29999,10.8-.09998,2.4-.09998,2.6-.09998,2.9Zm-14-18.6c-1.60001-1.7-9.79999-11.8-13.20001-11.7-2.39999,1-5.5,.8-8.60001,.8-3.04199,2.02662-5.85806,4.37334-8.39999,7-2.10001,3.8-2,9.2-3.89999,10.2,0,4.1,.39999,9.6-.79999,11.6,.39999,2.1,.60001,4.1,.79999,6.2,0,8.9,3.60001,6.3,4.60001,8.6l1.60001,3.2c9.60001,4.8,9.10001,3.8,14,3.8,1,1,7.60001-5,11.70001-7,2.10001,0,5-10.4,5.39999-10.8,.60001-1.2-.79999-10.8-.79999-16.3-.46799-1.99212-1.28018-3.88725-2.39999-5.6h-.00003Zm81.70001,40.2l-.79999-.8c-.79999,0-5.5-3.1-6.29999-3.1-1.39999-.8-1.89999-3.8-2.39999-4.7,0-2.2,1.60001-9.6,1.5-15.9-.6593-1.47397-.93451-3.09091-.79999-4.7l.79999-2.4c-.98318-2.79897-1.52304-5.73437-1.60001-8.7,.60001-1-3.20001-4.7-3.20001-7.2-6.10001-8.1-13-4.7-17.5-5.5-1.89999,.8-3.29999,2.5-7.10001,3.2-3,.6-4.70001,3.3-7.89999,3.2-1.39999-1.2,.10001-6.3-2.39999-6.3l-1.70001-.8c-1-.3-3,2.7-4.70001,4.8-3.39999,3.4-4.60001,4.9-8.70001,7.1,0,2.5,1.20001,3,5.5,5.6,0,.8,.79999,6.3,.79999,7.9,0,5.1,0,14.9,.10001,25.4-2.70001,1.8-3.89999,2.7-7.10001,3.2v.8c0,2.9,1.10001,2.2,4.70001,2.4,.79999,0,3.20001-.8,4-.8h16.70001c.79999-.7,1-.9,.79999-2.4-.79999-1.1-4.20001-2.4-7.10001-2.4-1.5-.9-2.39999-3.4-2.39999-5.5l.10001-25.5c.70001-1.9,.89999-4.2,2.39999-6.3,6.29999-6.3,14.10001-8,15.79999-7.2s3.5,2.4,6.29999,3.1c3.39999,0,2.39999,7.3,2.39999,11.2,0,.8,.79999,3.9,.79999,4.7s1.60001,3.9,1.60001,4.7c-.06424,1.1073-.3356,2.19273-.79999,3.2v15.1c-.79999,.8-.29999,2.4-2.39999,2.4-.79999,.7-3.79999,.7-6.29999,2.4,0,2.6,2.79999,1.2,4.70001,1.6,.79999,0,4,.8,4.70001,.8h16.70001c.78448-.61386,1.1037-1.65131,.79999-2.6v.00002Zm36-89.3c-3.20001,0-5.10001,2.7-8.79999,3.3-3.5,3.4-8.10001,5.7-8.10001,8.8-.70001,2.7-.70001,6.3-3.10001,6.3,0,3.8-2.20001,11.6-2.29999,11.2,0,7.7,.70001,5.8-7.20001,12.8,0,2.5,1.10001,2.1,6.39999,6.4,0,2.5,.79999,5.6,2.39999,6.3v1.6c0,.9-1.60001,3.3-1.60001,4.1,0,8.9-.29999,13.1,.79999,15.9,0,2.1-2.79999,4.4-1.60001,6.4-2.79999,7.2-6,2.9-8.89999,7.1l.79999,.8h14.39999c2-.8,2.70001-.8,7.20001-.8,3,0,3.39999,.8,10.5,.8,.70001-.8,.79999,.1,.79999-3.2,.89999-1.1-4.89999-.8-7.20001-.8-.5-.3-7.79999-3.5-7.20001-3.9l-.10001-24.7c0-1.8-1.10001-3.4-.79999-6.4,1.20001-4.6-.60001-8,8.79999-8,.79999,0,6.39999-.8,8-.8,1.13214-.97246,1.75818-2.40869,1.70001-3.9,0-.8-1.70001-2.4-1.70001-2.4h-11.19992c-.5,0-3.79999-1.3-4.10001-2.5,0-3.7-1.39999-9.8-.79999-11.1-.04633-5.34003,1.9581-10.49428,5.60001-14.4,1.29999-1.1,4.79999-.7,4.79999-.8,3,0,5.10001,2.3,8,2.3,.79999,0,5.5,.8,6.39999,.8,2.10001,0,5.29999-3.3,4.70001-4.7,.10001-2.7,.10001-6.5-16.60001-6.5Z" style="fill:#fffffc;"/><path d="M376.79883,126.80317h-.20001l-.29999-.1h-.70001c-.39999,0-.89999,.1-1.5,.1-1.20328,.01947-2.39676-.21922-3.5-.7-.5,1.4-1.10001,2.89999-1.60001,4.3-1.13248,3.20599-2.979,6.11258-5.39999,8.5-2.29999,2.3-4.5,4.8-6.89999,6.89999-.44733,.01601-.87366,.19365-1.20001,.5h0c-2.70001-.60001-5-2.10001-7.29999-3.3-1-.5-1.70001-.5-2.29999,.10001-.77643,.79027-1.41827,1.70233-1.89999,2.7-.79999,1.8-1.29999,2-3,.8-.5-.39999-.60001-.5-1,.10001-.89999,1.2-1.89999,2.2-2.89999,3.39999h0c-.22501-.17847-.55209-.14075-.73056,.08426-.02808,.0354-.05139,.07431-.06943,.11574,0,.10001-.10001,.10001-.10001,.2l-.20001,.3c-.5-.10001-.89999-.2-1.29999,.2-.66223-.28563-1.37915-.4222-2.10001-.39999-2.39999,.2-4.89999,3.60001-4.60001,6.60001-.0831,.56264-.11658,1.1315-.10001,1.7l-.20001,.5c.11093,.18242,.17929,.38751,.20001,.60001-.11093-.18242-.17929-.38751-.20001-.60001l-.20001,.3c-.70001,.60001-.70001,1.7-1.60001,2.10001-1.89999,0-3.39999,1-5,1.60001-4.29999,1.39999-8.70001,1.39999-13.10001,1.89999h-2.60001c-1.60001-.39999-3.39999,.2-5-.39999-.854-.65462-1.93344-.94246-3-.8-1.89999,.39999-3.60001-.8-5.5-.89999-2.86069-.20871-5.68326-.77994-8.39999-1.7-3.04019-1.00952-6.01291-2.21196-8.89999-3.60001-2.39999-1.10001-5-2.2-7.5-3.2-1.28653-.60181-2.52371-1.30399-3.70001-2.10001-4.39999-2.7-8.10001-6.3-12.3-9.2-2.89999-2-5.10001-4.7-7.89999-6.8-1.60001-1.10001-2.5-3-3.8-4.5-.29384-.49367-.70633-.90616-1.2-1.2-1.02087-1.19977-1.9565-2.46954-2.8-3.8-2.2-.2-4.39999-.5-6.2-.8l-1.29997-.20001c.39999,.8,.8,1.6,1.3,2.39999,1.112,2.44208,2.48679,4.75574,4.10001,6.89999,1.2,1.7,2.3,3.39999,3.60001,5,2.6118,3.29655,5.41672,6.43539,8.39999,9.39999,2.80692,2.89171,5.88805,5.50398,9.2,7.8,8.505,6.29349,18.14969,10.8781,28.39999,13.50002,.20001,.5,.5,.39999,.89999,.3l.79999,.3c.29999,.5,.60001,.3,1,.10001l.89999,.10001c.15787,.2198,.46402,.27,.68384,.11214l.01617-.01213h0l.70001,.2c.62222,.41447,1.41074,.48956,2.10001,.2,.71768,.44606,1.5946,.55568,2.39999,.3,.61893,.40961,1.36292,.58675,2.10001,.5,.75302,.18149,1.53406,.21544,2.29999,.10001,.17993,.25616,.52066,.34134,.79999,.2,.05524,0,.10001-.04477,.10001-.09999v-.00002h0c1.12451,.19997,2.27548,.19997,3.39999,0-.2193-.53812-.28845-1.12567-.20001-1.7-.03842,.57414,.02939,1.15045,.20001,1.7l1.5,.10001c.31213,.21878,.73737,.17625,1-.10001,.94403,.09888,1.89832-.00337,2.79999-.3,3.89999,.7,7.70001-.2,11.39999-1.2,1.64447-.09521,3.28113-.29562,4.89999-.60001,3.5-1.10001,7.10001-1.7,10.5-3.39999,3-1.5,6.10001-2.89999,9-4.39999,3.38159-1.84261,6.65372-3.87935,9.79999-6.10001,3.10001-2.10001,6.39999-4.10001,8.5-7.3,.39365-.07584,.74783-.28835,1-.60001l-.39999-.3c-.10001-.10001-.20001-.2-.29999-.2,.10001,.10001,.20001,.2,.29999,.2l.39999,.3c1.84302-1.59157,3.5184-3.36748,5-5.3,2.19998-2.59999,4.29999-5.3,6.29999-8.10001,1.5-2.2,3.29999-4.3,4-7.10001l.20001-.5c.599-.27971,1.06537-.78194,1.29999-1.4-.19992-.09999-.99994-.19999-1.29993-.3Zm-72.10001,39.2c.17868-.07858,.32141-.22131,.39999-.39999-.07858,.17868-.22131,.32141-.39999,.39999Zm7.29999,.7c-.20001,.2-.39999,.3-.60001,.5,.2236-.13612,.42581-.30461,.60001-.5l1.5-.3-1.5,.3Zm14-3.10001c-.11026-.10527-.24963-.17496-.39999-.2,.18658-.323,.35355-.65694,.5-1l-.5,1c.10001,0,.20001,.10001,.39999,.2Zm36.89999-18.3l-.29999-.3c.10001,0,.20001,.2,.29999,.3h0ZM232.19883,40.40317c.46178,.083,.93111,.11652,1.39999,.1,2.08116-.07929,4.15355-.31327,6.2-.7,2.28044-.41447,4.58521-.68169,6.89999-.8,.8-1.3,1.60001-2.5,2.39999-3.8,.97577-1.98374,2.2963-3.77831,3.89999-5.3,5.49547-5.0087,11.57225-9.33968,18.09999-12.9,.86975-.57979,1.99237-.6185,2.89999-.1,.9241,.64176,2.16928,.55875,3-.2,.92456-.91263,2.11514-1.50793,3.39999-1.7,.48975-.05919,.88974-.41919,1-.9,1.5-.9,3.29999-.8,4.79999-1.8,.65161-.41892,1.44263-.56274,2.20001-.4,1.79999,.5,3.39999-.1,5-.6,.29999-.1,.70001-.3,1-.1,1.29999,.6,2.39999,0,3.5-.6,2.60001,.4,3.5,2.9,5.39999,4.2,1.5,1,2.39999,2.1,2,4-.2868,1.65104,.11029,3.34772,1.10001,4.7,1.39999,2,3.5,2.9,5.5,4l.5,.4h0c.18173,.53127,.53311,.98806,1,1.3,.89999,2.4,1.70001,2.9,4.29999,2.3,1.78326-.50338,3.68347-.39781,5.39999,.3,2,.8,4.10001,1.3,6.29999,.1,3.1236-1.42722,5.71436-3.80792,7.39999-6.8,.22385-.4219,.62967-.71704,1.10001-.8,2.89999-.5,6.60001,2.7,6.60001,5.6-.01465,.23236-.12289,.44885-.29999,.6-.89999,.7-.20001,.8,.29999,1,1.79999,.7,2.10001,1.5,1,3.2-.88278,1.31495-1.43195,2.82515-1.60001,4.4,2.10001-1.9,2.5-4.6,4.79999-5.8,1.20001-.5,1,1.1,1.79999,1.2,1.20001,.2,1.20001,2,2.60001,2.4,.29999,.1-.20001,.9-.60001,1.3-.5,.6-1.20001,1-1.5,1.9,.70001,.1,1.10001-.4,1.5-.7,1.20001-.8,2.10001-1.1,2.10001,.8,0,.9,.39999,.8,1.20001,.5s1.70001-.3,1.29999,1.1c-.20001,.8-.20001,1.4,1,1.5,1.79999,.2,2,1.3,.89999,2.7-.60559,.51815-1.0845,1.16809-1.39999,1.9,.89999-.4,1.5-.6,2.10001-.9,1-.4,1.89999-1.2,2.89999-.3-.5,.9-.70001,1.7,.60001,2.2,.36414,.18436,.67422,.46,.89999,.8-1.20001,1.8,0,2.2,1.39999,2.4,.10001,0,.20001,.3,.29999,.4,.14865,.46079,.63211,.72448,1.10001,.6h0c2.5-.6,4.60001,1,6.89999,1.3,.5,0,.79999,.5,1,.9-.10001,.5-.5,.9-.29999,1.4-.29999,.8-.60001,1.7-.89999,2.5-1.20001,.5-1.39999,1.6-1.60001,2.6l-.10001,.2h.60001c.89999,0,1.89999-.1,2.89999-.1,3.17429-.08216,6.31381,.67685,9.10001,2.2-.20001-.9-.5-1.8-.79999-2.8-1.20001-3.6-2.20001-7.3-4.20001-10.7l-.29999,.2,.29999-.2c0-.1-.10001-.1-.20001-.2l-.79999-.3h0l.79999,.3c.03445-.90789-.33109-1.78519-1-2.4l-.29999-1.2c-1.21643-3.05405-2.86676-5.91681-4.89999-8.5-1.5-1.8-2.20001-4-4-5.6-.09656-.39502-.40497-.70344-.79999-.8h0c-.20001-1.6-1.89999-1.9-2.5-2.9-2.10001-3.4-5.5-5.6-8.29999-8.2-4.05612-3.70923-8.55725-6.90032-13.39999-9.5l-2.20001-1.1c-.10001-.4-.20001-.5-.60001-.4l-.89999-.5h0c-.12424-.37543-.51559-.59286-.89999-.5-.28604-.42854-.7883-.66036-1.29999-.6-1.45889-1.07242-3.12915-1.82234-4.89999-2.2l-3.79999-1.2c-.25348-.46492-.78174-.70873-1.29999-.6-1.77921-.41532-3.51907-.98412-5.20001-1.7-4.09995-1.40001-8.39996-1.70001-12.69995-2.30001-5.21622-.452-10.47037-.14888-15.60001,.9-3.11359-.01656-6.21292,.42139-9.20001,1.3-2.20001,.6-4.5,.7-6.5,2.1h0l-1.70001,.6c-2.20001,.6-4.39999,1.2-6.60001,2-3.68051,1.48068-7.17172,3.39414-10.39999,5.7-3.84644,2.34885-7.55273,4.91988-11.10001,7.7-6.80493,5.56966-12.56177,12.30854-17,19.9h.00003Zm142.10001,18.7c.27051,.10728,.51077,.27891,.70001,.5-.16867-.24243-.41599-.41908-.70001-.5,.29999-.6,.60001-1.3,.89999-1.9-.21701,.66941-.51953,1.30802-.89999,1.9Zm0-13.9h0l1,.5-1-.5Zm.10001-2.1c.01556,.17282-.01917,.34646-.10001,.5,.21274,.11316,.38684,.28727,.5,.5-.11316-.21273-.28726-.38684-.5-.5,.08084-.15354,.11557-.32718,.10001-.5Zm-21.20001-24l1,.5c1.29999,1.3,2.5,2.5,3.89999,3.7-1.39999-1.2-2.60001-2.4-3.89999-3.7h0l-1-.5-.60001,.5,.60001-.5Zm-12.29999-8.1c-.32343-.20152-.62506-.43612-.89999-.7h0c.20386,.33593,.52423,.5851,.89999,.7Zm-1-.6c-.10001,.2-.20001,.3-.39999,.3,.20001,0,.29999-.1,.39999-.3Zm-1.20001,.1v.5c-.1011-.15133-.1011-.34867,0-.5l-.29999-.2,.29999,.2Zm-5.79999-2.8l.20001,.1-.20001-.1c-.30649,.19257-.64526,.32808-1,.4,.34918-.08965,.6853-.2241,1-.4Zm-18.80002-5.5l.39999,.2-.39999-.2c-.01056,.07581-.04568,.14606-.10001,.2,.05432-.05394,.08945-.12419,.10001-.2Zm-24.89999,1.5l-.29999,.6,.29999-.6h0Zm-8.39999,9.8c.2381-.32422,.50592-.62552,.79999-.9-.29999,.3-.5,.6-.79999,.9l-.60001-.3,.60001,.3Zm2.29999,4c-.59857-.18831-.97717-.77729-.89999-1.4v-.1c.39999-.6,.89999-1,1.60001-.7,.57043,.17434,.89151,.77808,.71716,1.3485-.00528,.01731-.01099,.03448-.01715,.0515q0,.1-.10001,.2c-.1347,.5356-.6781,.86059-1.21371,.72588-.02914-.00733-.05792-.01596-.08627-.02588,.10001-.1,0-.1,0-.1h-.00003Z" style="fill:#ff9318;"/></g><g id="b"><g><path d="M20.15186,159.45946c.08838-.23438,.17969-.46484,.2749-.69238,.0957-.22754,.20166-.44434,.31934-.64941l12.23193-21.62598c.11719-.19043,.23438-.30762,.35205-.35254,.11719-.04395,.27832-.06543,.48389-.06543h1.56201v31.12988h-1.97998v-26.53223c0-.38086,.02197-.78418,.06592-1.20996l-12.25391,21.75781c-.20557,.38184-.49902,.57227-.87988,.57227h-.35205c-.3667,0-.66016-.19043-.87988-.57227l-12.58398-21.7793c.04395,.4248,.06592,.83594,.06592,1.23145v26.53223h-1.95801v-31.12988h1.54004c.20508,0,.37012,.02148,.49463,.06543,.12451,.04492,.24561,.16211,.36328,.35254l12.56201,21.64746c.21973,.41113,.41016,.85156,.57178,1.32031Z" style="fill:#fff;"/><path d="M43.2959,167.2036h-2.26611v-31.12988h2.26611v31.12988Z" style="fill:#fff;"/><path d="M50.55566,136.15087c.11719,.05176,.2417,.16504,.37402,.34082l20.15186,26.97168c-.04395-.43945-.06592-.86523-.06592-1.27539v-26.11426h1.97998v31.12988h-1.07812c-.3374,0-.60889-.14648-.81396-.44043l-20.23975-27.01562c.04395,.44043,.06592,.8584,.06592,1.25391v26.20215h-1.95801v-31.12988h1.1001c.20508,0,.36621,.02539,.48389,.07715Z" style="fill:#fff;"/><path d="M79.41943,136.15087c.11719,.05176,.2417,.16504,.37402,.34082l20.15186,26.97168c-.04395-.43945-.06592-.86523-.06592-1.27539v-26.11426h1.97998v31.12988h-1.07812c-.3374,0-.60889-.14648-.81396-.44043l-20.23975-27.01562c.04395,.44043,.06592,.8584,.06592,1.25391v26.20215h-1.95801v-31.12988h1.1001c.20508,0,.36621,.02539,.48389,.07715Z" style="fill:#fff;"/><path d="M125.35547,136.07372v1.87012h-16.38965v12.58398h13.63965v1.82617h-13.63965v12.97949h16.38965v1.87012h-18.65576v-31.12988h18.65576Z" style="fill:#fff;"/><path d="M151.73291,167.2036h-1.73779c-.20557,0-.37402-.05469-.50586-.16504-.13232-.11035-.23486-.25293-.30811-.42871l-3.67383-9.04199h-15.29004l-3.65234,9.04199c-.05859,.16113-.16162,.30078-.30762,.41797-.14697,.11719-.32324,.17578-.52832,.17578h-1.71582l12.73779-31.12988h2.24414l12.73779,31.12988Zm-20.83398-11.30762h13.94824l-6.35791-15.73047c-.10303-.24902-.20557-.53125-.30811-.84668-.10303-.31543-.20557-.64941-.30811-1.00098-.10254,.35156-.20557,.68555-.30811,1.00098s-.20557,.60449-.30762,.86914l-6.3584,15.70801Z" style="fill:#fff;"/><path d="M155.16406,154.66356v12.54004h-2.24414v-31.12988h8.03027c3.65186,0,6.40527,.7998,8.26074,2.39746,1.85547,1.59961,2.7832,3.87988,2.7832,6.84277,0,1.36328-.25293,2.61719-.75879,3.76172-.50635,1.14355-1.23584,2.13086-2.18945,2.95898-.95312,.8291-2.11182,1.47363-3.47559,1.93555-1.36426,.46191-2.9043,.69336-4.62012,.69336h-5.78613Zm0-1.80371h5.78613c1.37842,0,2.61035-.19043,3.6958-.57227,1.08545-.38086,2.00537-.90918,2.76123-1.58398,.75537-.6748,1.33447-1.4707,1.73779-2.38672,.40332-.91699,.60498-1.91797,.60498-3.00293,0-2.39062-.73682-4.23145-2.21094-5.52246-1.47412-1.29004-3.67041-1.93555-6.58887-1.93555h-5.78613v15.00391Z" style="fill:#fff;"/><path d="M201.73779,151.62743c0,2.40527-.35938,4.58691-1.07812,6.54492s-1.73047,3.62988-3.03613,5.0166c-1.30469,1.38574-2.86719,2.45605-4.68555,3.21191-1.81836,.75488-3.83594,1.13281-6.0498,1.13281-2.18555,0-4.1875-.37793-6.00586-1.13281-1.81934-.75586-3.38086-1.82617-4.68652-3.21191-1.30518-1.38672-2.3208-3.05859-3.04688-5.0166s-1.08887-4.13965-1.08887-6.54492c0-2.39062,.36279-4.56445,1.08887-6.52246s1.7417-3.62988,3.04688-5.0166c1.30566-1.38574,2.86719-2.45996,4.68652-3.22266,1.81836-.7627,3.82031-1.14453,6.00586-1.14453,2.21387,0,4.23145,.37793,6.0498,1.13379,1.81836,.75488,3.38086,1.8291,4.68555,3.22266,1.30566,1.39355,2.31738,3.06934,3.03613,5.02734s1.07812,4.13184,1.07812,6.52246Zm-2.33203,0c0-2.16992-.30078-4.12109-.90137-5.85156-.60156-1.73047-1.44922-3.19727-2.54102-4.40039-1.09277-1.20215-2.40918-2.12305-3.94922-2.76074s-3.24902-.95703-5.12598-.95703c-1.84863,0-3.53906,.31934-5.07129,.95703-1.53271,.6377-2.85254,1.55859-3.95996,2.76074-1.10742,1.20312-1.96533,2.66992-2.57373,4.40039-.60889,1.73047-.91309,3.68164-.91309,5.85156,0,2.18555,.3042,4.13965,.91309,5.86328,.6084,1.72363,1.46631,3.18652,2.57373,4.38867,1.10742,1.20312,2.42725,2.12012,3.95996,2.75,1.53223,.63086,3.22266,.94629,5.07129,.94629,1.87695,0,3.58594-.31543,5.12598-.94629,1.54004-.62988,2.85645-1.54688,3.94922-2.75,1.0918-1.20215,1.93945-2.66504,2.54102-4.38867,.60059-1.72363,.90137-3.67773,.90137-5.86328Z" style="fill:#fff;"/><path d="M206.90771,165.28954h14.76172v1.91406h-17.00586v-31.12988h2.24414v29.21582Z" style="fill:#fff;"/><path d="M225.84912,167.2036h-2.2666v-31.12988h2.2666v31.12988Z" style="fill:#fff;"/><path d="M246.59473,139.8579c-.13281,.24902-.32324,.37402-.57227,.37402-.19141,0-.43848-.13574-.73926-.40723-.30176-.27148-.71094-.57227-1.22559-.90234s-1.1582-.63379-1.93066-.91309c-.77246-.27832-1.72559-.41797-2.8584-.41797s-2.12988,.16211-2.99023,.48438c-.86133,.32227-1.58203,.7627-2.16309,1.32031-.58203,.55762-1.02344,1.20215-1.32422,1.93555-.30176,.7334-.45312,1.50391-.45312,2.31055,0,1.05566,.22461,1.92871,.67188,2.61719,.44824,.68945,1.03906,1.27637,1.77441,1.76074,.7334,.4834,1.56738,.89062,2.5,1.2207s1.89062,.65625,2.875,.97852c.98438,.32324,1.94238,.67871,2.875,1.06738s1.76562,.87695,2.5,1.46289c.73438,.58691,1.32617,1.30957,1.77441,2.16699,.44727,.8584,.67188,1.9248,.67188,3.20117,0,1.30566-.22363,2.53418-.6709,3.68457-.44824,1.15234-1.09668,2.15332-1.94727,3.00293-.85059,.85156-1.8916,1.52246-3.12402,2.01367s-2.63965,.73633-4.22363,.73633c-2.05371,0-3.82129-.3623-5.30273-1.08887-1.48145-.72559-2.7793-1.71875-3.89355-2.98047l.61621-.96777c.17578-.2207,.38086-.33008,.61621-.33008,.13184,0,.30078,.08789,.50586,.26367,.20605,.17578,.45508,.39258,.74902,.64941,.29395,.25586,.64648,.53516,1.05762,.83594s.88867,.5791,1.43262,.83594c.54297,.25684,1.16699,.47266,1.87207,.64844s1.50586,.26465,2.40137,.26465c1.2334,0,2.33496-.1875,3.30469-.56152s1.78809-.88379,2.45605-1.5293c.66895-.64453,1.17871-1.41113,1.53125-2.29883,.35254-.88672,.5293-1.83691,.5293-2.84863,0-1.10059-.22461-2.00586-.67188-2.7168-.44922-.71191-1.04004-1.30566-1.77441-1.78223s-1.56738-.87598-2.5-1.19922c-.93262-.32227-1.8916-.6377-2.875-.94629-.98438-.30762-1.94238-.65234-2.875-1.0332-.93262-.38184-1.7666-.86914-2.50098-1.46387-.73438-.59375-1.3252-1.33398-1.77344-2.22168-.44824-.88672-.67188-1.99805-.67188-3.33301,0-1.04102,.19824-2.0459,.59473-3.01367s.97656-1.82227,1.74023-2.56348c.76465-.74023,1.70801-1.33398,2.83105-1.78125,1.12402-.44727,2.40527-.67188,3.84473-.67188,1.61523,0,3.06543,.25684,4.35059,.77051s2.45605,1.29785,3.5127,2.35352l-.52734,1.0127Z" style="fill:#fff;"/></g><g><path d="M85.12695,181.71727l-2.92969,11.71875h-8.78906v35.15625h-11.71875v-35.15625h-11.71875v-11.71875h35.15625Z" style="fill:#fff;"/><path d="M96.8457,215.14501l23.4375,4.48242v11.89453l-35.15625-6.70898v-43.0957h32.22656v11.71875h-20.50781v2.92969h17.57812l-2.92969,11.71875h-14.64844v7.06055Z" style="fill:#fff;"/><path d="M132.00195,215.14501l23.4375,4.48242v11.89453l-35.15625-6.70898v-43.0957h32.22656v11.71875h-20.50781v21.70898Z" style="fill:#fff;"/><path d="M155.43945,181.71727h11.71875v14.64844h11.71875l-2.92969,11.71875h-8.78906v20.50781l-11.71875-2.92969v-43.94531Zm35.15625,52.73438l-11.71875-2.92969v-49.80469h11.71875v52.73438Z" style="fill:#fff;"/><path d="M214.03271,228.59227h-11.71875v-46.875h11.71875v46.875Z" style="fill:#fff;"/><path d="M252.11816,234.45165l-11.71875-2.92969v-38.08594h-11.71875v35.15625l-11.71826-2.92969v-43.94531h35.15576v52.73438Z" style="fill:#fff;"/><path d="M263.83691,181.71727h11.71875v14.64844h11.71875l-2.92969,11.71875h-8.78906v20.50781l-11.71875-2.92969v-43.94531Zm35.15625,52.73438l-11.71875-2.92969v-49.80469h11.71875v52.73438Z" style="fill:#fff;"/><path d="M313.6416,215.14501l23.4375,4.48242v11.89453l-35.15625-6.70898v-43.0957h32.22656v11.71875h-20.50781v2.92969h17.57812l-2.92969,11.71875h-14.64844v7.06055Z" style="fill:#fff;"/><path d="M348.79785,215.14501l23.4375,4.48242v11.89453l-35.15625-6.70898v-43.0957h11.71875v33.42773Z" style="fill:#fff;"/><path d="M383.9541,215.14501l23.4375,4.48242v11.89453l-35.15625-6.70898v-43.0957h11.71875v33.42773Z" style="fill:#fff;"/></g></g></svg>