<?xml version="1.0" encoding="UTF-8"?><svg xmlns="http://www.w3.org/2000/svg" viewBox="0 0 451.07367 175.38817"><g id="a"><path d="m62,68.10317c-2.9,4.8.1,7.1-2.8,10.5,0,.8-3.5,2.8-3.5,3.6-1.9,4.3-1.8,4.8-8.4,6.3-.7,0-3.5,2-4.2,2-1.9-.7-6.5,1.6-12.7-1.3-2.6,0-2.2-.6-2.2-3.5-.6-1,4.2-.7,6.4-.7,6.4,0,11-4.5,13.3-9.3v-14c0-2.2-1.7-4.3-5.7-8.4-2.9-3-7.8-3.5-8.5-4.2-.9,0-5.8-.9-6.3-.7-.1-.9-2.7,1.4-4.2,1.4-3.6,1.2-1.1,10.8-2.8,12.8.3,1.8,1.4,3.7,1.4,5.6-1.07125,2.16858-1.5212,4.5914-1.3,7,0,.7,1.4,2.8,1.4,3.5v5.6c0,.6.7,2.8.7,3.5v3.6c0,1.3-.6,12.6-.6,14.1.1,8.9-.4,13.6,2.2,14.1h5s1.4.7,1.4,1.4c1.5,2.4-2.2,2.1-7,2.1-.8,0-2.8.7-3.6.7-2.9-.6-19.3,1.6-18.3-2.1-.7-2.7,3.5-2,5.6-2,3.2-1.5,3-5.9,4.9-9.3.2-.8,0-1.3-.8-2.8.2-.3-.6-.9.8-3.5.3-3.7-.8-5.5-.8-7.8,0-3.3.2-7.3-.7-9.1-.1-9.5,1.4-15.4,1.4-22.6-.7-2.49998-1.3-6.89999-2.2-8.49998,1.1-3.7-1.8-5.1-2.8-5.6-2.7-.2-6.3-2.5-7.1-2.8v-1.3h7.8c-2.6-1,15-.7,21.9-.7.7,0,7-.8,7.8-.8,4.5.1,8-.9,14.1,4.2.7,0,2.8,2.8,3.5,2.8,1.5.8,3.6,1.6,3.5,2.1-.4,4.7,3.4,9.2,3.4,14.1Zm49-.4c-1.6,0-6-1.1-9,3.3l.8.8c2.9,0,6.8,2.7,7.4,2.5,1-1,1.6,10,1.6,14.7,0,5.3,1.3,10.6.8,11.4,0,2.9-2.8,6.5-1.6,8.2,0,1.9-2.7,5-2.5,4.9-6,6-8.2,1.4-13.9,4.9h-3.3c-3.2,0-6.4-3-8.1-4.8,0-4.7-1.6-10.4-1.6-13.1,0-3.5-.4-8.8.8-10.6,0-1,1.1-12.3.8-13,0-4.6-1.1-5.5-8.1-9-6.9,0-10.6-.1-9,4.1l.8.9c.9,0,4.2,2.4,5,2.4,1.1,1.5,2,10.2,1.6,10.6-1.2.2-.8,7.2-.8,10.6v9c0,3.5,1.7,7.1,1.7,8.9,0,.8,1.6,3.3,1.6,3.3,6.3,9.1,11.7,6.2,13.1,7.3,4.2,0,7.2-1.6,11.4-1.6.8,0,3.3-3.3,3.3-3.3.8,0,3.3-1.7,4.1-1.7-.3,0,4.1-.7,4.1,1.7,1.7,2.6,2.4,3.9,4.1,3.3,1.6,0,5.1-2.5,8.1-2.5,4.60001-1.1,6.8-1.3,5.8-3.3-.2.2-2.4-2.5-4.1-2.5-2.1-.4-3.9-.7-5-2.3v-6.5c0-.8.9-4.1.9-5,0-2-1.6-4.3-.9-6.4,0-4.6,1.7-7.7,1.7-12.3-1.11403-3.38914-1.68771-6.93249-1.7-10.5-3.4-3.6-8.8-3.6-9.9-4.4Zm83.69999,31.1s-.8,3.3-1.60001,4.1c0,.8-2.5,4.1-2.5,4.8v3.2c-4.7,11.5-20.2,12-33.89999,12.3-.89999,0-2.5-1.6-3.3-1.6-1.8-.1-3.7-1.7-5.60001-3.1h-.8c-.8,0-4,3.2-4.8,3.2-1.2639-.57225-2.16258-1.73305-2.39999-3.1,0-2.4-.89999-2.5-.89999-4.1l.89999-3.4c.2-4.1-.89999-5.6-.89999-8,0-.8.89999-4.1.89999-4.9.2-6.8-.89999-12.2-.89999-17,0-.8.89999-7.2.89999-8.2,0-5.5-.5-15.6.8-16,.2-2.4-.8-4.3-.8-6.7-1.2-3.4,3.89999-3.3-8.3-13.6v-1.6c1.60001-.6,6.5-4.2,9.8-4.2,6.39999,0,8.89999.2,8.89999,6.5.7.3-.89999,7.7-.89999,12.1,0,6.3.3,16.2-.8,17,.2,4.7,2.10001,4.1,3.3,4.1.8,0,4.8-1.6,5.60001-1.6,3.39999,0,8.8-1.7,12.2-1.7,3-.3,5.3.8,8,1.7,4.2-.5,5.8,2.6,9,5.7l.8,1.6c8.00002,1.60001,7.30002,20,7.30002,22.5h-.00002Zm-15.49998-16.2c0-.8-3.2-3.2-3.2-3.9-2.39999-4.6-8.10001-4.4-9.7-5.8-2,.7-10.5-1.6-13.8,1.8.10001-.2-2.39999,2.8-2.39999,4.8,0,2.4-.89999,13.8-.89999,16.2v.8c0,.8.89999,4,.89999,4.8,0,6.7-.3,12.6,3.2,15.3,3.3,1.7,10.60001,2.4,11.39999,2.4,9.5-4.1,18.60001-6.1,18.5-20.3.2-12.80002-2.40001-11.10002-4-16.10002Zm83.59999-26.6c.48376-1.51902.72012-3.10594.70001-4.7,0-1.1-4.89999-4.6-6.79999-4.6-4.10001-.8-6.2-.8-7.3-2.7h-2.7c-5.10001,0-11.3,2-16,1.4-1.2,1.3-4.2,2-6.8,2-1.60001,1.1-7.60001,4.3-8,4.6l-9.3,9.4c-1.7,3.2-4.7,7.4-4.7,10,0,.7-1.89999,3.4-1.89999,4.1-.2.1-.7,7.9-.7,8.7s.7,4.1.7,4.7v4.6c0,2,2.10001,3.8,1.89999,6.1,0,2.7,2.39999,3.7,2,5.3,0,2.1,11.89999,12.3,12.10001,11.4,1.10001,1.2,2.39999,2.6,3.39999,2.7.7,0,5.3,1.9,6,1.9,1.7,0,7.3,1.3,11.39999,1.3l1.39999.7h8c11.59999,0,13.40001-2.3,15.40001-3.3.89999-1.1,1.70001-5,2-5.4.5-2.8,1.20001-5.2,1.20001-6.7,0-2-1-3.3-1.20001-2.7-3.60001,0-5.10001,5.1-6.10001,6l-3.39999,3.4c-.7,0-3.89999,2-4.60001,2-2,.8-2.8,2-6.10001,2-4.39999,0-3.3.9-8.7.7-3-.8-8.10001-.8-11.39999-4s-4.3-1.8-9.39999-16c0-2-2.5-3.7-1.39999-6.1-.8-2.4-.7-3.5-.7-12.1,0-3.2,1.3-5.1,1.3-8,1.39999-2.6,1.8-5.1,2.7-8,0-.7,2.7-2.7,2.7-3.4.7-.7,3.3-5.3,3.89999-6-.2-.6,6.39999-4.2,6.10001-4.1,6.39999-1.5,4.10001-2.1,12.10001-1.9,1.39999,0,5.3.7,6,.7,3.7,1.9,11.09999,5.4,11.40001,9.3,4.10001,4,3.39999,1,4.10001,2,.60001-.3.89999-1.2,1.29999-2-.20004-1.1-.50003-2.2-.60004-3.3Zm67.89999,42.6c-1.79999,5.2.10001,6.1-7,13.2-3.5,3.5-4.60001,3.8-7.79999,7-4.60001,1.4-5.89999.9-10.79999,4.8-5.57697-.32581-11.08887-1.3677-16.39999-3.1-2.79999,0-4.10001-3.5-11.60001-8.5-2.10001-1.8-6.20001-10.7-6.20001-17-.89999-.8,1.60001-3.2,1.60001-9.4,0-2,2.39999-3.7,3.79999-5.4-.89999-2.2,7.10001-11,14-13.3h14.79999c.70001,1.1,4.5.8,7,.8.10001.6,3.20001.9,5.39999,3.2,2.39999,0,5.29999,5.1,7.79999,7.8.79999.8,2.39999,5.4,3.20001,6.2.10001,1,2.29999,7.9,2.29999,10.8-.09998,2.4-.09998,2.6-.09998,2.9Zm-14-18.6c-1.60001-1.7-9.79999-11.8-13.20001-11.7-2.39999,1-5.5.8-8.60001.8-3.04199,2.02662-5.85806,4.37334-8.39999,7-2.10001,3.8-2,9.2-3.89999,10.2,0,4.1.39999,9.6-.79999,11.6.39999,2.1.60001,4.1.79999,6.2,0,8.9,3.60001,6.3,4.60001,8.6l1.60001,3.2c9.60001,4.8,9.10001,3.8,14,3.8,1,1,7.60001-5,11.70001-7,2.10001,0,5-10.4,5.39999-10.8.60001-1.2-.79999-10.8-.79999-16.3-.46799-1.99212-1.28018-3.88725-2.39999-5.6h-.00003Zm81.70001,40.2l-.79999-.8c-.79999,0-5.5-3.1-6.29999-3.1-1.39999-.8-1.89999-3.8-2.39999-4.7,0-2.2,1.60001-9.6,1.5-15.9-.6593-1.47397-.93451-3.09091-.79999-4.7l.79999-2.4c-.98318-2.79897-1.52304-5.73437-1.60001-8.7.60001-1-3.20001-4.7-3.20001-7.2-6.10001-8.1-13-4.7-17.5-5.5-1.89999.8-3.29999,2.5-7.10001,3.2-3,.6-4.70001,3.3-7.89999,3.2-1.39999-1.2.10001-6.3-2.39999-6.3l-1.70001-.8c-1-.3-3,2.7-4.70001,4.8-3.39999,3.4-4.60001,4.9-8.70001,7.1,0,2.5,1.20001,3,5.5,5.6,0,.8.79999,6.3.79999,7.9,0,5.1,0,14.9.10001,25.4-2.70001,1.8-3.89999,2.7-7.10001,3.2v.8c0,2.9,1.10001,2.2,4.70001,2.4.79999,0,3.20001-.8,4-.8h16.70001c.79999-.7,1-.9.79999-2.4-.79999-1.1-4.20001-2.4-7.10001-2.4-1.5-.9-2.39999-3.4-2.39999-5.5l.10001-25.5c.70001-1.9.89999-4.2,2.39999-6.3,6.29999-6.3,14.10001-8,15.79999-7.2s3.5,2.4,6.29999,3.1c3.39999,0,2.39999,7.3,2.39999,11.2,0,.8.79999,3.9.79999,4.7s1.60001,3.9,1.60001,4.7c-.06424,1.1073-.3356,2.19273-.79999,3.2v15.1c-.79999.8-.29999,2.4-2.39999,2.4-.79999.7-3.79999.7-6.29999,2.4,0,2.6,2.79999,1.2,4.70001,1.6.79999,0,4,.8,4.70001.8h16.70001c.78448-.61386,1.1037-1.65131.79999-2.6v.00002Zm36-89.3c-3.20001,0-5.10001,2.7-8.79999,3.3-3.5,3.4-8.10001,5.7-8.10001,8.8-.70001,2.7-.70001,6.3-3.10001,6.3,0,3.8-2.20001,11.6-2.29999,11.2,0,7.7.70001,5.8-7.20001,12.8,0,2.5,1.10001,2.1,6.39999,6.4,0,2.5.79999,5.6,2.39999,6.3v1.6c0,.9-1.60001,3.3-1.60001,4.1,0,8.9-.29999,13.1.79999,15.9,0,2.1-2.79999,4.4-1.60001,6.4-2.79999,7.2-6,2.9-8.89999,7.1l.79999.8h14.39999c2-.8,2.70001-.8,7.20001-.8,3,0,3.39999.8,10.5.8.70001-.8.79999.1.79999-3.2.89999-1.1-4.89999-.8-7.20001-.8-.5-.3-7.79999-3.5-7.20001-3.9l-.10001-24.7c0-1.8-1.10001-3.4-.79999-6.4,1.20001-4.6-.60001-8,8.79999-8,.79999,0,6.39999-.8,8-.8,1.13214-.97246,1.75818-2.40869,1.70001-3.9,0-.8-1.70001-2.4-1.70001-2.4h-11.19992c-.5,0-3.79999-1.3-4.10001-2.5,0-3.7-1.39999-9.8-.79999-11.1-.04633-5.34003,1.9581-10.49428,5.60001-14.4,1.29999-1.1,4.79999-.7,4.79999-.8,3,0,5.10001,2.3,8,2.3.79999,0,5.5.8,6.39999.8,2.10001,0,5.29999-3.3,4.70001-4.7.10001-2.7.10001-6.5-16.60001-6.5Z" style="fill:#fffffc;"/><path d="m376.00001,126.80317h-.20001l-.29999-.1h-.70001c-.39999,0-.89999.1-1.5.1-1.20328.01947-2.39676-.21922-3.5-.7-.5,1.4-1.10001,2.89999-1.60001,4.3-1.13248,3.20599-2.979,6.11258-5.39999,8.5-2.29999,2.3-4.5,4.8-6.89999,6.89999-.44733.01601-.87366.19365-1.20001.5h0c-2.70001-.60001-5-2.10001-7.29999-3.3-1-.5-1.70001-.5-2.29999.10001-.77643.79027-1.41827,1.70233-1.89999,2.7-.79999,1.8-1.29999,2-3,.8-.5-.39999-.60001-.5-1,.10001-.89999,1.2-1.89999,2.2-2.89999,3.39999h0c-.22501-.17847-.55209-.14075-.73056.08426-.02808.0354-.05139.07431-.06943.11574,0,.10001-.10001.10001-.10001.2l-.20001.3c-.5-.10001-.89999-.2-1.29999.2-.66223-.28563-1.37915-.4222-2.10001-.39999-2.39999.2-4.89999,3.60001-4.60001,6.60001-.0831.56264-.11658,1.1315-.10001,1.7l-.20001.5c.11093.18242.17929.38751.20001.60001-.11093-.18242-.17929-.38751-.20001-.60001l-.20001.3c-.70001.60001-.70001,1.7-1.60001,2.10001-1.89999,0-3.39999,1-5,1.60001-4.29999,1.39999-8.70001,1.39999-13.10001,1.89999h-2.60001c-1.60001-.39999-3.39999.2-5-.39999-.854-.65462-1.93344-.94246-3-.8-1.89999.39999-3.60001-.8-5.5-.89999-2.86069-.20871-5.68326-.77994-8.39999-1.7-3.04019-1.00952-6.01291-2.21196-8.89999-3.60001-2.39999-1.10001-5-2.2-7.5-3.2-1.28653-.60181-2.52371-1.30399-3.70001-2.10001-4.39999-2.7-8.10001-6.3-12.3-9.2-2.89999-2-5.10001-4.7-7.89999-6.8-1.60001-1.10001-2.5-3-3.8-4.5-.29384-.49367-.70633-.90616-1.2-1.2-1.02087-1.19977-1.9565-2.46954-2.8-3.8-2.2-.2-4.39999-.5-6.2-.8l-1.29997-.20001c.39999.8.8,1.6,1.3,2.39999,1.112,2.44208,2.48679,4.75574,4.10001,6.89999,1.2,1.7,2.3,3.39999,3.60001,5,2.6118,3.29655,5.41672,6.43539,8.39999,9.39999,2.80692,2.89171,5.88805,5.50398,9.2,7.8,8.505,6.29349,18.14969,10.8781,28.39999,13.50002.20001.5.5.39999.89999.3l.79999.3c.29999.5.60001.3,1,.10001l.89999.10001c.15787.2198.46402.27.68384.11214.00546-.00392.01086-.00798.01617-.01213h0l.70001.2c.62222.41447,1.41074.48956,2.10001.2.71768.44606,1.5946.55568,2.39999.3.61893.40961,1.36292.58675,2.10001.5.75302.18149,1.53406.21544,2.29999.10001.17993.25616.52066.34134.79999.2.05524,0,.10001-.04477.10001-.09999v-.00002h0c1.12451.19997,2.27548.19997,3.39999,0-.2193-.53812-.28845-1.12567-.20001-1.7-.03842.57414.02939,1.15045.20001,1.7l1.5.10001c.31213.21878.73737.17625,1-.10001.94403.09888,1.89832-.00337,2.79999-.3,3.89999.7,7.70001-.2,11.39999-1.2,1.64447-.09521,3.28113-.29562,4.89999-.60001,3.5-1.10001,7.10001-1.7,10.5-3.39999,3-1.5,6.10001-2.89999,9-4.39999,3.38159-1.84261,6.65372-3.87935,9.79999-6.10001,3.10001-2.10001,6.39999-4.10001,8.5-7.3.39365-.07584.74783-.28835,1-.60001l-.39999-.3c-.10001-.10001-.20001-.2-.29999-.2.10001.10001.20001.2.29999.2l.39999.3c1.84302-1.59157,3.5184-3.36748,5-5.3,2.19998-2.59999,4.29999-5.3,6.29999-8.10001,1.5-2.2,3.29999-4.3,4-7.10001l.20001-.5c.599-.27971,1.06537-.78194,1.29999-1.4-.19992-.09999-.99994-.19999-1.29993-.3Zm-72.10001,39.2c.17868-.07858.32141-.22131.39999-.39999-.07858.17868-.22131.32141-.39999.39999Zm7.29999.7c-.20001.2-.39999.3-.60001.5.2236-.13612.42581-.30461.60001-.5l1.5-.3-1.5.3Zm14-3.10001c-.11026-.10527-.24963-.17496-.39999-.2.18658-.323.35355-.65694.5-1l-.5,1c.10001,0,.20001.10001.39999.2Zm36.89999-18.3l-.29999-.3c.10001,0,.20001.2.29999.3h0ZM231.4,40.40317c.46178.083.93111.11652,1.39999.1,2.08116-.07929,4.15355-.31327,6.2-.7,2.28044-.41447,4.58521-.68169,6.89999-.8.8-1.3,1.60001-2.5,2.39999-3.8.97577-1.98374,2.2963-3.77831,3.89999-5.3,5.49547-5.0087,11.57225-9.33968,18.09999-12.9.86975-.57979,1.99237-.6185,2.89999-.1.9241.64176,2.16928.55875,3-.2.92456-.91263,2.11514-1.50793,3.39999-1.7.48975-.05919.88974-.41919,1-.9,1.5-.9,3.29999-.8,4.79999-1.8.65161-.41892,1.44263-.56274,2.20001-.4,1.79999.5,3.39999-.1,5-.6.29999-.1.70001-.3,1-.1,1.29999.6,2.39999,0,3.5-.6,2.60001.4,3.5,2.9,5.39999,4.2,1.5,1,2.39999,2.1,2,4-.2868,1.65104.11029,3.34772,1.10001,4.7,1.39999,2,3.5,2.9,5.5,4l.5.4h0c.18173.53127.53311.98806,1,1.3.89999,2.4,1.70001,2.9,4.29999,2.3,1.78326-.50338,3.68347-.39781,5.39999.3,2,.8,4.10001,1.3,6.29999.1,3.1236-1.42722,5.71436-3.80792,7.39999-6.8.22385-.4219.62967-.71704,1.10001-.8,2.89999-.5,6.60001,2.7,6.60001,5.6-.01465.23236-.12289.44885-.29999.6-.89999.7-.20001.8.29999,1,1.79999.7,2.10001,1.5,1,3.2-.88278,1.31495-1.43195,2.82515-1.60001,4.4,2.10001-1.9,2.5-4.6,4.79999-5.8,1.20001-.5,1,1.1,1.79999,1.2,1.20001.2,1.20001,2,2.60001,2.4.29999.1-.20001.9-.60001,1.3-.5.6-1.20001,1-1.5,1.9.70001.1,1.10001-.4,1.5-.7,1.20001-.8,2.10001-1.1,2.10001.8,0,.9.39999.8,1.20001.5s1.70001-.3,1.29999,1.1c-.20001.8-.20001,1.4,1,1.5,1.79999.2,2,1.3.89999,2.7-.60559.51815-1.0845,1.16809-1.39999,1.9.89999-.4,1.5-.6,2.10001-.9,1-.4,1.89999-1.2,2.89999-.3-.5.9-.70001,1.7.60001,2.2.36414.18436.67422.46.89999.8-1.20001,1.8,0,2.2,1.39999,2.4.10001,0,.20001.3.29999.4.14865.46079.63211.72448,1.10001.6h0c2.5-.6,4.60001,1,6.89999,1.3.5,0,.79999.5,1,.9-.10001.5-.5.9-.29999,1.4-.29999.8-.60001,1.7-.89999,2.5-1.20001.5-1.39999,1.6-1.60001,2.6l-.10001.2h.60001c.89999,0,1.89999-.1,2.89999-.1,3.17429-.08216,6.31381.67685,9.10001,2.2-.20001-.9-.5-1.8-.79999-2.8-1.20001-3.6-2.20001-7.3-4.20001-10.7l-.29999.2.29999-.2c0-.1-.10001-.1-.20001-.2l-.79999-.3h0l.79999.3c.03445-.90789-.33109-1.78519-1-2.4l-.29999-1.2c-1.21643-3.05405-2.86676-5.91681-4.89999-8.5-1.5-1.8-2.20001-4-4-5.6-.09656-.39502-.40497-.70344-.79999-.8h0c-.20001-1.6-1.89999-1.9-2.5-2.9-2.10001-3.4-5.5-5.6-8.29999-8.2-4.05612-3.70923-8.55725-6.90032-13.39999-9.5l-2.20001-1.1c-.10001-.4-.20001-.5-.60001-.4l-.89999-.5h0c-.12424-.37543-.51559-.59286-.89999-.5-.28604-.42854-.7883-.66036-1.29999-.6-1.45889-1.07242-3.12915-1.82234-4.89999-2.2l-3.79999-1.2c-.25348-.46492-.78174-.70873-1.29999-.6-1.77921-.41532-3.51907-.98412-5.20001-1.7-4.09995-1.40001-8.39996-1.70001-12.69995-2.30001-5.21622-.452-10.47037-.14888-15.60001.9-3.11359-.01656-6.21292.42139-9.20001,1.3-2.20001.6-4.5.7-6.5,2.1h0l-1.70001.6c-2.20001.6-4.39999,1.2-6.60001,2-3.68051,1.48068-7.17172,3.39414-10.39999,5.7-3.84644,2.34885-7.55273,4.91988-11.10001,7.7-6.80493,5.56966-12.56177,12.30854-17,19.9h.00003Zm142.10001,18.7c.27051.10728.51077.27891.70001.5-.16867-.24243-.41599-.41908-.70001-.5.29999-.6.60001-1.3.89999-1.9-.21701.66941-.51953,1.30802-.89999,1.9Zm0-13.9h0l1,.5-1-.5Zm.10001-2.1c.01556.17282-.01917.34646-.10001.5.21274.11316.38684.28727.5.5-.11316-.21273-.28726-.38684-.5-.5.08084-.15354.11557-.32718.10001-.5Zm-21.20001-24l1,.5c1.29999,1.3,2.5,2.5,3.89999,3.7-1.39999-1.2-2.60001-2.4-3.89999-3.7h0l-1-.5-.60001.5.60001-.5Zm-12.29999-8.1c-.32343-.20152-.62506-.43612-.89999-.7h0c.20386.33593.52423.5851.89999.7Zm-1-.6c-.10001.2-.20001.3-.39999.3.20001,0,.29999-.1.39999-.3Zm-1.20001.1v.5c-.1011-.15133-.1011-.34867,0-.5l-.29999-.2.29999.2Zm-5.79999-2.8l.20001.1-.20001-.1c-.30649.19257-.64526.32808-1,.4.34918-.08965.6853-.2241,1-.4Zm-18.80002-5.5l.39999.2-.39999-.2c-.01056.07581-.04568.14606-.10001.2.05432-.05394.08945-.12419.10001-.2Zm-24.89999,1.5l-.29999.6.29999-.6h0Zm-8.39999,9.8c.2381-.32422.50592-.62552.79999-.9-.29999.3-.5.6-.79999.9l-.60001-.3.60001.3Zm2.29999,4c-.59857-.18831-.97717-.77729-.89999-1.4v-.1c.39999-.6.89999-1,1.60001-.7.57043.17434.89151.77808.71716,1.3485-.00528.01731-.01099.03448-.01715.0515q0,.1-.10001.2c-.1347.5356-.6781.86059-1.21371.72588-.02914-.00733-.05792-.01596-.08627-.02588.10001-.1,0-.1,0-.1h-.00003Z" style="fill:#ff9318;"/></g><g id="b"><path d="m31.25098,167.2036h-1.73779c-.20557,0-.37402-.05469-.50586-.16504-.13232-.11035-.23486-.25293-.30811-.42871l-3.67383-9.04199h-15.29004l-3.65234,9.04199c-.05859.16113-.16162.30078-.30762.41797-.14697.11719-.32324.17578-.52832.17578h-1.71582l12.73779-31.12988h2.24414l12.73779,31.12988Zm-20.83398-11.30762h13.94824l-6.35791-15.73047c-.10303-.24902-.20557-.53125-.30811-.84668-.10303-.31543-.20557-.64941-.30811-1.00098-.10254.35156-.20557.68555-.30811,1.00098s-.20557.60449-.30762.86914l-6.3584,15.70801Z" style="fill:#fff;"/><path d="m59.43311,136.07372v1.91406h-10.93408v29.21582h-2.24414v-29.21582h-11v-1.91406h24.17822Z" style="fill:#fff;"/><path d="m72.52197,165.28954h14.76221v1.91406h-17.00586v-31.12988h2.24365v29.21582Z" style="fill:#fff;"/><path d="m121.66943,167.2036h-1.73779c-.20557,0-.37402-.05469-.50586-.16504-.13232-.11035-.23486-.25293-.30811-.42871l-3.67383-9.04199h-15.29004l-3.65234,9.04199c-.05859.16113-.16162.30078-.30762.41797-.14697.11719-.32324.17578-.52832.17578h-1.71582l12.73779-31.12988h2.24414l12.73779,31.12988Zm-20.83398-11.30762h13.94824l-6.35791-15.73047c-.10303-.24902-.20557-.53125-.30811-.84668-.10303-.31543-.20557-.64941-.30811-1.00098-.10254.35156-.20557.68555-.30811,1.00098s-.20557.60449-.30762.86914l-6.3584,15.70801Z" style="fill:#fff;"/><path d="m133.63721,136.15087c.11719.05176.2417.16504.37402.34082l20.15186,26.97168c-.04395-.43945-.06592-.86523-.06592-1.27539v-26.11426h1.97998v31.12988h-1.07812c-.3374,0-.60889-.14648-.81396-.44043l-20.23975-27.01562c.04395.44043.06592.8584.06592,1.25391v26.20215h-1.95801v-31.12988h1.1001c.20508,0,.36621.02539.48389.07715Z" style="fill:#fff;"/><path d="m191.10107,136.07372v1.91406h-10.93408v29.21582h-2.24414v-29.21582h-11v-1.91406h24.17822Z" style="fill:#fff;"/><path d="m222.84619,167.2036h-1.73828c-.20508,0-.37305-.05469-.50586-.16504-.13184-.11035-.23438-.25293-.30762-.42871l-3.67383-9.04199h-15.29004l-3.65234,9.04199c-.05859.16113-.16113.30078-.30762.41797-.14746.11719-.32324.17578-.52832.17578h-1.71582l12.73828-31.12988h2.24316l12.73828,31.12988Zm-20.83398-11.30762h13.94824l-6.3584-15.73047c-.10254-.24902-.20508-.53125-.30762-.84668s-.20605-.64941-.30762-1.00098c-.10352.35156-.20605.68555-.30859,1.00098s-.20508.60449-.30762.86914l-6.3584,15.70801Z" style="fill:#fff;"/></g></svg>