<?xml version="1.0" encoding="UTF-8"?>
<svg xmlns="http://www.w3.org/2000/svg" viewBox="0 0 451.07 193.16">
  <defs>
    <style>
      .cls-1 {
        letter-spacing: .1em;
      }

      .cls-2 {
        font-family: Lato-Light, Lato;
        font-size: 44px;
        font-weight: 300;
      }

      .cls-2, .cls-3 {
        fill: #fff;
      }

      .cls-4 {
        letter-spacing: -.05em;
      }

      .cls-5 {
        letter-spacing: .02em;
      }

      .cls-6 {
        letter-spacing: 0em;
      }

      .cls-7 {
        fill: none;
        stroke: #fff;
        stroke-miterlimit: 10;
        stroke-width: 2px;
      }

      .cls-8 {
        letter-spacing: .06em;
      }

      .cls-9 {
        letter-spacing: 0em;
      }

      .cls-10 {
        letter-spacing: -.02em;
      }

      .cls-11 {
        fill: #5d6d7e;
      }

      .cls-11, .cls-12, .cls-13, .cls-14, .cls-15 {
        stroke-width: 0px;
      }

      .cls-12 {
        fill: #34495e;
      }

      .cls-13 {
        fill: #ff9318;
      }

      .cls-14 {
        fill: #ffa184;
      }

      .cls-15 {
        fill: #fffffc;
      }

      .cls-16 {
        letter-spacing: 0em;
      }

      .cls-3 {
        font-family: Lora-Regular, Lora;
        font-size: 34.37px;
      }
    </style>
  </defs>
  <g id="Layer_1" data-name="Layer 1">
    <path class="cls-15" d="M62,43.58c-2.9,4.8.1,7.1-2.8,10.5,0,.8-3.5,2.8-3.5,3.6-1.9,4.3-1.8,4.8-8.4,6.3-.7,0-3.5,2-4.2,2-1.9-.7-6.5,1.6-12.7-1.3-2.6,0-2.2-.6-2.2-3.5-.6-1,4.2-.7,6.4-.7,6.4,0,11-4.5,13.3-9.3v-14c0-2.2-1.7-4.3-5.7-8.4-2.9-3-7.8-3.5-8.5-4.2-.9,0-5.8-.9-6.3-.7-.1-.9-2.7,1.4-4.2,1.4-3.6,1.2-1.1,10.8-2.8,12.8.3,1.8,1.4,3.7,1.4,5.6-1.07,2.17-1.52,4.59-1.3,7,0,.7,1.4,2.8,1.4,3.5v5.6c0,.6.7,2.8.7,3.5v3.6c0,1.3-.6,12.6-.6,14.1.1,8.9-.4,13.6,2.2,14.1h5s1.4.7,1.4,1.4c1.5,2.4-2.2,2.1-7,2.1-.8,0-2.8.7-3.6.7-2.9-.6-19.3,1.6-18.3-2.1-.7-2.7,3.5-2,5.6-2,3.2-1.5,3-5.9,4.9-9.3.2-.8,0-1.3-.8-2.8.2-.3-.6-.9.8-3.5.3-3.7-.8-5.5-.8-7.8,0-3.3.2-7.3-.7-9.1-.1-9.5,1.4-15.4,1.4-22.6-.7-2.5-1.3-6.9-2.2-8.5,1.1-3.7-1.8-5.1-2.8-5.6-2.7-.2-6.3-2.5-7.1-2.8v-1.3h7.8c-2.6-1,15-.7,21.9-.7.7,0,7-.8,7.8-.8,4.5.1,8-.9,14.1,4.2.7,0,2.8,2.8,3.5,2.8,1.5.8,3.6,1.6,3.5,2.1-.4,4.7,3.4,9.2,3.4,14.1ZM111,43.18c-1.6,0-6-1.1-9,3.3l.8.8c2.9,0,6.8,2.7,7.4,2.5,1-1,1.6,10,1.6,14.7,0,5.3,1.3,10.6.8,11.4,0,2.9-2.8,6.5-1.6,8.2,0,1.9-2.7,5-2.5,4.9-6,6-8.2,1.4-13.9,4.9h-3.3c-3.2,0-6.4-3-8.1-4.8,0-4.7-1.6-10.4-1.6-13.1,0-3.5-.4-8.8.8-10.6,0-1,1.1-12.3.8-13,0-4.6-1.1-5.5-8.1-9-6.9,0-10.6-.1-9,4.1l.8.9c.9,0,4.2,2.4,5,2.4,1.1,1.5,2,10.2,1.6,10.6-1.2.2-.8,7.2-.8,10.6v9c0,3.5,1.7,7.1,1.7,8.9,0,.8,1.6,3.3,1.6,3.3,6.3,9.1,11.7,6.2,13.1,7.3,4.2,0,7.2-1.6,11.4-1.6.8,0,3.3-3.3,3.3-3.3.8,0,3.3-1.7,4.1-1.7-.3,0,4.1-.7,4.1,1.7,1.7,2.6,2.4,3.9,4.1,3.3,1.6,0,5.1-2.5,8.1-2.5,4.6-1.1,6.8-1.3,5.8-3.3-.2.2-2.4-2.5-4.1-2.5-2.1-.4-3.9-.7-5-2.3v-6.5c0-.8.9-4.1.9-5,0-2-1.6-4.3-.9-6.4,0-4.6,1.7-7.7,1.7-12.3-1.11-3.39-1.69-6.93-1.7-10.5-3.4-3.6-8.8-3.6-9.9-4.4ZM194.7,74.28s-.8,3.3-1.6,4.1c0,.8-2.5,4.1-2.5,4.8v3.2c-4.7,11.5-20.2,12-33.9,12.3-.9,0-2.5-1.6-3.3-1.6-1.8-.1-3.7-1.7-5.6-3.1h-.8c-.8,0-4,3.2-4.8,3.2-1.26-.57-2.16-1.73-2.4-3.1,0-2.4-.9-2.5-.9-4.1l.9-3.4c.2-4.1-.9-5.6-.9-8,0-.8.9-4.1.9-4.9.2-6.8-.9-12.2-.9-17,0-.8.9-7.2.9-8.2,0-5.5-.5-15.6.8-16,.2-2.4-.8-4.3-.8-6.7-1.2-3.4,3.9-3.3-8.3-13.6v-1.6c1.6-.6,6.5-4.2,9.8-4.2,6.4,0,8.9.2,8.9,6.5.7.3-.9,7.7-.9,12.1,0,6.3.3,16.2-.8,17,.2,4.7,2.1,4.1,3.3,4.1.8,0,4.8-1.6,5.6-1.6,3.4,0,8.8-1.7,12.2-1.7,3-.3,5.3.8,8,1.7,4.2-.5,5.8,2.6,9,5.7l.8,1.6c8,1.6,7.3,20,7.3,22.5h0ZM179.2,58.08c0-.8-3.2-3.2-3.2-3.9-2.4-4.6-8.1-4.4-9.7-5.8-2,.7-10.5-1.6-13.8,1.8.1-.2-2.4,2.8-2.4,4.8,0,2.4-.9,13.8-.9,16.2v.8c0,.8.9,4,.9,4.8,0,6.7-.3,12.6,3.2,15.3,3.3,1.7,10.6,2.4,11.4,2.4,9.5-4.1,18.6-6.1,18.5-20.3.2-12.8-2.4-11.1-4-16.1ZM262.8,31.48c.48-1.52.72-3.11.7-4.7,0-1.1-4.9-4.6-6.8-4.6-4.1-.8-6.2-.8-7.3-2.7h-2.7c-5.1,0-11.3,2-16,1.4-1.2,1.3-4.2,2-6.8,2-1.6,1.1-7.6,4.3-8,4.6l-9.3,9.4c-1.7,3.2-4.7,7.4-4.7,10,0,.7-1.9,3.4-1.9,4.1-.2.1-.7,7.9-.7,8.7s.7,4.1.7,4.7v4.6c0,2,2.1,3.8,1.9,6.1,0,2.7,2.4,3.7,2,5.3,0,2.1,11.9,12.3,12.1,11.4,1.1,1.2,2.4,2.6,3.4,2.7.7,0,5.3,1.9,6,1.9,1.7,0,7.3,1.3,11.4,1.3l1.4.7h8c11.6,0,13.4-2.3,15.4-3.3.9-1.1,1.7-5,2-5.4.5-2.8,1.2-5.2,1.2-6.7,0-2-1-3.3-1.2-2.7-3.6,0-5.1,5.1-6.1,6l-3.4,3.4c-.7,0-3.9,2-4.6,2-2,.8-2.8,2-6.1,2-4.4,0-3.3.9-8.7.7-3-.8-8.1-.8-11.4-4s-4.3-1.8-9.4-16c0-2-2.5-3.7-1.4-6.1-.8-2.4-.7-3.5-.7-12.1,0-3.2,1.3-5.1,1.3-8,1.4-2.6,1.8-5.1,2.7-8,0-.7,2.7-2.7,2.7-3.4.7-.7,3.3-5.3,3.9-6-.2-.6,6.4-4.2,6.1-4.1,6.4-1.5,4.1-2.1,12.1-1.9,1.4,0,5.3.7,6,.7,3.7,1.9,11.1,5.4,11.4,9.3,4.1,4,3.4,1,4.1,2,.6-.3.9-1.2,1.3-2-.2-1.1-.5-2.2-.6-3.3ZM330.7,74.08c-1.8,5.2.1,6.1-7,13.2-3.5,3.5-4.6,3.8-7.8,7-4.6,1.4-5.9.9-10.8,4.8-5.58-.33-11.09-1.37-16.4-3.1-2.8,0-4.1-3.5-11.6-8.5-2.1-1.8-6.2-10.7-6.2-17-.9-.8,1.6-3.2,1.6-9.4,0-2,2.4-3.7,3.8-5.4-.9-2.2,7.1-11,14-13.3h14.8c.7,1.1,4.5.8,7,.8.1.6,3.2.9,5.4,3.2,2.4,0,5.3,5.1,7.8,7.8.8.8,2.4,5.4,3.2,6.2.1,1,2.3,7.9,2.3,10.8-.1,2.4-.1,2.6-.1,2.9ZM316.7,55.48c-1.6-1.7-9.8-11.8-13.2-11.7-2.4,1-5.5.8-8.6.8-3.04,2.03-5.86,4.37-8.4,7-2.1,3.8-2,9.2-3.9,10.2,0,4.1.4,9.6-.8,11.6.4,2.1.6,4.1.8,6.2,0,8.9,3.6,6.3,4.6,8.6l1.6,3.2c9.6,4.8,9.1,3.8,14,3.8,1,1,7.6-5,11.7-7,2.1,0,5-10.4,5.4-10.8.6-1.2-.8-10.8-.8-16.3-.47-1.99-1.28-3.89-2.4-5.6h0ZM398.4,95.68l-.8-.8c-.8,0-5.5-3.1-6.3-3.1-1.4-.8-1.9-3.8-2.4-4.7,0-2.2,1.6-9.6,1.5-15.9-.66-1.47-.93-3.09-.8-4.7l.8-2.4c-.98-2.8-1.52-5.73-1.6-8.7.6-1-3.2-4.7-3.2-7.2-6.1-8.1-13-4.7-17.5-5.5-1.9.8-3.3,2.5-7.1,3.2-3,.6-4.7,3.3-7.9,3.2-1.4-1.2.1-6.3-2.4-6.3l-1.7-.8c-1-.3-3,2.7-4.7,4.8-3.4,3.4-4.6,4.9-8.7,7.1,0,2.5,1.2,3,5.5,5.6,0,.8.8,6.3.8,7.9,0,5.1,0,14.9.1,25.4-2.7,1.8-3.9,2.7-7.1,3.2v.8c0,2.9,1.1,2.2,4.7,2.4.8,0,3.2-.8,4-.8h16.7c.8-.7,1-.9.8-2.4-.8-1.1-4.2-2.4-7.1-2.4-1.5-.9-2.4-3.4-2.4-5.5l.1-25.5c.7-1.9.9-4.2,2.4-6.3,6.3-6.3,14.1-8,15.8-7.2s3.5,2.4,6.3,3.1c3.4,0,2.4,7.3,2.4,11.2,0,.8.8,3.9.8,4.7s1.6,3.9,1.6,4.7c-.06,1.11-.34,2.19-.8,3.2v15.1c-.8.8-.3,2.4-2.4,2.4-.8.7-3.8.7-6.3,2.4,0,2.6,2.8,1.2,4.7,1.6.8,0,4,.8,4.7.8h16.7c.78-.61,1.1-1.65.8-2.6h0ZM434.4,6.38c-3.2,0-5.1,2.7-8.8,3.3-3.5,3.4-8.1,5.7-8.1,8.8-.7,2.7-.7,6.3-3.1,6.3,0,3.8-2.2,11.6-2.3,11.2,0,7.7.7,5.8-7.2,12.8,0,2.5,1.1,2.1,6.4,6.4,0,2.5.8,5.6,2.4,6.3v1.6c0,.9-1.6,3.3-1.6,4.1,0,8.9-.3,13.1.8,15.9,0,2.1-2.8,4.4-1.6,6.4-2.8,7.2-6,2.9-8.9,7.1l.8.8h14.4c2-.8,2.7-.8,7.2-.8,3,0,3.4.8,10.5.8.7-.8.8.1.8-3.2.9-1.1-4.9-.8-7.2-.8-.5-.3-7.8-3.5-7.2-3.9l-.1-24.7c0-1.8-1.1-3.4-.8-6.4,1.2-4.6-.6-8,8.8-8,.8,0,6.4-.8,8-.8,1.13-.97,1.76-2.41,1.7-3.9,0-.8-1.7-2.4-1.7-2.4h-11.2c-.5,0-3.8-1.3-4.1-2.5,0-3.7-1.4-9.8-.8-11.1-.05-5.34,1.96-10.49,5.6-14.4,1.3-1.1,4.8-.7,4.8-.8,3,0,5.1,2.3,8,2.3.8,0,5.5.8,6.4.8,2.1,0,5.3-3.3,4.7-4.7.1-2.7.1-6.5-16.6-6.5Z"/>
  </g>
  <g id="Layer_2" data-name="Layer 2">
    <text class="cls-2" transform="translate(3.2 142.68)"><tspan class="cls-8" x="0" y="0">L</tspan><tspan class="cls-1" x="25.15" y="0">ONDON</tspan></text>
  </g>
  <g id="Layer_3" data-name="Layer 3">
    <g>
      <polygon class="cls-11" points="357.92 104.73 363.8 107.47 370.67 110.65 373.32 111.9 379.72 98.16 364.32 90.98 357.92 104.73"/>
      <path class="cls-13" d="M389.95,94.37l47.36,22.06c3.56,1.65,6.5,4.67,7.94,8.65,1.45,3.98,1.16,8.19-.51,11.75-1.65,3.55-4.67,6.47-8.66,7.93s-8.17,1.15-11.73-.51l-47.36-22.06,12.96-27.82Z"/>
      <path class="cls-14" d="M386.91,100.91h0l1.79-3.85,47.37,22.07c3,1.39,5.26,3.87,6.39,6.98,1.14,3.12,1,6.48-.4,9.47-.26.53-.7.91-1.2,1.09s-1.1.18-1.63-.07c-1.06-.5-1.52-1.76-1.03-2.81.92-1.97,1.01-4.19.27-6.23-.74-2.04-2.23-3.66-4.2-4.58l-47.36-22.06Z"/>
      <path class="cls-12" d="M376.99,122.18l12.96-27.82-2.08-.97c-1.25-.59-2.71-.69-4.11-.18s-2.45,1.53-3.04,2.77l-8.42,18.1c-.58,1.23-.69,2.71-.18,4.1s1.54,2.46,2.78,3.03l2.09.97Z"/>
      <path class="cls-13" d="M276.26,4.21c-35.99,13.12-54.54,52.93-41.43,88.92,13.12,36,52.93,54.54,88.93,41.44,35.99-13.13,54.54-52.94,41.42-88.94-13.11-35.99-52.92-54.54-88.92-41.43ZM321.19,127.51c-32.1,11.7-67.6-4.85-79.3-36.95-11.69-32.09,4.85-67.6,36.95-79.29s67.6,4.85,79.29,36.94c11.7,32.1-4.85,67.61-36.94,79.3Z"/>
    </g>
    <text class="cls-3" transform="translate(50.86 183.84)"><tspan class="cls-10" x="0" y="0">M</tspan><tspan x="31.03" y="0">yste</tspan><tspan class="cls-5" x="97.02" y="0">r</tspan><tspan x="112.48" y="0">y </tspan><tspan class="cls-4" x="139.67" y="0">T</tspan><tspan class="cls-16" x="159.98" y="0">e</tspan><tspan x="178.43" y="0">ch Th</tspan><tspan class="cls-6" x="268.92" y="0">e</tspan><tspan class="cls-9" x="287.48" y="0">a</tspan><tspan x="304.97" y="0">ter</tspan></text>
    <line class="cls-7" x1="35.28" y1="151.41" x2="417.96" y2="151.41"/>
  </g>
</svg>