<?xml version="1.0" encoding="UTF-8"?><svg xmlns="http://www.w3.org/2000/svg" viewBox="0 0 451.8725 282.08113"><g id="a"><path d="M287.55598,1.24771c-5.24235,3.34012-8.94194,6.30579-12.62657,10.0653-8.41771,8.65736-13.10587,18.72267-14.61866,31.4391-.32952,2.84585-.37445,12.0574-.07489,15.2028,.50926,5.10754,1.31808,10.31993,2.66611,16.8504,.44934,2.21676,1.12336,5.52693,1.49781,7.33928,1.42292,6.93488,1.84231,10.55958,1.55773,13.19573-.43437,4.01414-1.7824,6.94985-4.40357,9.57103-1.45288,1.45288-2.66611,2.32161-4.37361,3.14541-2.42646,1.16829-4.32868,1.5727-7.27937,1.5727-4.88287,0-8.11815-1.21323-10.84417-4.07405-3.75951-3.92427-5.57187-10.43976-6.05117-21.68834-.08987-2.09694-.17974-3.92427-.19472-4.0441s-.50926,.52423-1.10838,1.4379c-7.90845,12.25211-11.95255,27.7395-11.51818,44.17051,.26961,10.58954,2.50135,19.78611,6.90492,28.45845,9.84063,19.41166,28.96771,32.06818,56.24289,37.20568,1.27314,.23965,2.33659,.41939,2.36654,.38943,.02996-.01498-.77886-.44934-1.76742-.9586-16.53586-8.44767-27.40998-20.35528-32.20298-35.28848-2.02205-6.30579-3.31017-14.82835-3.29519-21.68834l.01498-1.97711,.56917,1.97711c2.84585,9.78072,7.93841,16.83542,14.46888,20.04074,3.25025,1.58768,5.66173,2.11192,9.19657,1.97711,2.99563-.11983,5.04763-.67402,7.78863-2.14187,8.25295-4.38859,13.69001-14.28914,14.85831-27.06548,.22467-2.47139,.08987-9.84063-.22467-12.38692-1.15332-9.16662-3.92427-18.67773-8.23797-28.29369-.44934-1.03349-.80882-1.88724-.79384-1.90222s.73393,.53921,1.60266,1.22821c12.23713,9.91552,19.57642,21.83812,23.0813,37.44533,.98856,4.43353,1.66257,9.1816,2.5313,17.88389,.83878,8.25295,1.55773,12.23713,2.741,14.9332,1.37799,3.20532,3.47493,5.09256,6.50051,5.90138,1.51279,.40441,4.68816,.44934,6.27584,.08987,5.90138-1.34803,11.62303-6.39566,16.38608-14.4539,.3445-.59913,.67402-1.06345,.70397-1.01851,.1348,.1348-.26961,6.2309-.55419,8.17806-.73393,5.25732-2.11192,9.51111-4.35864,13.55521-1.85729,3.34012-3.86436,5.91636-7.0547,8.98688-5.55689,5.37715-12.76137,9.72081-23.26104,14.03451l-2.54628,1.04847,2.62117-.08987c15.30765-.50926,30.01618-5.22737,42.16344-13.54023,6.7102-4.58331,12.88119-10.72434,17.13498-17.03014,8.02828-11.89264,11.02391-24.81877,9.21155-39.69205-.85375-6.97981-2.72602-14.42394-5.04763-20.08568-.79384-1.93218-1.97711-4.34366-2.20179-4.47846-.10485-.05991-.14978,.76388-.14978,2.5313,0,7.33928-1.04847,14.54377-2.78593,19.21694-2.20179,5.91636-5.64676,9.33138-10.82919,10.69439-1.48284,.40441-5.36217,.55419-7.02474,.28458-5.94632-.94362-10.91906-5.16746-12.65652-10.70936-.6141-1.97711-.74891-3.25025-.65904-6.17099,.1348-4.43353,.76388-7.30933,3.77449-17.34468,3.41501-11.39836,4.20886-15.26272,4.37361-21.35882,.10485-3.71458-.05991-5.73662-.71895-9.01684-1.01851-5.16746-3.13043-10.08028-6.30579-14.73848-1.25816-1.84231-3.65466-4.83794-3.86436-4.83794-.05991,0-.11983,.71895-.1348,1.60266-.05991,4.08903-.8238,8.61243-2.052,12.02744-2.98065,8.25295-8.89701,13.2856-17.28476,14.70853-1.46786,.23965-6.05117,.23965-7.48907-.01498-4.26877-.73393-8.34282-2.41148-11.66796-4.77802-1.66257-1.16829-4.58331-3.93925-5.88641-5.55689-4.25379-5.25732-7.00977-12.327-7.98334-20.46013-.3445-2.75598-.44934-8.02828-.23965-11.15871,.59913-8.92697,2.78593-18.75262,6.39566-28.80295,.52423-1.48284,.9586-2.71104,.9586-2.741,0-.16476-.38943,.04493-2.21676,1.19825Z" style="fill:#ff9318;"/><g><path d="M6.86377,185.47468h14.76221v1.91406H4.62012v-31.12988h2.24365v29.21582Z" style="fill:#fff;"/><path d="M57.52979,171.81257c0,2.40527-.35938,4.58691-1.07764,6.54492-.71875,1.95801-1.73096,3.62988-3.03613,5.0166-1.30566,1.38574-2.86768,2.45605-4.68604,3.21191-1.81885,.75488-3.83545,1.13281-6.0498,1.13281-2.18555,0-4.1875-.37793-6.00635-1.13281-1.81885-.75586-3.38037-1.82617-4.68604-3.21191-1.30518-1.38672-2.3208-3.05859-3.04688-5.0166s-1.08887-4.13965-1.08887-6.54492c0-2.39062,.36279-4.56445,1.08887-6.52246s1.7417-3.62988,3.04688-5.0166c1.30566-1.38574,2.86719-2.45996,4.68604-3.22266s3.8208-1.14453,6.00635-1.14453c2.21436,0,4.23096,.37793,6.0498,1.13379,1.81836,.75488,3.38037,1.8291,4.68604,3.22266,1.30518,1.39355,2.31738,3.06934,3.03613,5.02734,.71826,1.95801,1.07764,4.13184,1.07764,6.52246Zm-2.33203,0c0-2.16992-.30078-4.12109-.90186-5.85156-.60156-1.73047-1.44824-3.19727-2.54102-4.40039-1.09277-1.20215-2.40869-2.12305-3.94873-2.76074s-3.24902-.95703-5.12598-.95703c-1.84814,0-3.53857,.31934-5.07129,.95703s-2.85254,1.55859-3.95996,2.76074c-1.10742,1.20312-1.96533,2.66992-2.57373,4.40039-.60889,1.73047-.91309,3.68164-.91309,5.85156,0,2.18555,.3042,4.13965,.91309,5.86328,.6084,1.72363,1.46631,3.18652,2.57373,4.38867,1.10742,1.20312,2.42725,2.12012,3.95996,2.75,1.53271,.63086,3.22314,.94629,5.07129,.94629,1.87695,0,3.58594-.31543,5.12598-.94629,1.54004-.62988,2.85596-1.54688,3.94873-2.75,1.09277-1.20215,1.93945-2.66504,2.54102-4.38867,.60107-1.72363,.90186-3.67773,.90186-5.86328Z" style="fill:#fff;"/><path d="M70.83936,156.33601c.11719,.05176,.2417,.16504,.37402,.34082l20.15186,26.97168c-.04395-.43945-.06592-.86523-.06592-1.27539v-26.11426h1.97998v31.12988h-1.07812c-.3374,0-.60889-.14648-.81396-.44043l-20.23975-27.01562c.04395,.44043,.06592,.8584,.06592,1.25391v26.20215h-1.95801v-31.12988h1.1001c.20508,0,.36621,.02539,.48389,.07715Z" style="fill:#fff;"/><path d="M133.12061,171.81257c0,2.40527-.35938,4.56934-1.07764,6.49023-.71875,1.92188-1.73096,3.55664-3.03613,4.90625-1.30566,1.34961-2.86768,2.38281-4.68604,3.10156-1.81885,.71875-3.83545,1.07812-6.0498,1.07812h-11.35205v-31.12988h11.35205c2.21436,0,4.23096,.35938,6.0498,1.07812,1.81836,.71875,3.38037,1.75293,4.68604,3.10156,1.30518,1.34961,2.31738,2.98535,3.03613,4.90625,.71826,1.92188,1.07764,4.07715,1.07764,6.46777Zm-2.33154,0c0-2.16992-.30078-4.10645-.90234-5.80762s-1.44824-3.13867-2.54102-4.3125c-1.09277-1.17285-2.40869-2.06738-3.94873-2.68359s-3.24902-.92383-5.12598-.92383h-9.08594v27.47754h9.08594c1.87695,0,3.58594-.30762,5.12598-.92383s2.85596-1.51074,3.94873-2.68359c1.09277-1.17383,1.93945-2.61133,2.54102-4.3125s.90234-3.64453,.90234-5.83008Z" style="fill:#fff;"/><path d="M172.52246,171.81257c0,2.40527-.35938,4.58691-1.07764,6.54492-.71875,1.95801-1.73096,3.62988-3.03613,5.0166-1.30566,1.38574-2.86768,2.45605-4.68604,3.21191-1.81885,.75488-3.83545,1.13281-6.0498,1.13281-2.18555,0-4.1875-.37793-6.00635-1.13281-1.81885-.75586-3.38037-1.82617-4.68604-3.21191-1.30518-1.38672-2.3208-3.05859-3.04688-5.0166s-1.08887-4.13965-1.08887-6.54492c0-2.39062,.36279-4.56445,1.08887-6.52246s1.7417-3.62988,3.04688-5.0166c1.30566-1.38574,2.86719-2.45996,4.68604-3.22266s3.8208-1.14453,6.00635-1.14453c2.21436,0,4.23096,.37793,6.0498,1.13379,1.81836,.75488,3.38037,1.8291,4.68604,3.22266,1.30518,1.39355,2.31738,3.06934,3.03613,5.02734,.71826,1.95801,1.07764,4.13184,1.07764,6.52246Zm-2.33203,0c0-2.16992-.30078-4.12109-.90186-5.85156-.60156-1.73047-1.44824-3.19727-2.54102-4.40039-1.09277-1.20215-2.40869-2.12305-3.94873-2.76074s-3.24902-.95703-5.12598-.95703c-1.84814,0-3.53857,.31934-5.07129,.95703s-2.85254,1.55859-3.95996,2.76074c-1.10742,1.20312-1.96533,2.66992-2.57373,4.40039-.60889,1.73047-.91309,3.68164-.91309,5.85156,0,2.18555,.3042,4.13965,.91309,5.86328,.6084,1.72363,1.46631,3.18652,2.57373,4.38867,1.10742,1.20312,2.42725,2.12012,3.95996,2.75,1.53271,.63086,3.22314,.94629,5.07129,.94629,1.87695,0,3.58594-.31543,5.12598-.94629,1.54004-.62988,2.85596-1.54688,3.94873-2.75,1.09277-1.20215,1.93945-2.66504,2.54102-4.38867,.60107-1.72363,.90186-3.67773,.90186-5.86328Z" style="fill:#fff;"/><path d="M185.83252,156.33601c.11719,.05176,.24219,.16504,.37402,.34082l20.15234,26.97168c-.04492-.43945-.06641-.86523-.06641-1.27539v-26.11426h1.97949v31.12988h-1.07715c-.33789,0-.60938-.14648-.81445-.44043l-20.24023-27.01562c.04395,.44043,.06641,.8584,.06641,1.25391v26.20215h-1.95801v-31.12988h1.09961c.20508,0,.36719,.02539,.48438,.07715Z" style="fill:#fff;"/></g><g><path d="M42.83887,202.66902v-5.04785h18.74512v6.33203h-1.99658l-16.74854-1.28418Zm20.7417,44.41211l16.74805,1.2832v5.04883H42.83887v-5.04883l16.74854-1.2832h3.99316Zm-12.97754-22.93359c0-8.81348,0-17.71289-.33252-26.52637h22.18311c-.33252,8.64258-.33252,17.54199-.33252,26.52637v2.65332c0,8.89941,0,17.79883,.33252,26.6123h-22.18311c.33252-8.64258,.33252-17.54199,.33252-26.52734v-2.73828Zm11.20264-1.4541h12.75537c10.64795,0,13.08789-4.96387,13.08789-9.92676,0-6.75977-4.76904-9.84082-12.86621-9.84082h-13.19873v-5.30469h19.41016c17.63574,0,27.17432,5.21973,27.17432,13.8623,0,6.24609-5.87842,13.00684-27.50684,13.77637v-.94141c21.18457,.34277,25.39941,5.3916,26.95264,15.14648l1.99609,12.83594-11.31299-5.47656,18.63379,1.54004v5.04883c-6.54395,1.1123-7.98633,1.36914-13.75391,1.36914-10.42578,0-16.97021-2.39551-17.96826-10.09766l-1.10889-8.38574c-.66553-5.30566-2.88428-8.47168-8.54102-8.47168h-13.75342v-5.13379Z" style="fill:#fff;"/><path d="M194.79102,225.51668c0,20.10938-16.97021,29.6084-35.71484,29.6084s-35.71533-9.49902-35.71533-29.6084,17.08105-29.60742,35.71533-29.60742,35.71484,9.49805,35.71484,29.60742Zm-35.71484,24.3877c9.42773,0,12.97705-9.66895,12.97705-24.3877,0-14.63281-3.54932-24.47363-12.97705-24.47363-9.42822,0-12.97754,9.84082-12.97754,24.47363,0,14.71875,3.54932,24.3877,12.97754,24.3877Z" style="fill:#fff;"/><path d="M200.11182,248.36433l11.53516-1.2832h1.88574l9.87109,1.2832v5.04883h-23.29199v-5.04883Zm30.9458-50.74316h13.30957l24.73438,55.79199h-22.29395l-17.63574-43.89844,4.76953-5.98926-20.63037,49.8877h-7.09863l24.84521-55.79199Zm-11.53564,34.99805h29.94775l2.77246,5.39062h-34.60596l1.88574-5.39062Zm17.41455,16.00195l11.97852-1.2832h9.42773l14.41895,1.2832v4.79199h-35.8252v-4.79199Z" style="fill:#fff;"/><path d="M318.67676,242.46004c0-4.10742-2.3291-5.99023-7.875-8.04395l-4.88086-1.79688c-13.75293-5.04883-21.18457-10.18262-21.18457-19.9375,0-10.44043,10.75879-16.77246,28.61621-16.77246,8.09668,0,16.41602,1.54004,22.07227,4.27832l-.99805,12.32227h-11.53516l-2.55176-12.9209,9.65039,2.31055v4.27832c-6.10059-2.99512-10.31543-4.87793-15.97266-4.87793-5.43457,0-9.98242,2.99512-9.98242,7.01758,0,4.19238,3.10645,6.24609,9.0957,8.47168l5.5459,2.05273c13.97559,5.13477,19.85352,9.75586,19.85352,18.65527,0,10.09668-9.64941,17.62793-30.05762,17.62793-8.31934,0-18.19043-1.19824-25.06738-4.4502l.66504-13.00684h11.75781l2.88379,14.11914-9.0957-1.96777v-4.10742c7.09863,2.56738,11.97949,4.02148,18.9668,4.02148,6.87695,0,10.09375-3.42285,10.09375-7.27344Z" style="fill:#fff;"/><path d="M350.72852,202.66902l9.20605-5.04785-2.66211,16.17285h-10.42578l.22168-16.17285h66.88184l.11133,16.17285h-10.31543l-2.66211-16.17285,9.0957,5.04785h-59.45117Zm32.49805,44.41211l17.19238,1.2832v5.04883h-39.81934v-5.04883l16.74902-1.2832h5.87793Zm-13.75391-22.93359c0-8.81348,0-17.71289-.33203-26.52637h22.62695c-.33301,8.64258-.33301,17.54199-.33301,26.52637v2.65332c0,8.89941,0,17.79883,.33301,26.6123h-22.62695c.33203-8.64258,.33203-17.54199,.33203-26.52734v-2.73828Z" style="fill:#fff;"/></g></g><g id="b"><path d="M62.79883,88.28832c-2.9,4.8,.1,7.1-2.8,10.5,0,.8-3.5,2.8-3.5,3.6-1.9,4.3-1.8,4.8-8.4,6.3-.7,0-3.5,2-4.2,2-1.9-.7-6.5,1.6-12.7-1.3-2.6,0-2.2-.6-2.2-3.5-.6-1,4.2-.7,6.4-.7,6.4,0,11-4.5,13.3-9.3v-14c0-2.2-1.7-4.3-5.7-8.4-2.9-3-7.8-3.5-8.5-4.2-.9,0-5.8-.9-6.3-.7-.1-.9-2.7,1.4-4.2,1.4-3.6,1.2-1.1,10.8-2.8,12.8,.3,1.8,1.4,3.7,1.4,5.6-1.07125,2.16858-1.5212,4.5914-1.3,7,0,.7,1.4,2.8,1.4,3.5v5.6c0,.6,.7,2.8,.7,3.5v3.6c0,1.3-.6,12.6-.6,14.1,.1,8.9-.4,13.6,2.2,14.1h5s1.4,.7,1.4,1.4c1.5,2.4-2.2,2.1-7,2.1-.8,0-2.8,.7-3.6,.7-2.9-.6-19.3,1.6-18.3-2.1-.7-2.7,3.5-2,5.6-2,3.2-1.5,3-5.9,4.9-9.3,.2-.8,0-1.3-.8-2.8,.2-.3-.6-.9,.8-3.5,.3-3.7-.8-5.5-.8-7.8,0-3.3,.2-7.3-.7-9.1-.1-9.5,1.4-15.4,1.4-22.6-.7-2.49998-1.3-6.89999-2.2-8.49998,1.1-3.7-1.8-5.1-2.8-5.6-2.7-.2-6.3-2.5-7.1-2.8v-1.3h7.8c-2.6-1,15-.7,21.9-.7,.7,0,7-.8,7.8-.8,4.5,.1,8-.9,14.1,4.2,.7,0,2.8,2.8,3.5,2.8,1.5,.8,3.6,1.6,3.5,2.1-.4,4.7,3.4,9.2,3.4,14.1Zm49-.4c-1.6,0-6-1.1-9,3.3l.8,.8c2.9,0,6.8,2.7,7.4,2.5,1-1,1.6,10,1.6,14.7,0,5.3,1.3,10.6,.8,11.4,0,2.9-2.8,6.5-1.6,8.2,0,1.9-2.7,5-2.5,4.9-6,6-8.2,1.4-13.9,4.9h-3.3c-3.2,0-6.4-3-8.1-4.8,0-4.7-1.6-10.4-1.6-13.1,0-3.5-.4-8.8,.8-10.6,0-1,1.1-12.3,.8-13,0-4.6-1.1-5.5-8.1-9-6.9,0-10.6-.1-9,4.1l.8,.9c.9,0,4.2,2.4,5,2.4,1.1,1.5,2,10.2,1.6,10.6-1.2,.2-.8,7.2-.8,10.6v9c0,3.5,1.7,7.1,1.7,8.9,0,.8,1.6,3.3,1.6,3.3,6.3,9.1,11.7,6.2,13.1,7.3,4.2,0,7.2-1.6,11.4-1.6,.8,0,3.3-3.3,3.3-3.3,.8,0,3.3-1.7,4.1-1.7-.3,0,4.1-.7,4.1,1.7,1.7,2.6,2.4,3.9,4.1,3.3,1.6,0,5.1-2.5,8.1-2.5,4.60001-1.1,6.8-1.3,5.8-3.3-.2,.2-2.4-2.5-4.1-2.5-2.1-.4-3.9-.7-5-2.3v-6.5c0-.8,.9-4.1,.9-5,0-2-1.6-4.3-.9-6.4,0-4.6,1.7-7.7,1.7-12.3-1.11403-3.38914-1.68771-6.93249-1.7-10.5-3.4-3.6-8.8-3.6-9.9-4.4Zm83.69999,31.1s-.8,3.3-1.60001,4.1c0,.8-2.5,4.1-2.5,4.8v3.2c-4.7,11.5-20.2,12-33.89999,12.3-.89999,0-2.5-1.6-3.3-1.6-1.8-.1-3.7-1.7-5.60001-3.1h-.8c-.8,0-4,3.2-4.8,3.2-1.2639-.57225-2.16258-1.73305-2.39999-3.1,0-2.4-.89999-2.5-.89999-4.1l.89999-3.4c.2-4.1-.89999-5.6-.89999-8,0-.8,.89999-4.1,.89999-4.9,.2-6.8-.89999-12.2-.89999-17,0-.8,.89999-7.2,.89999-8.2,0-5.5-.5-15.6,.8-16,.2-2.4-.8-4.3-.8-6.7-1.2-3.4,3.89999-3.3-8.3-13.6v-1.6c1.60001-.6,6.5-4.2,9.8-4.2,6.39999,0,8.89999,.2,8.89999,6.5,.7,.3-.89999,7.7-.89999,12.1,0,6.3,.3,16.2-.8,17,.2,4.7,2.10001,4.1,3.3,4.1,.8,0,4.8-1.6,5.60001-1.6,3.39999,0,8.8-1.7,12.2-1.7,3-.3,5.3,.8,8,1.7,4.2-.5,5.8,2.6,9,5.7l.8,1.6c8.00002,1.60001,7.30002,20,7.30002,22.5h-.00002Zm-15.49998-16.2c0-.8-3.2-3.2-3.2-3.9-2.39999-4.6-8.10001-4.4-9.7-5.8-2,.7-10.5-1.6-13.8,1.8,.10001-.2-2.39999,2.8-2.39999,4.8,0,2.4-.89999,13.8-.89999,16.2v.8c0,.8,.89999,4,.89999,4.8,0,6.7-.3,12.6,3.2,15.3,3.3,1.7,10.60001,2.4,11.39999,2.4,9.5-4.1,18.60001-6.1,18.5-20.3,.2-12.80002-2.40001-11.10002-4-16.10002Zm83.59999-26.6c.48376-1.51902,.72012-3.10594,.70001-4.7,0-1.1-4.89999-4.6-6.79999-4.6-4.10001-.8-6.2-.8-7.3-2.7h-2.7c-5.10001,0-11.3,2-16,1.4-1.2,1.3-4.2,2-6.8,2-1.60001,1.1-7.60001,4.3-8,4.6l-9.3,9.4c-1.7,3.2-4.7,7.4-4.7,10,0,.7-1.89999,3.4-1.89999,4.1-.2,.1-.7,7.9-.7,8.7s.7,4.1,.7,4.7v4.6c0,2,2.10001,3.8,1.89999,6.1,0,2.7,2.39999,3.7,2,5.3,0,2.1,11.89999,12.3,12.10001,11.4,1.10001,1.2,2.39999,2.6,3.39999,2.7,.7,0,5.3,1.9,6,1.9,1.7,0,7.3,1.3,11.39999,1.3l1.39999,.7h8c11.59999,0,13.40001-2.3,15.40001-3.3,.89999-1.1,1.70001-5,2-5.4,.5-2.8,1.20001-5.2,1.20001-6.7,0-2-1-3.3-1.20001-2.7-3.60001,0-5.10001,5.1-6.10001,6l-3.39999,3.4c-.7,0-3.89999,2-4.60001,2-2,.8-2.8,2-6.10001,2-4.39999,0-3.3,.9-8.7,.7-3-.8-8.10001-.8-11.39999-4s-4.3-1.8-9.39999-16c0-2-2.5-3.7-1.39999-6.1-.8-2.4-.7-3.5-.7-12.1,0-3.2,1.3-5.1,1.3-8,1.39999-2.6,1.8-5.1,2.7-8,0-.7,2.7-2.7,2.7-3.4,.7-.7,3.3-5.3,3.89999-6-.2-.6,6.39999-4.2,6.10001-4.1,6.39999-1.5,4.10001-2.1,12.10001-1.9,1.39999,0,5.3,.7,6,.7,3.7,1.9,11.09999,5.4,11.40001,9.3,4.10001,4,3.39999,1,4.10001,2,.60001-.3,.89999-1.2,1.29999-2-.20004-1.1-.50003-2.2-.60004-3.3Zm67.89999,42.6c-1.79999,5.2,.10001,6.1-7,13.2-3.5,3.5-4.60001,3.8-7.79999,7-4.60001,1.4-5.89999,.9-10.79999,4.8-5.57697-.32581-11.08887-1.3677-16.39999-3.1-2.79999,0-4.10001-3.5-11.60001-8.5-2.10001-1.8-6.20001-10.7-6.20001-17-.89999-.8,1.60001-3.2,1.60001-9.4,0-2,2.39999-3.7,3.79999-5.4-.89999-2.2,7.10001-11,14-13.3h14.79999c.70001,1.1,4.5,.8,7,.8,.10001,.6,3.20001,.9,5.39999,3.2,2.39999,0,5.29999,5.1,7.79999,7.8,.79999,.8,2.39999,5.4,3.20001,6.2,.10001,1,2.29999,7.9,2.29999,10.8-.09998,2.4-.09998,2.6-.09998,2.9Zm-14-18.6c-1.60001-1.7-9.79999-11.8-13.20001-11.7-2.39999,1-5.5,.8-8.60001,.8-3.04199,2.02662-5.85806,4.37334-8.39999,7-2.10001,3.8-2,9.2-3.89999,10.2,0,4.1,.39999,9.6-.79999,11.6,.39999,2.1,.60001,4.1,.79999,6.2,0,8.9,3.60001,6.3,4.60001,8.6l1.60001,3.2c9.60001,4.8,9.10001,3.8,14,3.8,1,1,7.60001-5,11.70001-7,2.10001,0,5-10.4,5.39999-10.8,.60001-1.2-.79999-10.8-.79999-16.3-.46799-1.99212-1.28018-3.88725-2.39999-5.6h-.00003Zm81.70001,40.2l-.79999-.8c-.79999,0-5.5-3.1-6.29999-3.1-1.39999-.8-1.89999-3.8-2.39999-4.7,0-2.2,1.60001-9.6,1.5-15.9-.6593-1.47397-.93451-3.09091-.79999-4.7l.79999-2.4c-.98318-2.79897-1.52304-5.73437-1.60001-8.7,.60001-1-3.20001-4.7-3.20001-7.2-6.10001-8.1-13-4.7-17.5-5.5-1.89999,.8-3.29999,2.5-7.10001,3.2-3,.6-4.70001,3.3-7.89999,3.2-1.39999-1.2,.10001-6.3-2.39999-6.3l-1.70001-.8c-1-.3-3,2.7-4.70001,4.8-3.39999,3.4-4.60001,4.9-8.70001,7.1,0,2.5,1.20001,3,5.5,5.6,0,.8,.79999,6.3,.79999,7.9,0,5.1,0,14.9,.10001,25.4-2.70001,1.8-3.89999,2.7-7.10001,3.2v.8c0,2.9,1.10001,2.2,4.70001,2.4,.79999,0,3.20001-.8,4-.8h16.70001c.79999-.7,1-.9,.79999-2.4-.79999-1.1-4.20001-2.4-7.10001-2.4-1.5-.9-2.39999-3.4-2.39999-5.5l.10001-25.5c.70001-1.9,.89999-4.2,2.39999-6.3,6.29999-6.3,14.10001-8,15.79999-7.2s3.5,2.4,6.29999,3.1c3.39999,0,2.39999,7.3,2.39999,11.2,0,.8,.79999,3.9,.79999,4.7s1.60001,3.9,1.60001,4.7c-.06424,1.1073-.3356,2.19273-.79999,3.2v15.1c-.79999,.8-.29999,2.4-2.39999,2.4-.79999,.7-3.79999,.7-6.29999,2.4,0,2.6,2.79999,1.2,4.70001,1.6,.79999,0,4,.8,4.70001,.8h16.70001c.78448-.61386,1.1037-1.65131,.79999-2.6v.00002Zm36-89.3c-3.20001,0-5.10001,2.7-8.79999,3.3-3.5,3.4-8.10001,5.7-8.10001,8.8-.70001,2.7-.70001,6.3-3.10001,6.3,0,3.8-2.20001,11.6-2.29999,11.2,0,7.7,.70001,5.8-7.20001,12.8,0,2.5,1.10001,2.1,6.39999,6.4,0,2.5,.79999,5.6,2.39999,6.3v1.6c0,.9-1.60001,3.3-1.60001,4.1,0,8.9-.29999,13.1,.79999,15.9,0,2.1-2.79999,4.4-1.60001,6.4-2.79999,7.2-6,2.9-8.89999,7.1l.79999,.8h14.39999c2-.8,2.70001-.8,7.20001-.8,3,0,3.39999,.8,10.5,.8,.70001-.8,.79999,.1,.79999-3.2,.89999-1.1-4.89999-.8-7.20001-.8-.5-.3-7.79999-3.5-7.20001-3.9l-.10001-24.7c0-1.8-1.10001-3.4-.79999-6.4,1.20001-4.6-.60001-8,8.79999-8,.79999,0,6.39999-.8,8-.8,1.13214-.97246,1.75818-2.40869,1.70001-3.9,0-.8-1.70001-2.4-1.70001-2.4h-11.19992c-.5,0-3.79999-1.3-4.10001-2.5,0-3.7-1.39999-9.8-.79999-11.1-.04633-5.34003,1.9581-10.49428,5.60001-14.4,1.29999-1.1,4.79999-.7,4.79999-.8,3,0,5.10001,2.3,8,2.3,.79999,0,5.5,.8,6.39999,.8,2.10001,0,5.29999-3.3,4.70001-4.7,.10001-2.7,.10001-6.5-16.60001-6.5Z" style="fill:#fffffc;"/></g></svg>