<?xml version="1.0" encoding="UTF-8" standalone="no"?>
<!DOCTYPE svg PUBLIC "-//W3C//DTD SVG 1.1//EN" "http://www.w3.org/Graphics/SVG/1.1/DTD/svg11.dtd">
<svg width="100%" height="100%" viewBox="0 0 1200 1200" version="1.1" xmlns="http://www.w3.org/2000/svg" xmlns:xlink="http://www.w3.org/1999/xlink" xml:space="preserve" xmlns:serif="http://www.serif.com/" style="fill-rule:evenodd;clip-rule:evenodd;stroke-linejoin:round;stroke-miterlimit:2;">
    <g id="path52" transform="matrix(2.30897,3.28957e-32,3.28957e-32,-2.30897,1095.89,510.634)">
        <path d="M0,0C-0.283,0.015 -0.565,0.045 -0.847,0.084C-0.565,0.045 -0.283,0.015 0,0C0.347,0.126 0.66,0.27 0.94,0.43C0.66,0.27 0.347,0.126 0,0M-0.551,-6.284C-0.39,-6.131 -0.229,-5.971 -0.068,-5.815C-0.229,-5.972 -0.39,-6.131 -0.551,-6.284M-6.933,-6.115C-6.875,-5.345 -6.839,-4.57 -6.83,-3.789C-6.839,-4.57 -6.875,-5.345 -6.933,-6.115M-11.051,-30.888C-10.897,-30.914 -10.744,-30.941 -10.596,-30.97C-10.744,-30.941 -10.897,-30.915 -11.051,-30.888M-14.246,-13.601C-14.737,-27.119 -15.054,-40.565 -20.814,-53.198C-22.042,-55.892 -22.189,-58.957 -21.127,-61.743C-19.731,-65.407 -19.819,-69.197 -20.618,-72.726C-22.684,-81.846 -23.965,-91.114 -24.741,-100.346C-25.254,-106.448 -25.953,-112.501 -28.206,-117.95C-35.909,-136.585 -45.8,-154.08 -57.855,-170.288C-59.496,-172.495 -61.594,-174.112 -64.826,-173.824C-67.893,-173.552 -71.011,-174.751 -72.036,-177.697C-73.283,-181.285 -75.518,-183.645 -78.419,-185.727C-79.483,-186.491 -80.259,-187.564 -79.983,-189.044C-82.562,-192.927 -87.112,-194.858 -89.606,-198.87C-90.733,-200.683 -92.71,-202.035 -94.708,-202.309C-99.712,-202.995 -102.809,-206.497 -106.313,-209.426C-107.054,-210.046 -107.596,-210.915 -108.658,-210.917C-112.553,-210.925 -114.436,-213.726 -116.405,-216.423C-123.254,-218.52 -128.375,-213.234 -134.469,-212.235C-139.229,-211.454 -142.821,-209.718 -144.063,-204.707C-145.177,-200.088 -148.018,-196.803 -152.051,-194.477C-157.671,-191.236 -163.961,-191.29 -170.152,-190.879C-170.75,-190.761 -171.347,-190.642 -171.945,-190.523C-173.13,-189.622 -174.282,-188.656 -175.873,-188.575C-180.983,-183.672 -183.416,-183.497 -189.148,-188.021C-193.142,-191.174 -197.241,-193.308 -202.622,-193.533C-208.531,-193.781 -214.086,-195.125 -218.293,-200.584C-224.156,-208.193 -228.191,-216.227 -228.635,-225.889C-228.699,-227.304 -229.301,-228.335 -230.443,-229.118C-237.002,-233.616 -249.72,-230.14 -253.131,-222.954C-253.45,-222.28 -253.438,-221.842 -253.089,-221.229C-251.543,-218.516 -253.605,-219.109 -255.009,-219.209C-260.242,-219.584 -261.871,-217.885 -261.156,-212.549C-260.628,-208.606 -260.828,-204.774 -262.253,-199.899C-265.261,-206.924 -263.231,-214.114 -267.334,-219.659C-269.705,-222.253 -270.937,-218.146 -273.294,-218.7C-276.564,-219.47 -278.643,-215.075 -282.459,-215.834C-283.295,-216.001 -282.938,-213.335 -282.587,-211.951C-282.07,-209.908 -280.744,-208.007 -281.182,-205.567C-283.052,-206.255 -283.416,-207.818 -284.135,-208.974C-286.12,-212.164 -287.927,-214.041 -290.36,-209.344C-291.491,-207.161 -292.351,-207.818 -293.807,-209.467C-295.467,-211.346 -297.641,-212.192 -298.338,-208.266C-298.714,-206.149 -299.395,-204.628 -302.483,-205.687C-306.993,-207.235 -309.002,-204.822 -307.7,-200.031C-307.192,-198.161 -306.19,-196.383 -306.464,-193.656C-308.167,-195.532 -309.454,-196.873 -310.653,-198.289C-312.481,-200.447 -313.801,-203.388 -317.498,-202.474C-317.36,-199.637 -317.772,-197.398 -321.543,-197.804C-322.538,-197.911 -324.564,-197.003 -324.535,-196.82C-323.593,-191.052 -326.876,-191.463 -330.678,-192.417C-330.974,-192.492 -331.472,-191.926 -331.821,-191.598C-332.958,-190.531 -334.203,-190.56 -335.325,-191.452C-340.763,-195.775 -347.728,-194.231 -353.751,-196.3C-355.074,-196.754 -356.234,-195.891 -357.358,-195.258C-357.552,-195.275 -357.733,-195.283 -357.902,-195.282C-357.733,-195.283 -357.552,-195.275 -357.358,-195.258C-357.551,-193.931 -357.279,-192.488 -358.332,-191.377C-358.547,-188.974 -358.762,-186.571 -358.977,-184.168C-356.524,-181.634 -357.331,-178.693 -357.934,-175.779C-358.399,-171.748 -356.008,-168.224 -355.897,-164.296C-355.139,-162.152 -354.507,-160.009 -355.571,-157.511C-357.506,-158.473 -356.194,-162.693 -359.698,-160.898C-360.615,-158.636 -360.72,-156.676 -359.438,-154.233C-357.227,-150.018 -358.602,-148.363 -363.47,-148.649C-364.517,-148.711 -365.352,-148.695 -366.027,-147.802C-367.396,-145.993 -369.119,-146.334 -370.762,-147.242C-371.551,-147.678 -372.033,-148.813 -373.148,-147.831C-374.397,-146.732 -372.65,-146.228 -372.685,-145.421C-372.758,-143.761 -369.375,-140.278 -374.227,-140.988C-379.433,-141.749 -380.85,-138.9 -381.576,-135.017C-382.318,-131.041 -384.455,-128.542 -387.893,-126.44C-394.75,-122.249 -399.792,-116.751 -402.327,-108.553C-405.094,-99.598 -410.253,-91.444 -412.335,-82.151C-411.847,-78.754 -415.267,-75.765 -412.134,-71.78C-407.65,-66.078 -409.449,-62.481 -416.814,-59.835C-422.626,-51.079 -421.733,-40.405 -425.054,-30.887C-428.018,-22.39 -427.968,-13.191 -428.872,-4.268C-429.81,5.002 -428.424,14.076 -425.3,22.911C-422.351,31.253 -419.854,39.756 -416.356,47.902C-415.249,48.483 -414.505,49.369 -414.122,50.559C-414.252,50.711 -414.363,50.854 -414.458,50.988C-414.364,50.854 -414.253,50.712 -414.123,50.56C-406.895,52.207 -399.555,51.214 -392.318,50.971C-389.222,50.867 -387.474,51.688 -386.702,53.919C-385.733,56.717 -385.249,59.835 -385.303,62.8C-385.402,68.137 -384.356,69.305 -378.823,68.202C-377.256,67.89 -376.729,67.689 -376.338,69.635C-375.555,73.532 -374.255,77.326 -373.166,81.162L-373.166,81.146C-371.856,81.226 -371.333,81.958 -371.452,83.219C-371.41,83.545 -371.367,83.87 -371.324,84.196C-370.106,84.494 -368.775,84.623 -368.377,86.155C-366.402,86.127 -364.601,86.606 -362.876,87.642C-357.226,91.034 -355.036,102.031 -359.011,109.173C-359.81,110.609 -359.859,112.192 -360.756,113.488C-360.785,113.941 -360.815,114.394 -360.846,114.846C-361.289,115.256 -361.732,115.666 -362.176,116.076C-361.732,115.666 -361.289,115.256 -360.849,114.849C-360.76,115.185 -360.668,115.519 -360.579,115.854C-359.501,118.043 -360.875,120.744 -359.129,122.795C-354.555,124.855 -352.077,129.235 -348.65,132.525C-339.853,140.97 -328.917,145.974 -318.693,152.136C-316.541,153.133 -314.389,154.13 -312.237,155.128L-312.237,155.127C-307.711,155.961 -304.228,159.497 -299.579,160.009C-299.801,160.319 -300.162,160.655 -300.481,160.982C-300.162,160.655 -299.801,160.319 -299.579,160.009C-296.659,159.639 -293.798,159.704 -291.332,161.58C-287.043,164.841 -281.577,163.687 -276.757,165.622C-269.633,168.481 -261.834,170.194 -254.174,171.034C-245.617,171.972 -236.964,172.446 -228.266,172.42C-220.981,172.399 -213.597,172.764 -206.264,173.108C-202.455,173.286 -198.594,172.53 -194.765,172.12C-180.846,170.63 -167.594,165.85 -153.896,163.573C-144.438,162.001 -135.924,157.801 -126.619,156.083C-121.344,155.11 -117.035,151.619 -112.201,149.454C-110.731,148.796 -109.39,147.877 -107.716,147.806C-102.666,145.564 -97.899,142.841 -93.382,139.651C-91.585,138.383 -89.598,137.384 -87.698,136.261L-87.698,136.26C-84.42,132.858 -79.19,132.734 -76.013,128.929C-69.713,121.384 -62.356,114.868 -56.274,106.973C-51.011,100.14 -46.544,92.6 -40.128,86.518C-31.188,78.043 -26.466,66.914 -22.794,55.325C-21.556,51.416 -19.243,47.924 -19.401,43.484C-19.472,41.485 -18.571,39.02 -16.205,37.91L-16.204,37.91C-16.123,37.615 -16.026,37.324 -15.915,37.037C-14.4,33.978 -14.291,30.62 -13.857,27.331C-13.842,26.318 -14.019,25.256 -13.124,24.47C-13.135,23.789 -13.147,23.108 -13.158,22.427C-12.943,22.324 -12.747,22.24 -12.567,22.17C-12.747,22.24 -12.944,22.324 -13.158,22.427C-14.335,21.215 -13.522,20.339 -12.657,19.473C-12.588,17.563 -12.518,15.654 -12.447,13.744C-13.56,11.295 -12.432,9.133 -11.575,6.936C-11.555,5.967 -11.534,4.998 -11.514,4.028C-12.466,-1.847 -14.031,-7.699 -14.246,-13.601M-78.024,-190.056C-78.237,-191.063 -78.565,-192.046 -78.901,-193.027C-78.565,-192.046 -78.237,-191.063 -78.024,-190.056C-77.379,-190.062 -76.733,-190.067 -76.087,-190.072C-76.733,-190.067 -77.379,-190.062 -78.024,-190.056M-87.181,-223.872C-87.188,-223.274 -87.195,-222.679 -87.194,-222.089C-87.195,-222.679 -87.188,-223.274 -87.181,-223.872C-86.92,-223.782 -86.669,-223.683 -86.427,-223.576C-86.669,-223.683 -86.92,-223.782 -87.181,-223.872M-141.849,-253.251C-141.887,-253.423 -141.931,-253.584 -141.98,-253.734C-141.931,-253.584 -141.887,-253.423 -141.849,-253.251C-139.963,-253.237 -138.1,-253.087 -136.274,-252.802C-138.1,-253.087 -139.963,-253.237 -141.849,-253.251M-146.763,-256.064C-147.132,-256.06 -147.5,-256.057 -147.869,-256.054C-147.501,-256.057 -147.132,-256.06 -146.763,-256.063C-146.729,-255.572 -146.643,-255.109 -146.395,-254.733C-146.643,-255.109 -146.729,-255.573 -146.763,-256.064M-196.193,-261.38C-197.542,-262.234 -198.68,-263.224 -199.208,-264.148C-199.45,-264.146 -199.691,-264.146 -199.932,-264.147C-199.691,-264.146 -199.45,-264.146 -199.208,-264.148C-198.68,-263.224 -197.542,-262.234 -196.193,-261.38C-195.743,-261.096 -195.269,-260.826 -194.787,-260.58C-195.269,-260.826 -195.743,-261.096 -196.193,-261.38M-216.641,-263.933C-216.921,-262.743 -217.471,-262.149 -218.137,-261.887C-217.471,-262.149 -216.921,-262.743 -216.641,-263.933C-216.322,-263.94 -216.003,-263.946 -215.685,-263.951C-216.003,-263.946 -216.322,-263.94 -216.641,-263.933M-219.591,-265.827C-220.563,-265.386 -221.568,-265.244 -222.586,-265.216C-221.568,-265.244 -220.563,-265.386 -219.591,-265.827C-219.543,-265.09 -219.313,-264.638 -218.97,-264.361C-219.313,-264.638 -219.543,-265.091 -219.591,-265.827M-224.428,-265.251C-224.018,-265.233 -223.608,-265.216 -223.199,-265.212C-223.608,-265.216 -224.018,-265.233 -224.428,-265.251M-256.898,-225.615C-257.296,-224.71 -257.733,-223.911 -258.214,-223.213C-257.733,-223.911 -257.296,-224.71 -256.898,-225.615C-255.741,-226.228 -254.572,-226.823 -253.419,-227.44C-254.572,-226.823 -255.741,-226.228 -256.898,-225.615M-261.668,-220.226C-260.992,-220.527 -260.369,-220.925 -259.795,-221.422C-260.369,-220.925 -260.992,-220.527 -261.668,-220.226M-262.179,-259.476C-263.141,-259.46 -264.103,-259.444 -265.064,-259.427C-269.633,-257.774 -274.192,-256.11 -278.869,-254.838C-274.192,-256.11 -269.633,-257.774 -265.064,-259.427C-264.103,-259.444 -263.141,-259.46 -262.179,-259.476C-261.846,-258.839 -261.513,-258.202 -261.181,-257.565C-261.513,-258.202 -261.846,-258.839 -262.179,-259.476M-328.759,-233.442C-329.584,-233.016 -330.408,-232.587 -331.226,-232.151C-330.408,-232.587 -329.584,-233.016 -328.759,-233.442C-328.49,-233.703 -328.213,-233.941 -327.927,-234.158C-328.213,-233.941 -328.49,-233.703 -328.759,-233.442M-342.222,-223.585C-343.594,-223.421 -344.564,-222.767 -345.359,-221.903C-344.564,-222.767 -343.594,-223.421 -342.221,-223.585C-342.214,-224.084 -342.148,-224.554 -341.911,-224.943C-342.148,-224.554 -342.214,-224.084 -342.222,-223.585M-349.897,-217.665C-350.359,-217.636 -350.764,-217.553 -351.115,-217.416C-350.764,-217.553 -350.359,-217.636 -349.897,-217.664C-348.935,-218.322 -347.972,-218.979 -347.01,-219.637C-346.039,-219.647 -345.068,-219.658 -344.097,-219.668C-345.068,-219.658 -346.039,-219.647 -347.01,-219.637C-347.972,-218.979 -348.935,-218.322 -349.897,-217.665M-359.974,-170.984L-359.975,-170.986L-359.974,-170.984ZM-360.889,-167.095C-360.886,-166.775 -360.879,-166.455 -360.868,-166.135C-360.879,-166.455 -360.886,-166.775 -360.889,-167.095C-361.274,-167.442 -361.484,-167.748 -361.571,-168.025C-361.484,-167.748 -361.274,-167.442 -360.889,-167.095M-360.855,-164.176C-361.199,-163.736 -361.59,-163.319 -361.953,-162.889C-361.59,-163.319 -361.199,-163.736 -360.855,-164.176ZM-360.17,-185.541C-361.416,-185.566 -362.461,-185.361 -363.14,-184.717C-363.366,-184.502 -363.551,-184.239 -363.69,-183.918C-363.551,-184.239 -363.366,-184.502 -363.14,-184.717C-362.461,-185.361 -361.416,-185.566 -360.17,-185.541C-360.19,-187.478 -360.211,-189.414 -360.231,-191.351C-360.211,-189.414 -360.19,-187.478 -360.17,-185.541M-417.717,-136.315C-418.05,-136.007 -418.366,-135.687 -418.665,-135.356C-418.366,-135.687 -418.05,-136.007 -417.717,-136.315ZM-420.987,-132.134C-420.541,-132.894 -420.057,-133.631 -419.517,-134.332C-420.057,-133.631 -420.541,-132.894 -420.987,-132.134M-420.681,-64.521C-421.089,-64.327 -421.471,-64.089 -421.782,-63.803C-421.471,-64.089 -421.089,-64.327 -420.681,-64.521ZM-422.455,-62.798C-422.374,-63.055 -422.24,-63.289 -422.068,-63.501C-422.24,-63.289 -422.374,-63.055 -422.455,-62.798M-425.807,-124.062C-425.667,-123.882 -425.569,-123.699 -425.495,-123.513C-425.569,-123.698 -425.667,-123.882 -425.807,-124.062M-431.812,41.472C-431.683,40.75 -431.443,40.046 -431.015,39.369C-430.654,39.159 -430.293,38.995 -429.932,38.871C-430.293,38.995 -430.654,39.159 -431.015,39.369C-431.443,40.046 -431.683,40.75 -431.812,41.472M-435.503,-85.668C-435.692,-85.278 -435.882,-84.888 -436.071,-84.499C-435.882,-84.888 -435.692,-85.278 -435.503,-85.668C-434.505,-85.867 -433.673,-86.228 -432.988,-86.737C-433.673,-86.228 -434.505,-85.867 -435.503,-85.668M-360.111,126.715C-360.122,125.746 -360.132,124.777 -360.142,123.808C-360.132,124.777 -360.122,125.746 -360.111,126.715C-360.539,126.765 -361.035,126.767 -361.476,126.821C-361.035,126.767 -360.539,126.765 -360.111,126.715M-330.717,150.595C-330.393,151.219 -330.083,151.837 -329.828,152.444C-330.083,151.837 -330.393,151.218 -330.717,150.595C-331.806,149.747 -332.894,148.899 -333.982,148.05C-332.894,148.899 -331.806,149.747 -330.717,150.595M-311.58,157.438C-312.07,157.033 -312.399,156.51 -312.339,155.71C-312.399,156.51 -312.07,157.033 -311.58,157.438M-309.818,158.481C-310.211,158.259 -310.635,158.056 -311.022,157.826C-310.635,158.056 -310.211,158.259 -309.818,158.481M-15.165,39.979C-15.042,39.368 -15.133,38.768 -15.806,38.2C-15.133,38.768 -15.042,39.368 -15.165,39.979M-11.012,-27.984C-10.552,-28.034 -10.1,-28.066 -9.662,-28.075C-10.1,-28.066 -10.552,-28.035 -11.012,-27.984C-11.025,-28.951 -11.038,-29.918 -11.051,-30.886C-11.038,-29.918 -11.025,-28.951 -11.012,-27.984M-442.659,-37.096C-443.303,-35.225 -443.721,-33.335 -443.989,-31.433C-443.721,-33.335 -443.302,-35.225 -442.659,-37.096C-442.663,-37.742 -442.667,-38.387 -442.67,-39.032C-442.667,-38.387 -442.663,-37.742 -442.659,-37.096M12.306,-32.113C13.692,-23.621 11.695,-15.313 10.932,-6.938C11.333,-6.163 11.148,-5.536 10.453,-5.038C10.594,-2.002 10.187,0.946 9.027,3.772C9.662,5.188 9.385,6.349 8.063,7.215C8.188,8.753 7.916,10.206 7.163,11.559C7.657,13.484 8.201,15.417 6.226,16.907C5.935,18.089 5.643,19.27 5.351,20.45C5.408,20.74 5.362,21.013 5.215,21.27C4.497,27.497 2.605,33.415 0.635,39.334C-1.269,45.057 -4.035,50.412 -6.194,56.003C-12.917,73.408 -22.252,89.402 -33.499,104.082C-47.497,122.355 -63.689,138.657 -82.497,152.159C-88.073,156.928 -94.186,160.908 -100.585,164.467C-105.431,167.216 -110.18,170.155 -115.142,172.674C-125.301,177.829 -135.79,182.127 -146.479,186.18C-156.795,190.092 -167.34,192.853 -177.934,194.672C-192.118,197.107 -206.417,199.389 -221.063,198.936C-235.238,198.497 -249.338,198.167 -263.262,195.256C-264.273,196.3 -265.041,195.692 -265.777,194.882C-266.539,194.784 -267.298,194.682 -268.057,194.581C-269.265,195.458 -269.901,194.638 -270.513,193.753C-271.305,193.453 -272.096,193.152 -272.887,192.852C-273.711,193.227 -274.344,192.984 -274.827,192.254C-275.48,192.137 -276.133,192.02 -276.786,191.904C-278.939,192.27 -280.742,191.617 -282.224,190.034C-284.585,190.258 -286.669,189.607 -288.473,188.068C-290.577,188.332 -292.532,187.944 -294.302,186.74C-296.51,186.601 -298.24,185.271 -300.152,184.396C-301.198,184.902 -301.93,184.541 -302.44,183.566C-302.442,183.569 -302.533,183.405 -302.533,183.405C-305.427,182.294 -308.427,181.418 -310.974,179.549C-308.555,177.039 -307.791,174.303 -307.684,171.478C-307.791,174.303 -308.555,177.039 -310.974,179.548C-312.259,179.088 -313.545,178.629 -314.831,178.17C-316.003,178.35 -316.675,177.688 -317.192,176.767C-319.681,176.036 -321.679,174.476 -323.679,172.922C-334.076,170.061 -342.306,163.635 -350.262,156.761C-354.102,154.461 -358.191,152.583 -361.573,149.532C-368.994,142.838 -377.181,137.103 -383.595,129.153C-389.29,122.094 -395.182,115.165 -400.814,108.039C-407.292,99.841 -412.483,90.763 -417.842,81.853C-423.093,73.123 -428.829,64.458 -430.454,54.02C-431.502,53.392 -431.96,52.38 -432.256,51.262C-431.794,51.177 -431.331,51.091 -430.868,51.006C-430.462,50.966 -430.074,50.891 -429.725,50.774C-430.074,50.891 -430.462,50.966 -430.868,51.006C-431.331,51.091 -431.794,51.177 -432.254,51.262C-435.351,45.299 -436.791,38.752 -438.531,32.364C-440.962,23.44 -443.064,14.394 -444.679,5.29C-445.96,-1.93 -447.888,-9.199 -446.418,-16.677C-445.721,-16.688 -445.024,-16.699 -444.328,-16.709C-445.024,-16.699 -445.721,-16.688 -446.418,-16.677C-446.436,-17.15 -446.453,-17.623 -446.47,-18.096C-448.745,-20.986 -448.415,-24.104 -447.273,-27.292C-447.318,-28.652 -447.35,-30.01 -446.637,-31.249C-447.22,-32.23 -447.323,-33.217 -446.681,-34.216C-446.674,-37.416 -446.666,-40.615 -446.659,-43.815C-447.69,-45.169 -447.084,-46.393 -446.361,-47.609C-447.247,-51.34 -446.225,-54.874 -445.241,-58.412C-445.34,-61.231 -446.814,-64.228 -444.171,-66.691C-444.142,-67.48 -444.112,-68.266 -444.083,-69.053C-445.09,-70.499 -444.589,-71.587 -443.268,-72.477C-443.385,-73.999 -443.443,-75.508 -442.528,-76.852C-442.883,-77.664 -442.65,-78.261 -441.87,-78.658C-442.133,-80.041 -442.246,-81.411 -441.508,-82.704C-442.142,-83.905 -441.342,-84.51 -440.513,-85.101C-440.252,-86.245 -439.991,-87.386 -439.731,-88.528C-440.146,-89.306 -439.947,-89.915 -439.224,-90.382C-437.478,-96.351 -435.94,-102.392 -433.927,-108.27C-431.981,-113.955 -430.086,-119.725 -426.38,-124.624C-426.299,-124.934 -426.218,-125.244 -426.138,-125.554C-426.283,-127.206 -426.126,-128.763 -424.963,-130.094C-421.456,-134.11 -419.062,-139.136 -417.529,-143.829C-414.422,-153.332 -407.988,-160.569 -402.585,-168.32C-397.378,-175.788 -392.648,-183.728 -386.162,-190.4C-378.901,-197.869 -372.079,-205.736 -363.388,-211.646C-363.219,-211.322 -363.05,-210.998 -362.882,-210.674C-363.05,-210.998 -363.219,-211.322 -363.388,-211.646C-363.239,-211.821 -363.052,-211.891 -362.824,-211.855C-362.039,-211.801 -361.257,-211.749 -360.474,-211.697C-361.256,-211.749 -362.039,-211.801 -362.824,-211.855C-361.565,-213.937 -360.229,-215.934 -357.599,-216.463C-356.887,-217.323 -356.279,-218.301 -355.448,-219.024C-348.689,-224.912 -341.714,-230.675 -333.559,-234.377C-327.828,-236.98 -323.407,-241.697 -317.33,-243.528C-316.637,-244.444 -315.711,-244.749 -314.597,-244.564C-314.6,-244.567 -314.573,-244.528 -314.573,-244.528L-314.569,-244.528C-312.317,-248.196 -307.791,-246.975 -304.998,-248.786C-295.808,-254.743 -285.198,-256.219 -275.143,-259.464C-260.851,-264.078 -246.191,-266.516 -231.229,-267.325C-231.224,-266.455 -231.219,-265.585 -231.215,-264.715C-230.567,-264.724 -229.92,-264.733 -229.273,-264.741C-229.078,-264.824 -228.882,-264.895 -228.685,-264.956C-228.882,-264.895 -229.078,-264.824 -229.273,-264.741C-229.92,-264.733 -230.567,-264.724 -231.215,-264.715C-231.219,-265.585 -231.224,-266.455 -231.229,-267.325C-228.956,-267.417 -226.684,-267.511 -224.412,-267.605C-223.862,-268.391 -223.224,-268.549 -222.469,-267.879C-221.535,-267.891 -220.602,-267.901 -219.668,-267.912C-218.743,-268.643 -217.751,-268.617 -216.721,-268.178C-215.411,-268.94 -214.104,-268.898 -212.801,-268.158C-207.972,-268.768 -203.145,-269.268 -198.351,-267.901C-194.785,-267.395 -191.219,-266.889 -187.653,-266.383C-186.329,-267.197 -185,-267.213 -183.667,-266.404C-178.841,-265.135 -173.879,-265.149 -168.964,-264.643C-157.272,-263.44 -146.294,-259.114 -135.144,-255.599C-121.581,-251.324 -108.836,-245.492 -97.668,-236.534C-89.73,-233.39 -83.165,-228.048 -76.685,-222.766C-71.93,-218.89 -66.319,-215.799 -63.108,-210.208C-63.109,-210.208 -63.11,-210.206 -63.111,-210.205C-61.944,-209.08 -60.772,-207.956 -59.601,-206.832C-54.741,-202.943 -50.12,-198.8 -45.684,-194.424C-37.932,-186.777 -32.219,-177.622 -26.522,-168.508C-20.074,-158.195 -13.35,-147.931 -8.172,-136.972C2.485,-114.418 8.761,-90.502 11.004,-65.594C12.901,-64.325 12.819,-63.037 11.044,-61.732C12.839,-57.175 12.439,-52.342 12.824,-47.609C14.342,-42.387 14.408,-37.214 12.306,-32.113" style="fill:rgb(255,147,24);fill-rule:nonzero;"/>
    </g>
    <g transform="matrix(1.92683,0.493992,-0.493992,1.92683,181.155,329.535)">
        <path d="M62,68.09C59.1,72.89 62.1,75.19 59.2,78.59C59.2,79.39 55.7,81.39 55.7,82.19C53.8,86.49 53.9,86.99 47.3,88.49C46.6,88.49 43.8,90.49 43.1,90.49C41.2,89.79 36.6,92.09 30.4,89.19C27.8,89.19 28.2,88.59 28.2,85.69C27.6,84.69 32.4,84.99 34.6,84.99C41,84.99 45.6,80.49 47.9,75.69L47.9,61.69C47.9,59.49 46.2,57.39 42.2,53.29C39.3,50.29 34.4,49.79 33.7,49.09C32.8,49.09 27.9,48.19 27.4,48.39C27.3,47.49 24.7,49.79 23.2,49.79C19.6,50.99 22.1,60.59 20.4,62.59C20.7,64.39 21.8,66.29 21.8,68.19C20.73,70.359 20.28,72.782 20.5,75.19C20.5,75.89 21.9,77.99 21.9,78.69L21.9,84.29C21.9,84.89 22.6,87.09 22.6,87.79L22.6,91.39C22.6,92.69 22,103.99 22,105.49C22.1,114.39 21.6,119.09 24.2,119.59L29.2,119.59C29.2,119.59 30.6,120.29 30.6,120.99C32.1,123.39 28.4,123.09 23.6,123.09C22.8,123.09 20.8,123.79 20,123.79C17.1,123.19 0.7,125.39 1.7,121.69C1,118.99 5.2,119.69 7.3,119.69C10.5,118.19 10.3,113.79 12.2,110.39C12.4,109.59 12.2,109.09 11.4,107.59C11.6,107.29 10.8,106.69 12.2,104.09C12.5,100.39 11.4,98.59 11.4,96.29C11.4,92.99 11.6,88.99 10.7,87.19C10.6,77.69 12.1,71.79 12.1,64.59C11.4,62.09 10.8,57.69 9.9,56.09C11,52.39 8.1,50.99 7.1,50.49C4.4,50.29 0.8,48 0,47.69L0,46.39L7.8,46.39C5.2,45.39 22.8,45.69 29.7,45.69C30.4,45.69 36.7,44.89 37.5,44.89C42,44.99 45.5,43.99 51.6,49.09C52.3,49.09 54.4,51.89 55.1,51.89C56.6,52.69 58.7,53.49 58.6,53.99C58.2,58.69 62,63.19 62,68.09ZM111,67.69C109.4,67.69 105,66.59 102,70.99L102.8,71.79C105.7,71.79 109.6,74.49 110.2,74.29C111.2,73.29 111.8,84.29 111.8,88.99C111.8,94.29 113.1,99.59 112.6,100.39C112.6,103.29 109.8,106.89 111,108.59C111,110.49 108.3,113.59 108.5,113.49C102.5,119.49 100.3,114.89 94.6,118.39L91.3,118.39C88.1,118.39 84.9,115.39 83.2,113.59C83.2,108.89 81.6,103.19 81.6,100.49C81.6,96.99 81.2,91.69 82.4,89.89C82.4,88.89 83.5,77.59 83.2,76.89C83.2,72.29 82.1,71.39 75.1,67.89C68.2,67.89 64.5,67.79 66.1,71.99L66.9,72.89C67.8,72.89 71.1,75.29 71.9,75.29C73,76.79 73.9,85.49 73.5,85.89C72.3,86.09 72.7,93.09 72.7,96.49L72.7,105.49C72.7,108.99 74.4,112.59 74.4,114.39C74.4,115.19 76,117.69 76,117.69C82.3,126.79 87.7,123.89 89.1,124.99C93.3,124.99 96.3,123.39 100.5,123.39C101.3,123.39 103.8,120.09 103.8,120.09C104.6,120.09 107.1,118.39 107.9,118.39C107.6,118.39 112,117.69 112,120.09C113.7,122.69 114.4,123.99 116.1,123.39C117.7,123.39 121.2,120.89 124.2,120.89C128.8,119.79 131,119.59 130,117.59C129.8,117.79 127.6,115.09 125.9,115.09C123.8,114.69 122,114.39 120.9,112.79L120.9,106.29C120.9,105.49 121.8,102.19 121.8,101.29C121.8,99.29 120.2,96.99 120.9,94.89C120.9,90.29 122.6,87.19 122.6,82.59C121.486,79.201 120.912,75.657 120.9,72.09C117.5,68.49 112.1,68.49 111,67.69ZM194.7,98.79C194.7,98.79 193.9,102.09 193.1,102.89C193.1,103.69 190.6,106.99 190.6,107.69L190.6,110.89C185.9,122.39 170.4,122.89 156.7,123.19C155.8,123.19 154.2,121.59 153.4,121.59C151.6,121.49 149.7,119.89 147.8,118.49L147,118.49C146.2,118.49 143,121.69 142.2,121.69C140.938,121.117 140.039,119.955 139.8,118.59C139.8,116.19 138.9,116.09 138.9,114.49L139.8,111.09C140,106.99 138.9,105.49 138.9,103.09C138.9,102.29 139.8,98.99 139.8,98.19C140,91.39 138.9,85.99 138.9,81.19C138.9,80.39 139.8,73.99 139.8,72.99C139.8,67.49 139.3,57.39 140.6,56.99C140.8,54.59 139.8,52.69 139.8,50.29C138.6,46.89 143.7,46.99 131.5,36.69L131.5,35.09C133.1,34.49 138,30.89 141.3,30.89C147.7,30.89 150.2,31.09 150.2,37.39C150.9,37.69 149.3,45.09 149.3,49.49C149.3,55.79 149.6,65.69 148.5,66.49C148.7,71.19 150.6,70.59 151.8,70.59C152.6,70.59 156.6,68.99 157.4,68.99C160.8,68.99 166.2,67.29 169.6,67.29C172.6,66.99 174.9,68.09 177.6,68.99C181.8,68.49 183.4,71.59 186.6,74.69L187.4,76.29C195.4,77.89 194.7,96.29 194.7,98.79ZM179.2,82.59C179.2,81.79 176,79.39 176,78.69C173.6,74.09 167.9,74.29 166.3,72.89C164.3,73.59 155.8,71.29 152.5,74.69C152.6,74.49 150.1,77.49 150.1,79.49C150.1,81.89 149.2,93.29 149.2,95.69L149.2,96.49C149.2,97.29 150.1,100.49 150.1,101.29C150.1,107.99 149.8,113.89 153.3,116.59C156.6,118.29 163.9,118.99 164.7,118.99C174.2,114.89 183.3,112.89 183.2,98.69C183.4,85.89 180.8,87.59 179.2,82.59ZM262.8,56C263.282,54.48 263.518,52.894 263.5,51.3C263.5,50.2 258.6,46.7 256.7,46.7C252.6,45.9 250.5,45.9 249.4,44L246.7,44C241.6,44 235.4,46 230.7,45.4C229.5,46.7 226.5,47.4 223.9,47.4C222.3,48.5 216.3,51.7 215.9,52L206.6,61.4C204.9,64.6 201.9,68.8 201.9,71.4C201.9,72.1 200,74.8 200,75.5C199.8,75.6 199.3,83.4 199.3,84.2C199.3,85 200,88.3 200,88.9L200,93.5C200,95.5 202.1,97.3 201.9,99.6C201.9,102.3 204.3,103.3 203.9,104.9C203.9,107 215.8,117.2 216,116.3C217.1,117.5 218.4,118.9 219.4,119C220.1,119 224.7,120.9 225.4,120.9C227.1,120.9 232.7,122.2 236.8,122.2L238.2,122.9L246.2,122.9C257.8,122.9 259.6,120.6 261.6,119.6C262.5,118.5 263.3,114.6 263.6,114.2C264.1,111.4 264.8,109 264.8,107.5C264.8,105.5 263.8,104.2 263.6,104.8C260,104.8 258.5,109.9 257.5,110.8L254.1,114.2C253.4,114.2 250.2,116.2 249.5,116.2C247.5,117 246.7,118.2 243.4,118.2C239,118.2 240.1,119.1 234.7,118.9C231.7,118.1 226.6,118.1 223.3,114.9C220,111.7 219,113.1 213.9,98.9C213.9,96.9 211.4,95.2 212.5,92.8C211.7,90.4 211.8,89.3 211.8,80.7C211.8,77.5 213.1,75.6 213.1,72.7C214.5,70.1 214.9,67.6 215.8,64.7C215.8,64 218.5,62 218.5,61.3C219.2,60.6 221.8,56 222.4,55.3C222.2,54.7 228.8,51.1 228.5,51.2C234.9,49.7 232.6,49.1 240.6,49.3C242,49.3 245.9,50 246.6,50C250.3,51.9 257.7,55.4 258,59.3C262.1,63.3 261.4,60.3 262.1,61.3C262.7,61 263,60.1 263.4,59.3C263.2,58.19 262.9,57.09 262.8,56ZM330.7,98.6C328.9,103.8 330.8,104.7 323.7,111.8C320.2,115.3 319.1,115.6 315.9,118.8C311.3,120.2 310,119.7 305.1,123.6C299.523,123.271 294.012,122.23 288.7,120.5C285.9,120.5 284.6,117 277.1,112C275,110.2 270.9,101.3 270.9,95C270,94.2 272.5,91.8 272.5,85.6C272.5,83.6 274.9,81.9 276.3,80.2C275.4,78 283.4,69.2 290.3,66.9L305.1,66.9C305.8,68 309.6,67.7 312.1,67.7C312.2,68.3 315.3,68.6 317.5,70.9C319.9,70.9 322.8,76 325.3,78.7C326.1,79.5 327.7,84.1 328.5,84.9C328.6,85.9 330.8,92.8 330.8,95.7C330.7,98.09 330.7,98.29 330.7,98.59L330.7,98.6ZM316.7,80C315.1,78.3 306.9,68.2 303.5,68.3C301.1,69.3 298,69.1 294.9,69.1C291.858,71.127 289.042,73.473 286.5,76.1C284.4,79.9 284.5,85.3 282.6,86.3C282.6,90.4 283,95.9 281.8,97.9C282.2,100 282.4,102 282.6,104.1C282.6,113 286.2,110.4 287.2,112.7L288.8,115.9C298.4,120.7 297.9,119.7 302.8,119.7C303.8,120.7 310.4,114.7 314.5,112.7C316.6,112.7 319.5,102.3 319.9,101.9C320.5,100.7 319.1,91.1 319.1,85.6C318.631,83.608 317.819,81.713 316.7,80ZM398.4,120.2L397.6,119.4C396.8,119.4 392.1,116.3 391.3,116.3C389.9,115.5 389.4,112.5 388.9,111.6C388.9,109.4 390.5,102 390.4,95.7C389.742,94.226 389.467,92.609 389.6,91L390.4,88.6C389.419,85.8 388.88,82.865 388.8,79.9C389.4,78.9 385.6,75.2 385.6,72.7C379.5,64.6 372.6,68 368.1,67.2C366.2,68 364.8,69.7 361,70.4C358,71 356.3,73.7 353.1,73.6C351.7,72.4 353.2,67.3 350.7,67.3L349,66.5C348,66.2 346,69.2 344.3,71.3C340.9,74.7 339.7,76.2 335.6,78.4C335.6,80.9 336.8,81.4 341.1,84C341.1,84.8 341.9,90.3 341.9,91.9C341.9,97 341.9,106.8 342,117.3C339.3,119.1 338.1,120 334.9,120.5L334.9,121.3C334.9,124.2 336,123.5 339.6,123.7C340.4,123.7 342.8,122.9 343.6,122.9L360.3,122.9C361.1,122.2 361.3,122 361.1,120.5C360.3,119.4 356.9,118.1 354,118.1C352.5,117.2 351.6,114.7 351.6,112.6L351.7,87.1C352.4,85.2 352.6,82.9 354.1,80.8C360.4,74.5 368.2,72.8 369.9,73.6C371.6,74.4 373.4,76 376.2,76.7C379.6,76.7 378.6,84 378.6,87.9C378.6,88.7 379.4,91.8 379.4,92.6C379.4,93.4 381,96.5 381,97.3C380.936,98.407 380.664,99.493 380.2,100.5L380.2,115.6C379.4,116.4 379.9,118 377.8,118C377,118.7 374,118.7 371.5,120.4C371.5,123 374.3,121.6 376.2,122C377,122 380.2,122.8 380.9,122.8L397.6,122.8C398.38,122.186 398.7,121.147 398.4,120.2ZM434.4,30.9C431.2,30.9 429.3,33.6 425.6,34.2C422.1,37.6 417.5,39.9 417.5,43C416.8,45.7 416.8,49.3 414.4,49.3C414.4,53.1 412.2,60.9 412.1,60.5C412.1,68.2 412.8,66.3 404.9,73.3C404.9,75.8 406,75.4 411.3,79.7C411.3,82.2 412.1,85.3 413.7,86L413.7,87.6C413.7,88.5 412.1,90.9 412.1,91.7C412.1,100.6 411.8,104.8 412.9,107.6C412.9,109.7 410.1,112 411.3,114C408.5,121.2 405.3,116.9 402.4,121.1L403.2,121.9L417.6,121.9C419.6,121.1 420.3,121.1 424.8,121.1C427.8,121.1 428.2,121.9 435.3,121.9C436,121.1 436.1,122 436.1,118.7C437,117.6 431.2,117.9 428.9,117.9C428.4,117.6 421.1,114.4 421.7,114L421.6,89.3C421.6,87.5 420.5,85.9 420.8,82.9C422,78.3 420.2,74.9 429.6,74.9C430.4,74.9 436,74.1 437.6,74.1C438.731,73.128 439.358,71.69 439.3,70.2C439.3,69.4 437.6,67.8 437.6,67.8L426.4,67.8C425.9,67.8 422.6,66.5 422.3,65.3C422.3,61.6 420.9,55.5 421.5,54.2C421.454,48.862 423.459,43.704 427.1,39.8C428.4,38.7 431.9,39.1 431.9,39C434.9,39 437,41.3 439.9,41.3C440.7,41.3 445.4,42.1 446.3,42.1C448.4,42.1 451.6,38.8 451,37.4C451.1,34.69 451.1,30.89 434.4,30.89L434.4,30.9Z" style="fill:rgb(255,147,24);fill-rule:nonzero;"/>
    </g>
</svg>
