<?xml version="1.0" encoding="UTF-8" standalone="no"?>
<!DOCTYPE svg PUBLIC "-//W3C//DTD SVG 1.1//EN" "http://www.w3.org/Graphics/SVG/1.1/DTD/svg11.dtd">
<svg width="100%" height="100%" viewBox="0 0 705 271" version="1.1" xmlns="http://www.w3.org/2000/svg" xmlns:xlink="http://www.w3.org/1999/xlink" xml:space="preserve" xmlns:serif="http://www.serif.com/" style="fill-rule:evenodd;clip-rule:evenodd;stroke-linejoin:round;stroke-miterlimit:2;">
    <g id="event-lockup.svg" serif:id="event lockup.svg" transform="matrix(1.55629,0,0,1.55629,352.5,135.397)">
        <g transform="matrix(1,0,0,1,-226.5,-87)">
            <clipPath id="_clip1">
                <rect x="0" y="0" width="453" height="174"/>
            </clipPath>
            <g clip-path="url(#_clip1)">
                <path d="M6.396,152.379L8.118,152.379C8.378,152.379 8.603,152.372 8.795,152.358C8.986,152.331 9.157,152.29 9.307,152.235C9.471,152.181 9.615,152.106 9.738,152.01C9.874,151.901 10.018,151.771 10.168,151.62L21.874,139.587C22.078,139.355 22.277,139.197 22.468,139.115C22.673,139.033 22.912,138.992 23.186,138.992L24.866,138.992L12.198,152.01C11.938,152.283 11.706,152.495 11.501,152.645C11.309,152.796 11.091,152.919 10.845,153.014C11.132,153.096 11.391,153.226 11.624,153.404C11.856,153.568 12.088,153.787 12.32,154.06L25.666,168L23.965,168C23.609,168 23.35,167.959 23.186,167.877C23.035,167.781 22.885,167.638 22.735,167.446L10.476,154.9C10.325,154.75 10.182,154.62 10.045,154.511C9.922,154.402 9.779,154.313 9.615,154.244C9.464,154.162 9.28,154.108 9.061,154.08C8.856,154.039 8.589,154.019 8.262,154.019L6.396,154.019L6.396,168L4.285,168L4.285,138.992L6.396,138.992L6.396,152.379ZM43.901,157.463L37.997,142.805C37.792,142.327 37.594,141.753 37.403,141.083C37.321,141.411 37.232,141.726 37.136,142.026C37.041,142.313 36.938,142.58 36.829,142.826L30.925,157.463L43.901,157.463ZM50.318,168L48.698,168C48.507,168 48.35,167.952 48.227,167.856C48.104,167.747 48.008,167.61 47.94,167.446L44.537,159.021L30.289,159.021L26.886,167.446C26.832,167.597 26.736,167.727 26.599,167.836C26.463,167.945 26.299,168 26.107,168L24.508,168L36.378,138.992L38.448,138.992L50.318,168ZM75.462,138.992L75.462,168L74.478,168C74.3,168 74.15,167.973 74.027,167.918C73.918,167.85 73.808,167.74 73.699,167.59L54.86,142.416C54.901,142.826 54.921,143.215 54.921,143.584L54.921,168L53.076,168L53.076,138.992L54.122,138.992C54.313,138.992 54.456,139.02 54.552,139.074C54.661,139.115 54.778,139.218 54.901,139.382L73.699,164.494C73.658,164.084 73.638,163.695 73.638,163.326L73.638,138.992L75.462,138.992ZM96.06,142.518C95.937,142.751 95.759,142.867 95.527,142.867C95.349,142.867 95.117,142.744 94.83,142.498C94.557,142.238 94.181,141.958 93.702,141.657C93.224,141.343 92.623,141.056 91.898,140.796C91.188,140.537 90.306,140.407 89.254,140.407C88.202,140.407 87.272,140.557 86.466,140.858C85.673,141.159 85.004,141.569 84.457,142.088C83.924,142.607 83.514,143.209 83.227,143.892C82.954,144.575 82.817,145.293 82.817,146.044C82.817,147.028 83.022,147.842 83.432,148.484C83.856,149.126 84.409,149.673 85.092,150.124C85.776,150.575 86.548,150.958 87.409,151.272C88.284,151.573 89.179,151.873 90.094,152.174C91.01,152.475 91.898,152.809 92.759,153.178C93.634,153.534 94.413,153.985 95.096,154.531C95.78,155.078 96.326,155.755 96.736,156.561C97.16,157.354 97.372,158.344 97.372,159.533C97.372,160.75 97.16,161.898 96.736,162.977C96.326,164.043 95.725,164.973 94.932,165.765C94.14,166.558 93.169,167.187 92.021,167.651C90.873,168.103 89.561,168.328 88.085,168.328C86.172,168.328 84.525,167.993 83.145,167.324C81.765,166.64 80.555,165.711 79.516,164.535L80.09,163.633C80.254,163.428 80.446,163.326 80.664,163.326C80.787,163.326 80.945,163.408 81.136,163.572C81.327,163.736 81.56,163.941 81.833,164.187C82.106,164.419 82.434,164.679 82.817,164.966C83.2,165.239 83.644,165.499 84.149,165.745C84.655,165.977 85.236,166.175 85.892,166.339C86.548,166.503 87.293,166.585 88.126,166.585C89.274,166.585 90.299,166.415 91.201,166.073C92.103,165.718 92.862,165.239 93.477,164.638C94.106,164.037 94.584,163.326 94.912,162.506C95.24,161.672 95.404,160.784 95.404,159.841C95.404,158.816 95.192,157.975 94.768,157.319C94.358,156.65 93.812,156.096 93.128,155.659C92.445,155.208 91.666,154.832 90.791,154.531C89.93,154.231 89.042,153.937 88.126,153.65C87.211,153.363 86.316,153.042 85.441,152.686C84.58,152.331 83.808,151.88 83.124,151.333C82.441,150.773 81.888,150.083 81.464,149.263C81.054,148.429 80.849,147.391 80.849,146.147C80.849,145.177 81.033,144.24 81.402,143.338C81.771,142.436 82.311,141.644 83.022,140.96C83.733,140.263 84.607,139.71 85.646,139.3C86.698,138.876 87.894,138.664 89.233,138.664C90.737,138.664 92.083,138.904 93.272,139.382C94.475,139.86 95.568,140.591 96.552,141.575L96.06,142.518ZM117.069,157.463L111.165,142.805C110.96,142.327 110.762,141.753 110.57,141.083C110.488,141.411 110.399,141.726 110.304,142.026C110.208,142.313 110.106,142.58 109.996,142.826L104.092,157.463L117.069,157.463ZM123.485,168L121.866,168C121.674,168 121.517,167.952 121.394,167.856C121.271,167.747 121.176,167.61 121.107,167.446L117.704,159.021L103.457,159.021L100.054,167.446C99.999,167.597 99.903,167.727 99.767,167.836C99.63,167.945 99.466,168 99.275,168L97.676,168L109.545,138.992L111.616,138.992L123.485,168ZM140.327,142.518C140.204,142.751 140.026,142.867 139.794,142.867C139.616,142.867 139.384,142.744 139.097,142.498C138.824,142.238 138.448,141.958 137.969,141.657C137.491,141.343 136.89,141.056 136.165,140.796C135.455,140.537 134.573,140.407 133.521,140.407C132.469,140.407 131.539,140.557 130.733,140.858C129.94,141.159 129.271,141.569 128.724,142.088C128.191,142.607 127.781,143.209 127.494,143.892C127.221,144.575 127.084,145.293 127.084,146.044C127.084,147.028 127.289,147.842 127.699,148.484C128.123,149.126 128.676,149.673 129.359,150.124C130.043,150.575 130.815,150.958 131.676,151.272C132.551,151.573 133.446,151.873 134.361,152.174C135.277,152.475 136.165,152.809 137.026,153.178C137.901,153.534 138.68,153.985 139.363,154.531C140.047,155.078 140.593,155.755 141.003,156.561C141.427,157.354 141.639,158.344 141.639,159.533C141.639,160.75 141.427,161.898 141.003,162.977C140.593,164.043 139.992,164.973 139.199,165.765C138.407,166.558 137.436,167.187 136.288,167.651C135.14,168.103 133.828,168.328 132.352,168.328C130.439,168.328 128.792,167.993 127.412,167.324C126.032,166.64 124.822,165.711 123.783,164.535L124.357,163.633C124.521,163.428 124.713,163.326 124.931,163.326C125.054,163.326 125.212,163.408 125.403,163.572C125.594,163.736 125.827,163.941 126.1,164.187C126.373,164.419 126.701,164.679 127.084,164.966C127.467,165.239 127.911,165.499 128.416,165.745C128.922,165.977 129.503,166.175 130.159,166.339C130.815,166.503 131.56,166.585 132.393,166.585C133.541,166.585 134.566,166.415 135.468,166.073C136.37,165.718 137.129,165.239 137.744,164.638C138.373,164.037 138.851,163.326 139.179,162.506C139.507,161.672 139.671,160.784 139.671,159.841C139.671,158.816 139.459,157.975 139.035,157.319C138.625,156.65 138.079,156.096 137.395,155.659C136.712,155.208 135.933,154.832 135.058,154.531C134.197,154.231 133.309,153.937 132.393,153.65C131.478,153.363 130.583,153.042 129.708,152.686C128.847,152.331 128.075,151.88 127.391,151.333C126.708,150.773 126.155,150.083 125.731,149.263C125.321,148.429 125.116,147.391 125.116,146.147C125.116,145.177 125.3,144.24 125.669,143.338C126.038,142.436 126.578,141.644 127.289,140.96C128,140.263 128.874,139.71 129.913,139.3C130.965,138.876 132.161,138.664 133.5,138.664C135.004,138.664 136.35,138.904 137.539,139.382C138.742,139.86 139.835,140.591 140.819,141.575L140.327,142.518ZM176.146,163.121C176.283,163.121 176.399,163.169 176.495,163.264L177.315,164.146C176.713,164.788 176.057,165.369 175.347,165.888C174.65,166.394 173.878,166.831 173.03,167.2C172.197,167.556 171.274,167.829 170.263,168.021C169.265,168.226 168.165,168.328 166.962,168.328C164.953,168.328 163.108,167.98 161.427,167.282C159.76,166.572 158.325,165.574 157.122,164.289C155.92,162.991 154.983,161.426 154.314,159.595C153.658,157.764 153.33,155.727 153.33,153.486C153.33,151.286 153.671,149.277 154.355,147.459C155.038,145.641 155.995,144.083 157.225,142.785C158.455,141.473 159.931,140.462 161.653,139.751C163.375,139.027 165.274,138.664 167.352,138.664C169.333,138.664 171.09,138.972 172.62,139.587C174.151,140.202 175.545,141.07 176.802,142.19L176.167,143.113C176.057,143.277 175.887,143.359 175.654,143.359C175.49,143.359 175.224,143.209 174.855,142.908C174.486,142.607 173.973,142.279 173.317,141.924C172.661,141.555 171.841,141.22 170.857,140.919C169.887,140.619 168.718,140.468 167.352,140.468C165.602,140.468 163.997,140.769 162.534,141.37C161.086,141.972 159.835,142.833 158.783,143.953C157.744,145.074 156.931,146.441 156.343,148.053C155.756,149.666 155.462,151.477 155.462,153.486C155.462,155.536 155.756,157.367 156.343,158.98C156.945,160.593 157.765,161.959 158.803,163.08C159.842,164.187 161.065,165.041 162.473,165.642C163.894,166.23 165.425,166.524 167.065,166.524C168.103,166.524 169.026,166.456 169.832,166.319C170.652,166.182 171.404,165.977 172.087,165.704C172.771,165.431 173.406,165.096 173.994,164.699C174.581,164.303 175.162,163.838 175.736,163.305C175.805,163.251 175.873,163.21 175.941,163.182C176.01,163.141 176.078,163.121 176.146,163.121ZM182.984,168L180.873,168L180.873,138.992L182.984,138.992L182.984,168ZM208.373,140.776L198.185,140.776L198.185,168L196.073,168L196.073,140.776L185.823,140.776L185.823,138.992L208.373,138.992L208.373,140.776ZM220.165,156.048L220.165,168L218.074,168L218.074,156.048L207.332,138.992L209.177,138.992C209.368,138.992 209.525,139.04 209.648,139.136C209.771,139.218 209.874,139.341 209.956,139.505L218.258,152.83C218.436,153.144 218.6,153.452 218.75,153.752C218.901,154.039 219.031,154.326 219.14,154.613C219.249,154.326 219.372,154.039 219.509,153.752C219.646,153.452 219.803,153.144 219.98,152.83L228.283,139.505C228.351,139.355 228.447,139.232 228.57,139.136C228.707,139.04 228.871,138.992 229.062,138.992L230.907,138.992L220.165,156.048Z" style="fill:white;fill-rule:nonzero;"/>
                <path d="M63,68.09C60.1,72.89 63.1,75.19 60.2,78.59C60.2,79.39 56.7,81.39 56.7,82.19C54.8,86.49 54.9,86.99 48.3,88.49C47.6,88.49 44.8,90.49 44.1,90.49C42.2,89.79 37.6,92.09 31.4,89.19C28.8,89.19 29.2,88.59 29.2,85.69C28.6,84.69 33.4,84.99 35.6,84.99C42,84.99 46.6,80.49 48.9,75.69L48.9,61.69C48.9,59.49 47.2,57.39 43.2,53.29C40.3,50.29 35.4,49.79 34.7,49.09C33.8,49.09 28.9,48.19 28.4,48.39C28.3,47.49 25.7,49.79 24.2,49.79C20.6,50.99 23.1,60.59 21.4,62.59C21.7,64.39 22.8,66.29 22.8,68.19C21.73,70.36 21.28,72.78 21.5,75.19C21.5,75.89 22.9,77.99 22.9,78.69L22.9,84.29C22.9,84.89 23.6,87.09 23.6,87.79L23.6,91.39C23.6,92.69 23,103.99 23,105.49C23.1,114.39 22.6,119.09 25.2,119.59L30.2,119.59C30.2,119.59 31.6,120.29 31.6,120.99C33.1,123.39 29.4,123.09 24.6,123.09C23.8,123.09 21.8,123.79 21,123.79C18.1,123.19 1.7,125.39 2.7,121.69C2,118.99 6.2,119.69 8.3,119.69C11.5,118.19 11.3,113.79 13.2,110.39C13.4,109.59 13.2,109.09 12.4,107.59C12.6,107.29 11.8,106.69 13.2,104.09C13.5,100.39 12.4,98.59 12.4,96.29C12.4,92.99 12.6,88.99 11.7,87.19C11.6,77.69 13.1,71.79 13.1,64.59C12.4,62.09 11.8,57.69 10.9,56.09C12,52.39 9.1,50.99 8.1,50.49C5.4,50.29 1.8,48 1,47.69L1,46.39L8.8,46.39C6.2,45.39 23.8,45.69 30.7,45.69C31.4,45.69 37.7,44.89 38.5,44.89C43,44.99 46.5,43.99 52.6,49.09C53.3,49.09 55.4,51.89 56.1,51.89C57.6,52.69 59.7,53.49 59.6,53.99C59.2,58.69 63,63.19 63,68.09Z" style="fill:rgb(255,255,253);fill-rule:nonzero;"/>
                <path d="M112,67.69C110.4,67.69 106,66.59 103,70.99L103.8,71.79C106.7,71.79 110.6,74.49 111.2,74.29C112.2,73.29 112.8,84.29 112.8,88.99C112.8,94.29 114.1,99.59 113.6,100.39C113.6,103.29 110.8,106.89 112,108.59C112,110.49 109.3,113.59 109.5,113.49C103.5,119.49 101.3,114.89 95.6,118.39L92.3,118.39C89.1,118.39 85.9,115.39 84.2,113.59C84.2,108.89 82.6,103.19 82.6,100.49C82.6,96.99 82.2,91.69 83.4,89.89C83.4,88.89 84.5,77.59 84.2,76.89C84.2,72.29 83.1,71.39 76.1,67.89C69.2,67.89 65.5,67.79 67.1,71.99L67.9,72.89C68.8,72.89 72.1,75.29 72.9,75.29C74,76.79 74.9,85.49 74.5,85.89C73.3,86.09 73.7,93.09 73.7,96.49L73.7,105.49C73.7,108.99 75.4,112.59 75.4,114.39C75.4,115.19 77,117.69 77,117.69C83.3,126.79 88.7,123.89 90.1,124.99C94.3,124.99 97.3,123.39 101.5,123.39C102.3,123.39 104.8,120.09 104.8,120.09C105.6,120.09 108.1,118.39 108.9,118.39C108.6,118.39 113,117.69 113,120.09C114.7,122.69 115.4,123.99 117.1,123.39C118.7,123.39 122.2,120.89 125.2,120.89C129.8,119.79 132,119.59 131,117.59C130.8,117.79 128.6,115.09 126.9,115.09C124.8,114.69 123,114.39 121.9,112.79L121.9,106.29C121.9,105.49 122.8,102.19 122.8,101.29C122.8,99.29 121.2,96.99 121.9,94.89C121.9,90.29 123.6,87.19 123.6,82.59C122.49,79.2 121.91,75.66 121.9,72.09C118.5,68.49 113.1,68.49 112,67.69Z" style="fill:rgb(255,255,253);fill-rule:nonzero;"/>
                <path d="M188.4,76.29L187.6,74.69C184.4,71.59 182.8,68.49 178.6,68.99C175.9,68.09 173.6,66.99 170.6,67.29C167.2,67.29 161.8,68.99 158.4,68.99C157.6,68.99 153.6,70.59 152.8,70.59C151.6,70.59 149.7,71.19 149.5,66.49C150.6,65.69 150.3,55.79 150.3,49.49C150.3,45.09 151.9,37.69 151.2,37.39C151.2,31.09 148.7,30.89 142.3,30.89C139,30.89 134.1,34.49 132.5,35.09L132.5,36.69C144.7,46.99 139.6,46.89 140.8,50.29C140.8,52.69 141.8,54.59 141.6,56.99C140.3,57.39 140.8,67.49 140.8,72.99C140.8,73.99 139.9,80.39 139.9,81.19C139.9,85.99 141,91.39 140.8,98.19C140.8,98.99 139.9,102.29 139.9,103.09C139.9,105.49 141,106.99 140.8,111.09L139.9,114.49C139.9,116.09 140.8,116.19 140.8,118.59C141.04,119.96 141.94,121.12 143.2,121.69C144,121.69 147.2,118.49 148,118.49L148.8,118.49C150.7,119.89 152.6,121.49 154.4,121.59C155.2,121.59 156.8,123.19 157.7,123.19C171.4,122.89 186.9,122.39 191.6,110.89L191.6,107.69C191.6,106.99 194.1,103.69 194.1,102.89C194.9,102.09 195.7,98.79 195.7,98.79C195.7,96.29 196.4,77.89 188.4,76.29ZM184.2,98.69C184.3,112.89 175.2,114.89 165.7,118.99C164.9,118.99 157.6,118.29 154.3,116.59C150.8,113.89 151.1,107.99 151.1,101.29C151.1,100.49 150.2,97.29 150.2,96.49L150.2,95.69C150.2,93.29 151.1,81.89 151.1,79.49C151.1,77.49 153.6,74.49 153.5,74.69C156.8,71.29 165.3,73.59 167.3,72.89C168.9,74.29 174.6,74.09 177,78.69C177,79.39 180.2,81.79 180.2,82.59C181.8,87.59 184.4,85.89 184.2,98.69Z" style="fill:rgb(255,255,253);fill-rule:nonzero;"/>
                <path d="M255.1,114.2C254.4,114.2 251.2,116.2 250.5,116.2C248.5,117 247.7,118.2 244.4,118.2C240,118.2 241.1,119.1 235.7,118.9C232.7,118.1 227.6,118.1 224.3,114.9C221,111.7 220,113.1 214.9,98.9C214.9,96.9 212.4,95.2 213.5,92.8C212.7,90.4 212.8,89.3 212.8,80.7C212.8,77.5 214.1,75.6 214.1,72.7C215.5,70.1 215.9,67.6 216.8,64.7C216.8,64 219.5,62 219.5,61.3C220.2,60.6 222.8,56 223.4,55.3C223.2,54.7 229.8,51.1 229.5,51.2C235.9,49.7 233.6,49.1 241.6,49.3C243,49.3 246.9,50 247.6,50C251.3,51.9 258.7,55.4 259,59.3C263.1,63.3 262.4,60.3 263.1,61.3C263.7,61 264,60.1 264.4,59.3C264.2,58.19 263.9,57.09 263.8,56C264.28,54.48 264.52,52.89 264.5,51.3C264.5,50.2 259.6,46.7 257.7,46.7C253.6,45.9 251.5,45.9 250.4,44L247.7,44C242.6,44 236.4,46 231.7,45.4C230.5,46.7 227.5,47.4 224.9,47.4C223.3,48.5 217.3,51.7 216.9,52L207.6,61.4C205.9,64.6 202.9,68.8 202.9,71.4C202.9,72.1 201,74.8 201,75.5C200.8,75.6 200.3,83.4 200.3,84.2C200.3,85 201,88.3 201,88.9L201,93.5C201,95.5 203.1,97.3 202.9,99.6C202.9,102.3 205.3,103.3 204.9,104.9C204.9,107 216.8,117.2 217,116.3C218.1,117.5 219.4,118.9 220.4,119C221.1,119 225.7,120.9 226.4,120.9C228.1,120.9 233.7,122.2 237.8,122.2L239.2,122.9L247.2,122.9C258.8,122.9 260.6,120.6 262.6,119.6C262.8,119.36 262.99,118.97 263.18,118.52C260.54,117.33 258.31,115.31 256.14,113.16L255.1,114.2Z" style="fill:white;fill-rule:nonzero;"/>
                <path d="M399.4,120.2L398.6,119.4C397.8,119.4 393.1,116.3 392.3,116.3C390.9,115.5 390.4,112.5 389.9,111.6C389.9,109.4 391.5,102 391.4,95.7C390.74,94.23 390.47,92.61 390.6,91L391.4,88.6C390.42,85.8 389.88,82.87 389.8,79.9C390.4,78.9 386.6,75.2 386.6,72.7C380.5,64.6 373.6,68 369.1,67.2C367.2,68 365.8,69.7 362,70.4C359,71 357.3,73.7 354.1,73.6C352.7,72.4 354.2,67.3 351.7,67.3L350,66.5C349,66.2 347,69.2 345.3,71.3C341.9,74.7 340.7,76.2 336.6,78.4C336.6,80.9 337.8,81.4 342.1,84C342.1,84.8 342.9,90.3 342.9,91.9C342.9,97 342.9,106.8 343,117.3C340.3,119.1 339.1,120 335.9,120.5L335.9,121.3C335.9,124.2 337,123.5 340.6,123.7C341.4,123.7 343.8,122.9 344.6,122.9L361.3,122.9C362.1,122.2 362.3,122 362.1,120.5C361.3,119.4 357.9,118.1 355,118.1C353.5,117.2 352.6,114.7 352.6,112.6L352.7,87.1C353.4,85.2 353.6,82.9 355.1,80.8C361.4,74.5 369.2,72.8 370.9,73.6C372.6,74.4 374.4,76 377.2,76.7C380.6,76.7 379.6,84 379.6,87.9C379.6,88.7 380.4,91.8 380.4,92.6C380.4,93.4 382,96.5 382,97.3C381.94,98.41 381.66,99.49 381.2,100.5L381.2,115.6C380.4,116.4 380.9,118 378.8,118C378,118.7 375,118.7 372.5,120.4C372.5,123 375.3,121.6 377.2,122C378,122 381.2,122.8 381.9,122.8L398.6,122.8C399.38,122.18 399.7,121.15 399.4,120.2Z" style="fill:rgb(255,255,253);fill-rule:nonzero;"/>
                <path d="M435.4,30.9C432.2,30.9 430.3,33.6 426.6,34.2C423.1,37.6 418.5,39.9 418.5,43C417.8,45.7 417.8,49.3 415.4,49.3C415.4,53.1 413.2,60.9 413.1,60.5C413.1,68.2 413.8,66.3 405.9,73.3C405.9,75.8 407,75.4 412.3,79.7C412.3,82.2 413.1,85.3 414.7,86L414.7,87.6C414.7,88.5 413.1,90.9 413.1,91.7C413.1,100.6 412.8,104.8 413.9,107.6C413.9,109.7 411.1,112 412.3,114C409.5,121.2 406.3,116.9 403.4,121.1L404.2,121.9L418.6,121.9C420.6,121.1 421.3,121.1 425.8,121.1C428.8,121.1 429.2,121.9 436.3,121.9C437,121.1 437.1,122 437.1,118.7C438,117.6 432.2,117.9 429.9,117.9C429.4,117.6 422.1,114.4 422.7,114L422.6,89.3C422.6,87.5 421.5,85.9 421.8,82.9C423,78.3 421.2,74.9 430.6,74.9C431.4,74.9 437,74.1 438.6,74.1C439.73,73.13 440.36,71.69 440.3,70.2C440.3,69.4 438.6,67.8 438.6,67.8L427.4,67.8C426.9,67.8 423.6,66.5 423.3,65.3C423.3,61.6 421.9,55.5 422.5,54.2C422.45,48.86 424.46,43.71 428.1,39.8C429.4,38.7 432.9,39.1 432.9,39C435.9,39 438,41.3 440.9,41.3C441.7,41.3 446.4,42.1 447.3,42.1C449.4,42.1 452.6,38.8 452,37.4C452.1,34.69 452.1,30.89 435.4,30.89L435.4,30.9Z" style="fill:rgb(255,255,253);fill-rule:nonzero;"/>
                <path d="M377,126.79L376.8,126.79L376.5,126.69L375.8,126.69C375.4,126.69 374.9,126.79 374.3,126.79C373.1,126.81 371.9,126.57 370.8,126.09C370.3,127.49 369.7,128.99 369.2,130.39C368.07,133.6 366.22,136.5 363.8,138.89C361.5,141.19 359.3,143.69 356.9,145.79C356.45,145.81 356.03,145.98 355.7,146.29C353,145.69 350.7,144.19 348.4,142.99C347.4,142.49 346.7,142.49 346.1,143.09C345.32,143.88 344.68,144.79 344.2,145.79C343.4,147.59 342.9,147.79 341.2,146.59C340.7,146.19 340.6,146.09 340.2,146.69C339.3,147.89 338.3,148.89 337.3,150.09C337.08,149.91 336.75,149.95 336.57,150.17C336.54,150.21 336.52,150.25 336.5,150.29C336.5,150.39 336.4,150.39 336.4,150.49L336.2,150.79C335.7,150.69 335.3,150.59 334.9,150.99C334.24,150.7 333.52,150.57 332.8,150.59C330.4,150.79 327.9,154.19 328.2,157.19C328.12,157.75 328.08,158.32 328.1,158.89L327.9,159.39C328.01,159.57 328.08,159.78 328.1,159.99C327.99,159.81 327.92,159.6 327.9,159.39L327.7,159.69C327,160.29 327,161.39 326.1,161.79C324.2,161.79 322.7,162.79 321.1,163.39C316.8,164.79 312.4,164.79 308,165.29L305.4,165.29C303.8,164.89 302,165.49 300.4,164.89C299.54,164.24 298.47,163.95 297.4,164.09C295.5,164.49 293.8,163.29 291.9,163.19C289.04,162.98 286.22,162.41 283.5,161.49C280.46,160.48 277.49,159.28 274.6,157.89C272.2,156.79 269.6,155.69 267.1,154.69C265.81,154.09 264.58,153.39 263.4,152.59C259,149.89 255.3,146.29 251.1,143.39C248.2,141.39 246,138.69 243.2,136.59C241.6,135.49 240.7,133.59 239.4,132.09C239.11,131.6 238.69,131.18 238.2,130.89C237.18,129.69 236.24,128.42 235.4,127.09C233.2,126.89 231,126.59 229.2,126.29L227.9,126.09C228.3,126.89 228.7,127.69 229.2,128.49C230.31,130.93 231.69,133.25 233.3,135.39C234.5,137.09 235.6,138.79 236.9,140.39C239.51,143.69 242.32,146.83 245.3,149.79C248.11,152.68 251.19,155.29 254.5,157.59C263.01,163.88 272.65,168.47 282.9,171.09C283.1,171.59 283.4,171.49 283.8,171.39L284.6,171.69C284.9,172.19 285.2,171.99 285.6,171.79L286.5,171.89C286.65,172.11 286.95,172.16 287.17,172.01L287.18,172.01L287.88,172.21C288.5,172.62 289.29,172.7 289.98,172.41C290.7,172.86 291.58,172.97 292.38,172.71C293,173.12 293.74,173.3 294.48,173.21C295.23,173.39 296.01,173.43 296.78,173.31C296.96,173.57 297.3,173.65 297.58,173.51C297.63,173.51 297.67,173.48 297.68,173.43L297.68,173.41C298.8,173.61 299.96,173.61 301.08,173.41C300.86,172.87 300.79,172.28 300.88,171.71C300.84,172.28 300.91,172.86 301.08,173.41L302.58,173.51C302.89,173.73 303.32,173.69 303.58,173.41C304.52,173.51 305.48,173.41 306.38,173.11C310.28,173.81 314.08,172.91 317.78,171.91C319.42,171.81 321.06,171.61 322.68,171.31C326.18,170.21 329.78,169.61 333.18,167.91C336.18,166.41 339.28,165.01 342.18,163.51C345.56,161.67 348.83,159.63 351.98,157.41C355.08,155.31 358.38,153.31 360.48,150.11C360.87,150.03 361.23,149.82 361.48,149.51L361.08,149.21C360.98,149.11 360.88,149.01 360.78,149.01C360.88,149.11 360.98,149.21 361.08,149.21L361.48,149.51C363.32,147.92 365,146.14 366.48,144.21C368.68,141.61 370.78,138.91 372.78,136.11C374.28,133.91 376.08,131.81 376.78,129.01L376.98,128.51C377.58,128.23 378.05,127.73 378.28,127.11C378.1,127.01 377.3,126.9 377,126.8L377,126.79ZM312.2,166.7C312,166.9 311.8,167 311.6,167.2C311.82,167.06 312.03,166.9 312.2,166.7ZM326.2,163.6C326.09,163.49 325.95,163.43 325.8,163.4C325.99,163.08 326.15,162.74 326.3,162.4L325.8,163.4C325.9,163.4 326,163.49 326.2,163.59L326.2,163.6ZM363.1,145.3L362.8,145C362.9,145 363,145.2 363.1,145.3ZM232.4,40.39C232.86,40.47 233.33,40.51 233.8,40.49C235.88,40.41 237.95,40.18 240,39.79C242.28,39.38 244.59,39.11 246.9,38.99C247.7,37.69 248.5,36.49 249.3,35.19C250.28,33.21 251.6,31.41 253.2,29.89C258.7,24.88 264.77,20.56 271.3,17C272.17,16.42 273.29,16.38 274.2,16.9C275.12,17.54 276.37,17.46 277.2,16.7C278.12,15.79 279.32,15.19 280.6,15C281.09,14.94 281.49,14.58 281.6,14.1C283.1,13.2 284.9,13.3 286.4,12.3C287.05,11.88 287.84,11.74 288.6,11.9C290.4,12.4 292,11.8 293.6,11.3C293.9,11.2 294.3,11 294.6,11.2C295.9,11.8 297,11.2 298.1,10.6C300.7,11 301.6,13.5 303.5,14.8C305,15.8 305.9,16.9 305.5,18.8C305.21,20.45 305.61,22.15 306.6,23.5C308,25.5 310.1,26.4 312.1,27.5L312.6,27.9C312.78,28.43 313.13,28.89 313.6,29.2C314.5,31.6 315.3,32.1 317.9,31.5C319.68,31 321.58,31.1 323.3,31.8C325.3,32.6 327.4,33.1 329.6,31.9C332.72,30.47 335.31,28.09 337,25.1C337.22,24.68 337.63,24.38 338.1,24.3C341,23.8 344.7,27 344.7,29.9C344.69,30.13 344.58,30.35 344.4,30.5C343.5,31.2 344.2,31.3 344.7,31.5C346.5,32.2 346.8,33 345.7,34.7C344.82,36.02 344.27,37.53 344.1,39.1C346.2,37.2 346.6,34.5 348.9,33.3C350.1,32.8 349.9,34.4 350.7,34.5C351.9,34.7 351.9,36.5 353.3,36.9C353.6,37 353.1,37.8 352.7,38.2C352.2,38.8 351.5,39.2 351.2,40.1C351.9,40.2 352.3,39.7 352.7,39.4C353.9,38.6 354.8,38.3 354.8,40.2C354.8,41.1 355.2,41 356,40.7C356.8,40.4 357.7,40.4 357.3,41.8C357.1,42.6 357.1,43.2 358.3,43.3C360.1,43.5 360.3,44.6 359.2,46C358.6,46.52 358.12,47.17 357.8,47.9C358.7,47.5 359.3,47.3 359.9,47C360.9,46.6 361.8,45.8 362.8,46.7C362.3,47.6 362.1,48.4 363.4,48.9C363.76,49.09 364.07,49.36 364.3,49.7C363.1,51.5 364.3,51.9 365.7,52.1C365.8,52.1 365.9,52.4 366,52.5C366.15,52.96 366.63,53.22 367.1,53.1C369.6,52.5 371.7,54.1 374,54.4C374.5,54.4 374.8,54.9 375,55.3C374.9,55.8 374.5,56.2 374.7,56.7C374.4,57.5 374.1,58.4 373.8,59.2C372.6,59.7 372.4,60.8 372.2,61.8L372.1,62L372.7,62C373.6,62 374.6,61.9 375.6,61.9C378.77,61.82 381.91,62.58 384.7,64.1C384.5,63.2 384.2,62.3 383.9,61.3C382.7,57.7 381.7,54 379.7,50.6C379.7,50.5 379.6,50.5 379.5,50.4C379.53,49.49 379.17,48.61 378.5,48L378.2,46.8C376.98,43.75 375.33,40.88 373.3,38.3C371.8,36.5 371.1,34.3 369.3,32.7C369.2,32.31 368.89,32 368.5,31.9C368.3,30.3 366.6,30 366,29C363.9,25.6 360.5,23.4 357.7,20.8C353.64,17.09 349.14,13.9 344.3,11.3L342.1,10.2C342,9.8 341.9,9.7 341.5,9.8L340.6,9.3C340.48,8.92 340.08,8.71 339.7,8.8C339.41,8.37 338.91,8.14 338.4,8.2C336.94,7.13 335.27,6.38 333.5,6L329.7,4.8C329.45,4.34 328.92,4.09 328.4,4.2C326.62,3.78 324.88,3.22 323.2,2.5C319.1,1.1 314.8,0.8 310.5,0.2C305.28,-0.25 300.03,0.05 294.9,1.1C291.79,1.08 288.69,1.52 285.7,2.4C283.5,3 281.2,3.1 279.2,4.5L277.5,5.1C275.3,5.7 273.1,6.3 270.9,7.1C267.22,8.58 263.73,10.49 260.5,12.8C256.65,15.15 252.95,17.72 249.4,20.5C242.6,26.07 236.84,32.81 232.4,40.4L232.4,40.39ZM374.5,59.09C374.77,59.2 375.01,59.37 375.2,59.59C375.03,59.35 374.78,59.17 374.5,59.09C374.8,58.49 375.1,57.79 375.4,57.19C375.18,57.86 374.88,58.5 374.5,59.09ZM341.1,11C340.78,10.8 340.48,10.56 340.2,10.3C340.4,10.64 340.72,10.89 341.1,11ZM340.1,10.4C340,10.6 339.9,10.7 339.7,10.7C339.9,10.69 340,10.59 340.1,10.39L340.1,10.4ZM338.9,10.5L338.9,11C338.8,10.85 338.8,10.65 338.9,10.5ZM333.1,7.7C332.79,7.89 332.45,8.03 332.1,8.1C332.45,8.01 332.79,7.87 333.1,7.69L333.1,7.7ZM314.3,2.2C314.29,2.28 314.25,2.35 314.2,2.4C314.26,2.34 314.29,2.27 314.3,2.19L314.3,2.2ZM281,13.5C281.24,13.18 281.51,12.88 281.8,12.6C281.5,12.9 281.3,13.2 281,13.5ZM283.3,17.5C282.7,17.31 282.32,16.72 282.4,16.1L282.4,16C282.8,15.4 283.3,15 284,15.3C284.57,15.48 284.89,16.08 284.72,16.65L284.72,16.7C284.72,16.767 284.687,16.833 284.62,16.9C284.49,17.44 283.95,17.76 283.41,17.63L283.32,17.63C283.42,17.53 283.32,17.53 283.32,17.53L283.3,17.5Z" style="fill:rgb(247,146,34);fill-rule:nonzero;"/>
                <path d="M316.83,43.17L317.24,46.21L319.74,45.87L319.54,44.34L321.26,43.1L320.95,40.81L322.67,39.58L322.36,37.29L323.46,36.5L321.99,34.45L319.65,36.12L319.96,38.41L318.24,39.64L318.55,41.93L316.83,43.17Z" style="fill:white;fill-rule:nonzero;"/>
                <path d="M310.14,46.48L308.24,44.24L309.28,42.49L307.96,40.94L309.01,39.2L307.7,37.65L309.21,35.13L311.38,36.43L310.8,37.39L312.12,38.94L311.07,40.69L312.38,42.24L311.34,43.99L312.07,44.85L310.14,46.48Z" style="fill:white;fill-rule:nonzero;"/>
                <path d="M313.44,93.59L316.81,96.39L320.18,99.17L316.55,101.87L312.04,102.18L307.93,100.41L305.36,96.74L304.75,92.29L306.58,88.13L310.03,90.83L313.44,93.59Z" style="fill:white;fill-rule:nonzero;"/>
                <path d="M305.43,117.95L309.35,123.98L317.6,121.48L316.51,117.85L310.98,119.53L307.05,113.49L300.17,115.58L296.25,109.54L289.36,111.63L285.44,105.59L278.56,107.68L275.41,102.84L272.23,104.91L276.93,112.14L283.81,110.05L287.73,116.09L294.62,114L298.54,120.03L305.43,117.95Z" style="fill:white;fill-rule:nonzero;"/>
                <path d="M293.86,83.45L289.58,83.54L285.29,83.66L280.98,83.56L282.19,87.92L285.54,90.81L289.79,92.02L293.96,90.59L297.09,87.5L298.14,83.19L293.86,83.45Z" style="fill:white;fill-rule:nonzero;"/>
                <path d="M317.64,138.77L314.02,137.26L310.75,136.52L308.09,134.76L305.11,134.22L302.47,133.33L298.82,133.26L296.21,131.23L293.01,131.21L290.19,129.28L287.42,128.89L283.99,128.15L280.82,126.91L278.56,125.29L275.68,125.44L271.9,124.54L269.37,122.72L266.27,122.44L263.21,120.57L260.47,119.34L257.79,118.2L254.58,115.9L253.07,111.52L254.61,107.99L255.54,105.47L256.91,101.59L260.14,99.43L262,97.28L263.66,94.88L263.73,94.719L263.54,94.55L260.52,92.4L259.1,89.97L259.35,86.96L261.13,84.1L263.18,81.45L264.76,78.43L266.59,75.61L268.51,72.85L270.99,71.01L273.95,71.7L276.76,73.92L278.076,74.999L278.77,73.35L281.53,71.07L283.16,68.67L284.93,65.89L286.71,63.28L287.24,62.34C288.44,60.21 290.98,59.29 293.28,60.14L294.47,60.58L296.73,62.11L299.87,61.9L303.37,63.58L305.68,64.94L307.442,65.112L307.38,64.36L308.91,61.59L308.8,58.17L308.838,58.098L308.42,57.46L306.85,54.45L308.22,51.34L310.24,48.6L313.62,48.54L316.96,48.67L319.75,50.91L320.82,54.45L319.72,57.98L317.17,60.61L313.62,61.4L312.695,61.089L312.74,62.51L311.25,65.19L311.389,66.839L311.39,66.84L314.5,66.63L317.75,67.95L320.69,68.86L323.5,69.84L326.64,70.58L331.09,72.73L330.68,77.43L330.72,80.46L331.08,83.78L330.91,87.15L330.89,90.62L330.856,90.75L333.09,90.46L335.48,90.71L337.91,93.96L337.9,97.79L337.83,101.62L337.72,105.45L337.66,109.27L336.52,112.51L333.95,113.89L330.96,113.74L330.704,113.717L330.65,116.43L330.39,119.56L330.42,122.7L330.42,126.58L328.55,129.66L327.67,132.72L325.08,135.95L321.51,137.48L317.63,138.8L317.64,138.77ZM312.52,132.38L315.37,133.03L317.79,134.04L320,133.29L322.32,132.29L323.67,130.61L324.46,127.84L325.99,125.31L325.99,122.69L325.95,119.37L326.22,116.1L326.28,113.09L325.9,110.04L325.33,106.44L326.02,102.89L326.44,99.82L326.57,97.06L325.53,93.57L326.46,90.02L326.48,86.96L326.63,83.9L326.28,80.62L326.23,77.26L326.39,75.38L325.13,74.77L322.12,74.05L319.24,73.04L316.15,72.08L313.75,71.11L310.22,71.35L307.35,69.55L304.24,69.24L301.17,67.44L298.96,66.39L295.46,66.62L292.38,64.53L291.69,64.27C291.45,64.18 291.18,64.27 291.05,64.5L290.37,65.68L288.55,68.34L286.78,71.12L284.77,74.07L282.37,76.06L281.16,78.96L278.75,81.83L276.35,84.31L274.14,86.26L272.74,88.74L271.11,92L268.74,94.21L267.5,97.05L265.37,100.09L263.04,102.78L260.53,104.46L259.64,106.98L258.63,109.71L257.75,111.72L258.24,113.13L259.91,114.32L262.18,115.29L265.33,116.73L267.63,118.14L270.91,118.43L273.71,120.44L276.02,120.99L279.81,120.79L282.88,122.98L285.36,123.95L288.18,124.53L291.76,125.03L294.32,126.78L297.67,126.8L300.31,128.84L303.18,128.9L306.3,129.95L309.7,130.54L312.46,132.37L312.52,132.38Z" style="fill:white;"/>
                <path d="M324.17,50.78L322,49.47L323.45,47.08L325.41,47.32L326.43,45.64L328.39,45.88L329.41,44.2L332.17,44.55L331.86,47.06L330.72,46.91L329.7,48.6L327.74,48.35L326.72,50.04L324.77,49.79L324.17,50.78Z" style="fill:white;fill-rule:nonzero;"/>
            </g>
        </g>
    </g>
</svg>
