<?xml version="1.0" encoding="UTF-8"?><svg xmlns="http://www.w3.org/2000/svg" viewBox="0 0 451.07367 170.5883"><g id="a"><path d="m388.80068,45.84524l-4.55261-15.14888c-.20156-.67082-.66098-1.23229-1.28004-1.5611-.61244-.33548-1.33621-.40289-2.00551-.1956l-31.98218,9.78406c-1.23636.37912-2.01099,1.59832-1.83127,2.8796l1.44932,10.21182c1.97028,8.93591.72939,37.21796-2.17929,49.60802-7.38932,31.47612-28.55821,47.18383-55.27241,41.03641-.1883-.07109-.39067-.1186-.58853-.13816-26.57924-6.4232-38.50336-29.88905-31.12488-61.319,2.90875-12.39035,14.38038-38.27032,20.24577-45.55844l5.72009-8.33735c.73111-1.06745.57963-2.50407-.36126-3.39431L260.75325.71939c-.50985-.48411-1.18801-.74581-1.88305-.71728-.70101.01891-1.36199.31736-1.841.82841l-10.81818,11.54044c-.99012,1.05505-.9395,2.71378.11472,3.70876l9.00376,8.49232c-7.57267,12.2375-17.94769,35.37857-21.47991,50.42467-10.78091,45.9232,9.7369,83.2947,51.05257,92.99395,41.31567,9.69925,76.32017-14.63787,87.10108-60.56107,3.53221-15.04609,4.53599-40.38715,3.20274-54.71541l11.84221-3.59853c1.38363-.423,2.16941-1.88506,1.75251-3.27042Zm-121.5467-17.78547c-.76624-1.23265-.38546-2.85463.84925-3.61754,1.23258-.76594,2.85456-.38516,3.61754.84925.76624,1.23265.38546,2.85463-.84925,3.61754-1.23265.76624-2.85463.38546-3.61754-.84925Zm-16.64702,98.66924c-1.23265.76624-2.85463.38546-3.61754-.84925-.76624-1.23265-.38546-2.85464.84925-3.61754,1.23265-.76624,2.85463-.38546,3.61754.84925.76593,1.23259.38516,2.85457-.84925,3.61754Zm7.83109,12.63592c-1.23535.7656-2.85464.38546-3.61754-.84925-.76594-1.23258-.38516-2.85457.84925-3.61754,1.23258-.76594,2.85216-.38572,3.61754.84925.76624,1.23265.38546,2.85464-.84925,3.61754Zm13.54858,11.27885c-1.23535.7656-2.85464.38546-3.61754-.84925-.76624-1.23265-.38546-2.85464.84925-3.61754,1.23265-.76624,2.85223-.38603,3.61754.84925.76624,1.23266.38546,2.85465-.84925,3.61754Zm17.30326,6.78323c-1.23471.76291-2.854.38276-3.61754-.84925-.7656-1.23535-.38546-2.85464.84925-3.61754,1.23258-.76594,2.85216-.38572,3.61754.84925.76624,1.23265.3861,2.85194-.84925,3.61754Zm18.51445,1.62532c-1.23535.7656-2.85464.38546-3.61754-.84925-.76624-1.23265-.38546-2.85464.84925-3.61754,1.23265-.76624,2.85224-.38602,3.61754.84925.76593,1.23259.38516,2.85457-.84925,3.61754Zm17.15223-4.07154c-1.23535.7656-2.85464.38546-3.61754-.84925-.76624-1.23265-.38546-2.85464.84925-3.61754,1.23258-.76594,2.85217-.38572,3.61754.84925.76594,1.23258.38516,2.85457-.84925,3.61754Zm12.63593-7.8311c-1.23535.7656-2.85464.38546-3.61754-.84925-.76594-1.23258-.38516-2.85457.84925-3.61754,1.23265-.76624,2.85224-.38602,3.61754.84925.76623,1.23266.38545,2.85464-.84925,3.61754Zm25.38146-96.61874c-1.23505.76567-2.85464.38546-3.61754-.84925-.76594-1.23258-.38516-2.85456.84925-3.61754,1.23258-.76594,2.85217-.38572,3.61754.84925.76624,1.23265.38546,2.85463-.84925,3.61754Z" style="fill:#ff9318;"/></g><g id="b"><path d="m62,64.86189c-2.9,4.8.1,7.1-2.8,10.5,0,.8-3.5,2.8-3.5,3.6-1.9,4.3-1.8,4.8-8.4,6.3-.7,0-3.5,2-4.2,2-1.9-.7-6.5,1.6-12.7-1.3-2.6,0-2.2-.6-2.2-3.5-.6-1,4.2-.7,6.4-.7,6.4,0,11-4.5,13.3-9.3v-14c0-2.2-1.7-4.3-5.7-8.4-2.9-3-7.8-3.5-8.5-4.2-.9,0-5.8-.9-6.3-.7-.1-.9-2.7,1.4-4.2,1.4-3.6,1.2-1.1,10.8-2.8,12.8.3,1.8,1.4,3.7,1.4,5.6-1.07125,2.16858-1.5212,4.5914-1.3,7,0,.7,1.4,2.8,1.4,3.5v5.6c0,.6.7,2.8.7,3.5v3.6c0,1.3-.6,12.6-.6,14.1.1,8.9-.4,13.6,2.2,14.1h5s1.4.7,1.4,1.4c1.5,2.4-2.2,2.1-7,2.1-.8,0-2.8.7-3.6.7-2.9-.6-19.3,1.6-18.3-2.1-.7-2.7,3.5-2,5.6-2,3.2-1.5,3-5.9,4.9-9.3.2-.8,0-1.3-.8-2.8.2-.3-.6-.9.8-3.5.3-3.7-.8-5.5-.8-7.8,0-3.3.2-7.3-.7-9.1-.1-9.5,1.4-15.4,1.4-22.6-.7-2.49998-1.3-6.89999-2.2-8.49998,1.1-3.7-1.8-5.1-2.8-5.6-2.7-.2-6.3-2.5-7.1-2.8v-1.3h7.8c-2.6-1,15-.7,21.9-.7.7,0,7-.8,7.8-.8,4.5.1,8-.9,14.1,4.2.7,0,2.8,2.8,3.5,2.8,1.5.8,3.6,1.6,3.5,2.1-.4,4.7,3.4,9.2,3.4,14.1Zm49-.4c-1.6,0-6-1.1-9,3.3l.8.8c2.9,0,6.8,2.7,7.4,2.5,1-1,1.6,10,1.6,14.7,0,5.3,1.3,10.6.8,11.4,0,2.9-2.8,6.5-1.6,8.2,0,1.9-2.7,5-2.5,4.9-6,6-8.2,1.4-13.9,4.9h-3.3c-3.2,0-6.4-3-8.1-4.8,0-4.7-1.6-10.4-1.6-13.1,0-3.5-.4-8.8.8-10.6,0-1,1.1-12.3.8-13,0-4.6-1.1-5.5-8.1-9-6.9,0-10.6-.1-9,4.1l.8.9c.9,0,4.2,2.4,5,2.4,1.1,1.5,2,10.2,1.6,10.6-1.2.2-.8,7.2-.8,10.6v9c0,3.5,1.7,7.1,1.7,8.9,0,.8,1.6,3.3,1.6,3.3,6.3,9.1,11.7,6.2,13.1,7.3,4.2,0,7.2-1.6,11.4-1.6.8,0,3.3-3.3,3.3-3.3.8,0,3.3-1.7,4.1-1.7-.3,0,4.1-.7,4.1,1.7,1.7,2.6,2.4,3.9,4.1,3.3,1.6,0,5.1-2.5,8.1-2.5,4.60001-1.1,6.8-1.3,5.8-3.3-.2.2-2.4-2.5-4.1-2.5-2.1-.4-3.9-.7-5-2.3v-6.5c0-.8.9-4.1.9-5,0-2-1.6-4.3-.9-6.4,0-4.6,1.7-7.7,1.7-12.3-1.11403-3.38914-1.68771-6.93249-1.7-10.5-3.4-3.6-8.8-3.6-9.9-4.4Zm83.69999,31.1s-.8,3.3-1.60001,4.1c0,.8-2.5,4.1-2.5,4.8v3.2c-4.7,11.5-20.2,12-33.89999,12.3-.89999,0-2.5-1.6-3.3-1.6-1.8-.1-3.7-1.7-5.60001-3.1h-.8c-.8,0-4,3.2-4.8,3.2-1.2639-.57225-2.16258-1.73305-2.39999-3.1,0-2.4-.89999-2.5-.89999-4.1l.89999-3.4c.2-4.1-.89999-5.6-.89999-8,0-.8.89999-4.1.89999-4.9.2-6.8-.89999-12.2-.89999-17,0-.8.89999-7.2.89999-8.2,0-5.5-.5-15.6.8-16,.2-2.4-.8-4.3-.8-6.7-1.2-3.4,3.89999-3.3-8.3-13.6v-1.6c1.60001-.6,6.5-4.2,9.8-4.2,6.39999,0,8.89999.2,8.89999,6.5.7.3-.89999,7.7-.89999,12.1,0,6.3.3,16.2-.8,17,.2,4.7,2.10001,4.1,3.3,4.1.8,0,4.8-1.6,5.60001-1.6,3.39999,0,8.8-1.7,12.2-1.7,3-.3,5.3.8,8,1.7,4.2-.5,5.8,2.6,9,5.7l.8,1.6c8.00002,1.60001,7.30002,20,7.30002,22.5h-.00002Zm-15.49998-16.2c0-.8-3.2-3.2-3.2-3.9-2.39999-4.6-8.10001-4.4-9.7-5.8-2,.7-10.5-1.6-13.8,1.8.10001-.2-2.39999,2.8-2.39999,4.8,0,2.4-.89999,13.8-.89999,16.2v.8c0,.8.89999,4,.89999,4.8,0,6.7-.3,12.6,3.2,15.3,3.3,1.7,10.60001,2.4,11.39999,2.4,9.5-4.1,18.60001-6.1,18.5-20.3.2-12.80002-2.40001-11.10002-4-16.10002Zm83.59999-26.6c.48376-1.51902.72012-3.10594.70001-4.7,0-1.1-4.89999-4.6-6.79999-4.6-4.10001-.8-6.2-.8-7.3-2.7h-2.7c-5.10001,0-11.3,2-16,1.4-1.2,1.3-4.2,2-6.8,2-1.60001,1.1-7.60001,4.3-8,4.6l-9.3,9.4c-1.7,3.2-4.7,7.4-4.7,10,0,.7-1.89999,3.4-1.89999,4.1-.2.1-.7,7.9-.7,8.7s.7,4.1.7,4.7v4.6c0,2,2.10001,3.8,1.89999,6.1,0,2.7,2.39999,3.7,2,5.3,0,2.1,11.89999,12.3,12.10001,11.4,1.10001,1.2,2.39999,2.6,3.39999,2.7.7,0,5.3,1.9,6,1.9,1.7,0,7.3,1.3,11.39999,1.3l1.39999.7h8c11.59999,0,13.40001-2.3,15.40001-3.3.89999-1.1,1.70001-5,2-5.4.5-2.8,1.20001-5.2,1.20001-6.7,0-2-1-3.3-1.20001-2.7-3.60001,0-5.10001,5.1-6.10001,6l-3.39999,3.4c-.7,0-3.89999,2-4.60001,2-2,.8-2.8,2-6.10001,2-4.39999,0-3.3.9-8.7.7-3-.8-8.10001-.8-11.39999-4s-4.3-1.8-9.39999-16c0-2-2.5-3.7-1.39999-6.1-.8-2.4-.7-3.5-.7-12.1,0-3.2,1.3-5.1,1.3-8,1.39999-2.6,1.8-5.1,2.7-8,0-.7,2.7-2.7,2.7-3.4.7-.7,3.3-5.3,3.89999-6-.2-.6,6.39999-4.2,6.10001-4.1,6.39999-1.5,4.10001-2.1,12.10001-1.9,1.39999,0,5.3.7,6,.7,3.7,1.9,11.09999,5.4,11.40001,9.3,4.10001,4,3.39999,1,4.10001,2,.60001-.3.89999-1.2,1.29999-2-.20004-1.1-.50003-2.2-.60004-3.3Zm67.89999,42.6c-1.79999,5.2.10001,6.1-7,13.2-3.5,3.5-4.60001,3.8-7.79999,7-4.60001,1.4-5.89999.9-10.79999,4.8-5.57697-.32581-11.08887-1.3677-16.39999-3.1-2.79999,0-4.10001-3.5-11.60001-8.5-2.10001-1.8-6.20001-10.7-6.20001-17-.89999-.8,1.60001-3.2,1.60001-9.4,0-2,2.39999-3.7,3.79999-5.4-.89999-2.2,7.10001-11,14-13.3h14.79999c.70001,1.1,4.5.8,7,.8.10001.6,3.20001.9,5.39999,3.2,2.39999,0,5.29999,5.1,7.79999,7.8.79999.8,2.39999,5.4,3.20001,6.2.10001,1,2.29999,7.9,2.29999,10.8-.09998,2.4-.09998,2.6-.09998,2.9Zm-14-18.6c-1.60001-1.7-9.79999-11.8-13.20001-11.7-2.39999,1-5.5.8-8.60001.8-3.04199,2.02662-5.85806,4.37334-8.39999,7-2.10001,3.8-2,9.2-3.89999,10.2,0,4.1.39999,9.6-.79999,11.6.39999,2.1.60001,4.1.79999,6.2,0,8.9,3.60001,6.3,4.60001,8.6l1.60001,3.2c9.60001,4.8,9.10001,3.8,14,3.8,1,1,7.60001-5,11.70001-7,2.10001,0,5-10.4,5.39999-10.8.60001-1.2-.79999-10.8-.79999-16.3-.46799-1.99212-1.28018-3.88725-2.39999-5.6h-.00003Zm81.70001,40.2l-.79999-.8c-.79999,0-5.5-3.1-6.29999-3.1-1.39999-.8-1.89999-3.8-2.39999-4.7,0-2.2,1.60001-9.6,1.5-15.9-.6593-1.47397-.93451-3.09091-.79999-4.7l.79999-2.4c-.98318-2.79897-1.52304-5.73437-1.60001-8.7.60001-1-3.20001-4.7-3.20001-7.2-6.10001-8.1-13-4.7-17.5-5.5-1.89999.8-3.29999,2.5-7.10001,3.2-3,.6-4.70001,3.3-7.89999,3.2-1.39999-1.2.10001-6.3-2.39999-6.3l-1.70001-.8c-1-.3-3,2.7-4.70001,4.8-3.39999,3.4-4.60001,4.9-8.70001,7.1,0,2.5,1.20001,3,5.5,5.6,0,.8.79999,6.3.79999,7.9,0,5.1,0,14.9.10001,25.4-2.70001,1.8-3.89999,2.7-7.10001,3.2v.8c0,2.9,1.10001,2.2,4.70001,2.4.79999,0,3.20001-.8,4-.8h16.70001c.79999-.7,1-.9.79999-2.4-.79999-1.1-4.20001-2.4-7.10001-2.4-1.5-.9-2.39999-3.4-2.39999-5.5l.10001-25.5c.70001-1.9.89999-4.2,2.39999-6.3,6.29999-6.3,14.10001-8,15.79999-7.2s3.5,2.4,6.29999,3.1c3.39999,0,2.39999,7.3,2.39999,11.2,0,.8.79999,3.9.79999,4.7s1.60001,3.9,1.60001,4.7c-.06424,1.1073-.3356,2.19273-.79999,3.2v15.1c-.79999.8-.29999,2.4-2.39999,2.4-.79999.7-3.79999.7-6.29999,2.4,0,2.6,2.79999,1.2,4.70001,1.6.79999,0,4,.8,4.70001.8h16.70001c.78448-.61386,1.1037-1.65131.79999-2.6v.00002Zm36-89.3c-3.20001,0-5.10001,2.7-8.79999,3.3-3.5,3.4-8.10001,5.7-8.10001,8.8-.70001,2.7-.70001,6.3-3.10001,6.3,0,3.8-2.20001,11.6-2.29999,11.2,0,7.7.70001,5.8-7.20001,12.8,0,2.5,1.10001,2.1,6.39999,6.4,0,2.5.79999,5.6,2.39999,6.3v1.6c0,.9-1.60001,3.3-1.60001,4.1,0,8.9-.29999,13.1.79999,15.9,0,2.1-2.79999,4.4-1.60001,6.4-2.79999,7.2-6,2.9-8.89999,7.1l.79999.8h14.39999c2-.8,2.70001-.8,7.20001-.8,3,0,3.39999.8,10.5.8.70001-.8.79999.1.79999-3.2.89999-1.1-4.89999-.8-7.20001-.8-.5-.3-7.79999-3.5-7.20001-3.9l-.10001-24.7c0-1.8-1.10001-3.4-.79999-6.4,1.20001-4.6-.60001-8,8.79999-8,.79999,0,6.39999-.8,8-.8,1.13214-.97246,1.75818-2.40869,1.70001-3.9,0-.8-1.70001-2.4-1.70001-2.4h-11.19992c-.5,0-3.79999-1.3-4.10001-2.5,0-3.7-1.39999-9.8-.79999-11.1-.04633-5.34003,1.9581-10.49428,5.60001-14.4,1.29999-1.1,4.79999-.7,4.79999-.8,3,0,5.10001,2.3,8,2.3.79999,0,5.5.8,6.39999.8,2.10001,0,5.29999-3.3,4.70001-4.7.10001-2.7.10001-6.5-16.60001-6.5Z" style="fill:#fffffc;"/></g><g id="c"><path d="m7.2124,147.34123h1.72168c.25977,0,.48486-.00977.67676-.03027.19092-.02051.36523-.06152.52246-.12305s.3042-.14062.44092-.23633c.13623-.09473.27979-.21777.43066-.36914l11.70508-12.0332c.21875-.21875.42041-.37207.60498-.46094s.41309-.13379.68652-.13379h1.70166l-12.66895,13.01758c-.25977.27344-.48877.48535-.68652.63574-.19873.15039-.42041.27344-.6665.36914.28711.08203.54346.20801.76855.37891.22559.1709.45459.39355.68701.66602l13.36572,13.94043h-1.70117c-.35547,0-.6084-.05078-.75879-.15332s-.30713-.23633-.47119-.40039l-12.27979-12.5459c-.15039-.15039-.28662-.28027-.40967-.38965s-.26367-.20117-.42041-.27637c-.15723-.0752-.34521-.12988-.56396-.16406s-.4917-.05176-.81982-.05176h-1.86523v13.98145h-2.09131v-29.04883h2.09131v13.42773Z" style="fill:#fff;"/><path d="m51.34863,162.96232h-1.61963c-.19141,0-.34863-.05078-.47168-.15332s-.21875-.23633-.28711-.40039l-3.42334-8.4248h-14.24756l-3.40283,8.4248c-.05469.15039-.15039.28027-.28711.38965s-.30078.16406-.4917.16406h-1.59912l11.86914-29.00781h2.09131l11.86963,29.00781Zm-19.41357-10.53711h12.99707l-5.9248-14.65723c-.0957-.23242-.19141-.49512-.28711-.78906s-.19141-.60547-.28662-.93262c-.0957.32715-.19189.63867-.28711.93262-.0957.29395-.19141.56348-.28711.80957l-5.92432,14.63672Z" style="fill:#fff;"/><path d="m55.36523,134.02678c.10938.04785.22559.15332.34863.31738l18.77832,25.13281c-.04102-.40918-.06152-.80566-.06152-1.18848v-24.33398h1.84473v29.00781h-1.00439c-.31445,0-.56738-.13672-.7583-.41016l-18.86035-25.17383c.04102.41016.06152.7998.06152,1.16895v24.41504h-1.82422v-29.00781h1.0249c.19092,0,.34131.02441.45068.07227Z" style="fill:#fff;"/><path d="m96.87793,137.48088c-.12305.23242-.30078.34863-.5332.34863-.17822,0-.4082-.12598-.68896-.37988-.28125-.25195-.66162-.53223-1.1416-.83984s-1.07959-.59082-1.79932-.85059-1.60742-.38965-2.66309-.38965c-1.05615,0-1.98486.15039-2.78711.45117-.80176.30078-1.47363.70996-2.01562,1.22949-.5415.51953-.95264,1.12109-1.23389,1.80371-.28125.68359-.42139,1.40137-.42139,2.15332,0,.9834.2085,1.79688.62598,2.43945s.96826,1.18848,1.65283,1.63965c.68408.45117,1.46094.83008,2.33008,1.1377.86865.30762,1.76172.6123,2.67871.91211.91699.30078,1.81006.63281,2.67871.99414.86914.3623,1.646.81738,2.33008,1.36328.68408.54688,1.23535,1.21973,1.65283,2.01953s.62646,1.79395.62646,2.98242c0,1.2168-.2085,2.36133-.62549,3.43359-.41699,1.07324-1.02148,2.00586-1.81396,2.79883-.79297.79297-1.76318,1.41797-2.91113,1.87598-1.14795.45703-2.45996.68652-3.93604.68652-1.91357,0-3.56055-.33789-4.94043-1.01465-1.38086-.67676-2.59033-1.60254-3.62842-2.77832l.57373-.90137c.16406-.20508.35547-.30762.57422-.30762.12305,0,.28027.08203.47217.24609.19141.16406.42383.36523.69775.60449.27344.23926.60205.49902.98535.7793s.82812.54004,1.33447.77832c.50586.23926,1.08789.44141,1.74463.60547.65723.16406,1.40283.24609,2.23779.24609,1.14941,0,2.17627-.1748,3.07959-.52344s1.66602-.82324,2.28857-1.4248c.62305-.60059,1.09814-1.31445,1.42676-2.1416s.49268-1.71191.49268-2.65527c0-1.02441-.20898-1.86816-.62598-2.53125-.41797-.66309-.96875-1.2168-1.65283-1.66113-.68408-.44336-1.46094-.81641-2.33008-1.11719-.86914-.2998-1.76221-.59473-2.67871-.88086-.91699-.28711-1.81006-.6084-2.6792-.96387s-1.64551-.80957-2.33008-1.36328-1.23535-1.24316-1.65283-2.07031c-.41699-.82715-.62549-1.8623-.62549-3.10547,0-.9707.18408-1.90723.55371-2.80859.36963-.90234.91016-1.69824,1.62207-2.38867.71143-.68945,1.59082-1.24316,2.63818-1.66016,1.04639-.41699,2.24072-.62598,3.58203-.62598,1.50537,0,2.85693.23926,4.0542.71777s2.28857,1.20996,3.27295,2.19336l-.4917.94336Z" style="fill:#fff;"/><path d="m124.04053,162.96232h-1.61963c-.19141,0-.34863-.05078-.47168-.15332s-.21875-.23633-.28711-.40039l-3.42334-8.4248h-14.24756l-3.40283,8.4248c-.05469.15039-.15039.28027-.28711.38965s-.30078.16406-.4917.16406h-1.59912l11.86914-29.00781h2.09131l11.86963,29.00781Zm-19.41357-10.53711h12.99707l-5.9248-14.65723c-.0957-.23242-.19141-.49512-.28711-.78906s-.19141-.60547-.28662-.93262c-.0957.32715-.19189.63867-.28711.93262-.0957.29395-.19141.56348-.28711.80957l-5.92432,14.63672Z" style="fill:#fff;"/><path d="m140.62402,137.48088c-.12305.23242-.30078.34863-.5332.34863-.17822,0-.4082-.12598-.68896-.37988-.28125-.25195-.66162-.53223-1.1416-.83984s-1.07959-.59082-1.79932-.85059-1.60742-.38965-2.66309-.38965c-1.05615,0-1.98486.15039-2.78711.45117-.80176.30078-1.47363.70996-2.01562,1.22949-.5415.51953-.95264,1.12109-1.23389,1.80371-.28125.68359-.42139,1.40137-.42139,2.15332,0,.9834.2085,1.79688.62598,2.43945s.96826,1.18848,1.65283,1.63965c.68408.45117,1.46094.83008,2.33008,1.1377.86865.30762,1.76172.6123,2.67871.91211.91699.30078,1.81006.63281,2.67871.99414.86914.3623,1.646.81738,2.33008,1.36328.68408.54688,1.23535,1.21973,1.65283,2.01953s.62646,1.79395.62646,2.98242c0,1.2168-.2085,2.36133-.62549,3.43359-.41699,1.07324-1.02148,2.00586-1.81396,2.79883-.79297.79297-1.76318,1.41797-2.91113,1.87598-1.14795.45703-2.45996.68652-3.93604.68652-1.91357,0-3.56055-.33789-4.94043-1.01465-1.38086-.67676-2.59033-1.60254-3.62842-2.77832l.57373-.90137c.16406-.20508.35547-.30762.57422-.30762.12305,0,.28027.08203.47217.24609.19141.16406.42383.36523.69775.60449.27344.23926.60205.49902.98535.7793s.82812.54004,1.33447.77832c.50586.23926,1.08789.44141,1.74463.60547.65723.16406,1.40283.24609,2.23779.24609,1.14941,0,2.17627-.1748,3.07959-.52344s1.66602-.82324,2.28857-1.4248c.62305-.60059,1.09814-1.31445,1.42676-2.1416s.49268-1.71191.49268-2.65527c0-1.02441-.20898-1.86816-.62598-2.53125-.41797-.66309-.96875-1.2168-1.65283-1.66113-.68408-.44336-1.46094-.81641-2.33008-1.11719-.86914-.2998-1.76221-.59473-2.67871-.88086-.91699-.28711-1.81006-.6084-2.6792-.96387s-1.64551-.80957-2.33008-1.36328-1.23535-1.24316-1.65283-2.07031c-.41699-.82715-.62549-1.8623-.62549-3.10547,0-.9707.18408-1.90723.55371-2.80859.36963-.90234.91016-1.69824,1.62207-2.38867.71143-.68945,1.59082-1.24316,2.63818-1.66016,1.04639-.41699,2.24072-.62598,3.58203-.62598,1.50537,0,2.85693.23926,4.0542.71777s2.28857,1.20996,3.27295,2.19336l-.4917.94336Z" style="fill:#fff;"/><path d="m172.89014,158.08342c.13672,0,.25293.04785.34863.14355l.81982.88184c-.60156.6416-1.25732,1.21973-1.96777,1.73145-.71094.5127-1.48633.9502-2.32666,1.3125-.84082.3623-1.76318.64258-2.76758.83984-1.00439.19824-2.1084.29785-3.31104.29785-2.00879,0-3.85059-.35156-5.52441-1.05566-1.67432-.7041-3.10938-1.70215-4.30518-2.99316-1.1958-1.29199-2.12891-2.85254-2.79834-4.68457-.66943-1.83105-1.00439-3.86719-1.00439-6.1084,0-2.2002.34521-4.20996,1.03516-6.02734s1.66064-3.37891,2.91113-4.68457c1.25049-1.30469,2.74707-2.31641,4.48926-3.0332,1.74268-.71777,3.66602-1.07715,5.771-1.07715,1.05225,0,2.01562.0791,2.89062.23633.87451.15723,1.69092.38281,2.44971.67676.7583.29395,1.47217.65918,2.14209,1.09668.66943.4375,1.32568.94238,1.96826,1.5166l-.63574.92285c-.10938.16406-.28027.24609-.5127.24609-.12256,0-.28027-.07227-.47119-.21582-.19141-.14355-.43408-.32031-.72803-.5332-.29395-.21094-.64893-.44336-1.06592-.69629s-.91211-.48535-1.48633-.69727c-.57373-.21191-1.23682-.38965-1.98828-.5332-.75195-.14355-1.60596-.21484-2.5625-.21484-1.76318,0-3.38232.30371-4.8584.91211s-2.74707,1.47559-3.81299,2.60352c-1.06592,1.12695-1.89648,2.49414-2.49072,4.09961-.59473,1.60645-.89209,3.40723-.89209,5.40234,0,2.0498.29395,3.88086.88184,5.49414.5874,1.6123,1.40039,2.97559,2.43945,4.08887,1.03809,1.11426,2.26514,1.96875,3.67969,2.5625,1.41455.59473,2.94824.89258,4.60205.89258,1.03857,0,1.96484-.06836,2.77783-.20508s1.56104-.3418,2.24463-.61523,1.31885-.6084,1.90674-1.00488c.5874-.39551,1.16846-.86035,1.74268-1.39355.06787-.05469.13281-.09961.19434-.13379.06152-.0332.1333-.05078.21533-.05078Z" style="fill:#fff;"/><path d="m181.47998,162.96232h-2.11182v-29.00781h2.11182v29.00781Z" style="fill:#fff;"/><path d="m207.76025,133.95451v1.78418h-10.18848v27.22363h-2.09082v-27.22363h-10.25v-1.78418h22.5293Z" style="fill:#fff;"/><path d="m219.77295,150.99064v11.97168h-2.11133v-11.97168l-10.72168-17.03613h1.82422c.19141,0,.34473.04492.46094.13379s.22949.21484.33887.37891l8.30273,13.3252c.19043.31445.35449.61816.49121.91211s.25977.5918.36914.8916c.10938-.2998.23242-.59766.36914-.8916s.30078-.59766.49219-.91211l8.28174-13.3252c.08203-.15039.18457-.27344.30762-.36914.12207-.09473.2793-.14355.4707-.14355h1.8457l-10.72119,17.03613Z" style="fill:#fff;"/></g></svg>