<?xml version="1.0" encoding="UTF-8" standalone="no"?>
<!DOCTYPE svg PUBLIC "-//W3C//DTD SVG 1.1//EN" "http://www.w3.org/Graphics/SVG/1.1/DTD/svg11.dtd">
<svg width="100%" height="100%" viewBox="0 0 452 171" version="1.1" xmlns="http://www.w3.org/2000/svg" xmlns:xlink="http://www.w3.org/1999/xlink" xml:space="preserve" xmlns:serif="http://www.serif.com/" style="fill-rule:evenodd;clip-rule:evenodd;stroke-linejoin:round;stroke-miterlimit:2;">
    <g id="noun-time-123915.svg" transform="matrix(0.136667,0,0,0.136667,300.88,92.7315)">
        <g transform="matrix(1,0,0,1,-600,-600)">
            <g>
                <path d="M618.1,378.45C618.1,384.102 613.479,388.723 607.838,388.723L605.197,388.723C599.533,388.723 594.924,384.102 594.924,378.45L594.928,318.723C594.928,313.071 599.549,308.45 605.201,308.45L607.842,308.45C613.506,308.45 618.104,313.071 618.104,318.723L618.1,378.45Z" style="fill:rgb(255,147,24);fill-rule:nonzero;"/>
                <path d="M725.75,416.76C722.965,421.666 716.652,423.385 711.758,420.565L709.348,419.186C704.453,416.377 702.735,410.065 705.555,405.17L735.231,353.365C738.039,348.47 744.352,346.752 749.247,349.56L751.622,350.927C756.516,353.736 758.247,360.048 755.427,364.954L725.75,416.76Z" style="fill:rgb(255,147,24);fill-rule:nonzero;"/>
                <path d="M799.88,503.47C795.009,506.326 788.685,504.658 785.829,499.775L784.509,497.458C781.665,492.576 783.321,486.239 788.228,483.396L839.743,453.326C844.603,450.483 850.95,452.139 853.805,457.01L855.114,459.268C857.97,464.139 856.313,470.463 851.43,473.319L799.88,503.47Z" style="fill:rgb(255,147,24);fill-rule:nonzero;"/>
                <path d="M821.07,615.59C815.406,615.637 810.773,611.055 810.75,605.391L810.75,602.739C810.727,597.086 815.32,592.43 820.984,592.395L880.589,591.949C886.253,591.914 890.909,596.496 890.956,602.148L890.991,604.766C891.038,610.43 886.468,615.075 880.803,615.121L821.07,615.59Z" style="fill:rgb(255,147,24);fill-rule:nonzero;"/>
                <path d="M783.68,723.5C778.758,720.754 776.985,714.441 779.77,709.531L781.078,707.203C783.84,702.281 790.176,700.508 795.082,703.293L847.102,732.551C852.024,735.312 853.809,741.621 851.028,746.543L849.739,748.797C846.977,753.719 840.669,755.504 835.747,752.734L783.68,723.5Z" style="fill:rgb(255,147,24);fill-rule:nonzero;"/>
                <path d="M697.54,798.35C694.649,793.514 696.267,787.19 701.13,784.311L703.481,782.944C708.329,780.077 714.711,781.698 717.594,786.557L748.098,837.784C750.989,842.62 749.395,848.991 744.548,851.897L742.29,853.229C737.442,856.131 731.095,854.538 728.2,849.69L697.54,798.35Z" style="fill:rgb(255,147,24);fill-rule:nonzero;"/>
                <path d="M585.64,820.48C585.542,814.828 590.093,810.171 595.745,810.089L598.444,810.042C604.097,809.972 608.764,814.53 608.874,820.183L609.823,879.835C609.933,885.487 605.382,890.19 599.729,890.288L597.054,890.335C591.401,890.456 586.722,885.933 586.624,880.28L585.64,820.48Z" style="fill:rgb(255,147,24);fill-rule:nonzero;"/>
                <path d="M477.43,784.04C480.164,779.083 486.43,777.282 491.375,780.021L493.703,781.306C498.648,784.052 500.445,790.329 497.723,795.275L468.899,847.463C466.164,852.408 459.875,854.221 454.93,851.494L452.672,850.248C447.727,847.513 445.902,841.248 448.629,836.303L477.43,784.04Z" style="fill:rgb(255,147,24);fill-rule:nonzero;"/>
                <path d="M401.86,698.59C406.684,695.676 413.02,697.223 415.922,702.071L417.289,704.34C420.192,709.188 418.61,715.547 413.785,718.477L362.785,749.387C357.961,752.317 351.613,750.743 348.683,745.918L347.328,743.66C344.398,738.813 345.961,732.453 350.797,729.523L401.86,698.59Z" style="fill:rgb(255,147,24);fill-rule:nonzero;"/>
                <path d="M378.78,586.81C384.432,586.665 389.135,591.177 389.233,596.818L389.268,599.412C389.366,605.064 384.827,609.791 379.174,609.935L319.545,611.447C313.893,611.591 309.178,607.091 309.057,601.439L309.01,598.821C308.889,593.181 313.424,588.442 319.065,588.298L378.78,586.81Z" style="fill:rgb(255,147,24);fill-rule:nonzero;"/>
                <path d="M414.37,478.33C419.351,481.018 421.186,487.271 418.487,492.225L417.226,494.53C414.515,499.487 408.226,501.334 403.257,498.647L350.816,470.256C345.847,467.568 343.976,461.291 346.663,456.322L347.874,454.08C350.562,449.111 356.827,447.24 361.796,449.927L414.37,478.33Z" style="fill:rgb(255,147,24);fill-rule:nonzero;"/>
                <path d="M499.16,402.01C502.137,406.823 500.625,413.17 495.812,416.123L493.57,417.49C488.758,420.455 482.386,418.932 479.41,414.119L448.078,363.373C445.102,358.561 446.613,352.201 451.414,349.236L453.645,347.857C458.445,344.881 464.817,346.392 467.793,351.205L499.16,402.01Z" style="fill:rgb(255,147,24);fill-rule:nonzero;"/>
                <path d="M662.18,594.01C662.18,625.354 636.825,650.756 605.504,650.756C595.809,650.756 586.676,648.295 578.707,644.061L550.004,672.694L530.695,653.448L558.437,625.706C552.339,616.62 548.742,605.761 548.742,594.015C548.742,562.742 574.183,537.339 605.488,537.339C618.004,537.339 629.574,541.37 638.883,548.273L788.263,410.873L795.642,418.217L657.242,570.766C660.374,577.891 662.187,585.728 662.187,594.008L662.18,594.01Z" style="fill:rgb(255,147,24);fill-rule:nonzero;"/>
                <path d="M1051.6,591.84C1051.05,549.395 1044.25,507.793 1032.25,468.14L1106.08,410.312L1051.05,301.972L960.39,327.929C935.359,294.57 905.648,264.652 872.046,239.273L897.714,148.902L789.964,93.882L731.788,167.73C712.143,161.742 691.577,157.16 670.804,153.75C649.706,150.328 628.902,148.625 608.378,148.074L575.89,59.992L456.16,78.785L452.488,172.84C412.84,186.531 375.218,205.938 341.008,229.84L262.899,177.125L177.087,262.902L229.54,341.011C205.899,374.921 186.52,412.269 172.864,452.751L78.786,456.157L59.958,575.877L148.06,608.385C148.9,650.889 155.439,692.518 167.693,731.765L93.591,789.999L148.9,897.989L239.271,872.274C264.638,905.669 294.291,935.297 327.615,960.704L301.959,1051.06L410.269,1106.05L468.109,1032.21C488.078,1038.24 508.308,1042.78 529.406,1046.23C550.215,1049.6 571.035,1051.29 591.804,1051.58L624.066,1139.99L744.056,1121.21L747.501,1027.09C787.364,1013.42 824.731,994.051 858.671,970.109L936.769,1022.52L1022.58,936.711L970.14,859.227C994.054,825.243 1013.15,787.957 1027.14,747.497L1120.88,744.04L1140.01,624.38L1051.6,591.84ZM941.6,654.278C911.659,842.938 734.66,971.518 545.99,941.558C357.26,911.941 228.45,734.688 258.36,545.968C288.274,357.268 465.6,228.418 654.27,258.358C842.67,288.288 971.54,465.608 941.59,654.278L941.6,654.278Z" style="fill:rgb(255,147,24);fill-rule:nonzero;"/>
            </g>
        </g>
    </g>
    <g id="b">
        <path d="M62,64.862C59.1,69.662 62.1,71.962 59.2,75.362C59.2,76.162 55.7,78.162 55.7,78.962C53.8,83.262 53.9,83.762 47.3,85.262C46.6,85.262 43.8,87.262 43.1,87.262C41.2,86.562 36.6,88.862 30.4,85.962C27.8,85.962 28.2,85.362 28.2,82.462C27.6,81.462 32.4,81.762 34.6,81.762C41,81.762 45.6,77.262 47.9,72.462L47.9,58.462C47.9,56.262 46.2,54.162 42.2,50.062C39.3,47.062 34.4,46.562 33.7,45.862C32.8,45.862 27.9,44.962 27.4,45.162C27.3,44.262 24.7,46.562 23.2,46.562C19.6,47.762 22.1,57.362 20.4,59.362C20.7,61.162 21.8,63.062 21.8,64.962C20.729,67.13 20.279,69.553 20.5,71.962C20.5,72.662 21.9,74.762 21.9,75.462L21.9,81.062C21.9,81.662 22.6,83.862 22.6,84.562L22.6,88.162C22.6,89.462 22,100.762 22,102.262C22.1,111.162 21.6,115.862 24.2,116.362L29.2,116.362C29.2,116.362 30.6,117.062 30.6,117.762C32.1,120.162 28.4,119.862 23.6,119.862C22.8,119.862 20.8,120.562 20,120.562C17.1,119.962 0.7,122.162 1.7,118.462C1,115.762 5.2,116.462 7.3,116.462C10.5,114.962 10.3,110.562 12.2,107.162C12.4,106.362 12.2,105.862 11.4,104.362C11.6,104.062 10.8,103.462 12.2,100.862C12.5,97.162 11.4,95.362 11.4,93.062C11.4,89.762 11.6,85.762 10.7,83.962C10.6,74.462 12.1,68.562 12.1,61.362C11.4,58.862 10.8,54.462 9.9,52.862C11,49.162 8.1,47.762 7.1,47.262C4.4,47.062 0.8,44.762 -0,44.462L-0,43.162L7.8,43.162C5.2,42.162 22.8,42.462 29.7,42.462C30.4,42.462 36.7,41.662 37.5,41.662C42,41.762 45.5,40.762 51.6,45.862C52.3,45.862 54.4,48.662 55.1,48.662C56.6,49.462 58.7,50.262 58.6,50.762C58.2,55.462 62,59.962 62,64.862L62,64.862ZM111,64.462C109.4,64.462 105,63.362 102,67.762L102.8,68.562C105.7,68.562 109.6,71.262 110.2,71.062C111.2,70.062 111.8,81.062 111.8,85.762C111.8,91.062 113.1,96.362 112.6,97.162C112.6,100.062 109.8,103.662 111,105.362C111,107.262 108.3,110.362 108.5,110.262C102.5,116.262 100.3,111.662 94.6,115.162L91.3,115.162C88.1,115.162 84.9,112.162 83.2,110.362C83.2,105.662 81.6,99.962 81.6,97.262C81.6,93.762 81.2,88.462 82.4,86.662C82.4,85.662 83.5,74.362 83.2,73.662C83.2,69.062 82.1,68.162 75.1,64.662C68.2,64.662 64.5,64.562 66.1,68.762L66.9,69.662C67.8,69.662 71.1,72.062 71.9,72.062C73,73.562 73.9,82.262 73.5,82.662C72.3,82.862 72.7,89.862 72.7,93.262L72.7,102.262C72.7,105.762 74.4,109.362 74.4,111.162C74.4,111.962 76,114.462 76,114.462C82.3,123.562 87.7,120.662 89.1,121.762C93.3,121.762 96.3,120.162 100.5,120.162C101.3,120.162 103.8,116.862 103.8,116.862C104.6,116.862 107.1,115.162 107.9,115.162C107.6,115.162 112,114.462 112,116.862C113.7,119.462 114.4,120.762 116.1,120.162C117.7,120.162 121.2,117.662 124.2,117.662C128.8,116.562 131,116.362 130,114.362C129.8,114.562 127.6,111.862 125.9,111.862C123.8,111.462 122,111.162 120.9,109.562L120.9,103.062C120.9,102.262 121.8,98.962 121.8,98.062C121.8,96.062 120.2,93.762 120.9,91.662C120.9,87.062 122.6,83.962 122.6,79.362C121.486,75.973 120.912,72.429 120.9,68.862C117.5,65.262 112.1,65.262 111,64.462ZM194.7,95.562C194.7,95.562 193.9,98.862 193.1,99.662C193.1,100.462 190.6,103.762 190.6,104.462L190.6,107.662C185.9,119.162 170.4,119.662 156.7,119.962C155.8,119.962 154.2,118.362 153.4,118.362C151.6,118.262 149.7,116.662 147.8,115.262L147,115.262C146.2,115.262 143,118.462 142.2,118.462C140.936,117.89 140.037,116.729 139.8,115.362C139.8,112.962 138.9,112.862 138.9,111.262L139.8,107.862C140,103.762 138.9,102.262 138.9,99.862C138.9,99.062 139.8,95.762 139.8,94.962C140,88.162 138.9,82.762 138.9,77.962C138.9,77.162 139.8,70.762 139.8,69.762C139.8,64.262 139.3,54.162 140.6,53.762C140.8,51.362 139.8,49.462 139.8,47.062C138.6,43.662 143.7,43.762 131.5,33.462L131.5,31.862C133.1,31.262 138,27.662 141.3,27.662C147.7,27.662 150.2,27.862 150.2,34.162C150.9,34.462 149.3,41.862 149.3,46.262C149.3,52.562 149.6,62.462 148.5,63.262C148.7,67.962 150.6,67.362 151.8,67.362C152.6,67.362 156.6,65.762 157.4,65.762C160.8,65.762 166.2,64.062 169.6,64.062C172.6,63.762 174.9,64.862 177.6,65.762C181.8,65.262 183.4,68.362 186.6,71.462L187.4,73.062C195.4,74.662 194.7,93.062 194.7,95.562L194.7,95.562ZM179.2,79.362C179.2,78.562 176,76.162 176,75.462C173.6,70.862 167.9,71.062 166.3,69.662C164.3,70.362 155.8,68.062 152.5,71.462C152.6,71.262 150.1,74.262 150.1,76.262C150.1,78.662 149.2,90.062 149.2,92.462L149.2,93.262C149.2,94.062 150.1,97.262 150.1,98.062C150.1,104.762 149.8,110.662 153.3,113.362C156.6,115.062 163.9,115.762 164.7,115.762C174.2,111.662 183.3,109.662 183.2,95.462C183.4,82.662 180.8,84.362 179.2,79.362L179.2,79.362ZM262.8,52.762C263.284,51.243 263.52,49.656 263.5,48.062C263.5,46.962 258.6,43.462 256.7,43.462C252.6,42.662 250.5,42.662 249.4,40.762L246.7,40.762C241.6,40.762 235.4,42.762 230.7,42.162C229.5,43.462 226.5,44.162 223.9,44.162C222.3,45.262 216.3,48.462 215.9,48.762L206.6,58.162C204.9,61.362 201.9,65.562 201.9,68.162C201.9,68.862 200,71.562 200,72.262C199.8,72.362 199.3,80.162 199.3,80.962C199.3,81.762 200,85.062 200,85.662L200,90.262C200,92.262 202.1,94.062 201.9,96.362C201.9,99.062 204.3,100.062 203.9,101.662C203.9,103.762 215.8,113.962 216,113.062C217.1,114.262 218.4,115.662 219.4,115.762C220.1,115.762 224.7,117.662 225.4,117.662C227.1,117.662 232.7,118.962 236.8,118.962L238.2,119.662L246.2,119.662C257.8,119.662 259.6,117.362 261.6,116.362C262.5,115.262 263.3,111.362 263.6,110.962C264.1,108.162 264.8,105.762 264.8,104.262C264.8,102.262 263.8,100.962 263.6,101.562C260,101.562 258.5,106.662 257.5,107.562L254.1,110.962C253.4,110.962 250.2,112.962 249.5,112.962C247.5,113.762 246.7,114.962 243.4,114.962C239,114.962 240.1,115.862 234.7,115.662C231.7,114.862 226.6,114.862 223.3,111.662C220,108.462 219,109.862 213.9,95.662C213.9,93.662 211.4,91.962 212.5,89.562C211.7,87.162 211.8,86.062 211.8,77.462C211.8,74.262 213.1,72.362 213.1,69.462C214.5,66.862 214.9,64.362 215.8,61.462C215.8,60.762 218.5,58.762 218.5,58.062C219.2,57.362 221.8,52.762 222.4,52.062C222.2,51.462 228.8,47.862 228.5,47.962C234.9,46.462 232.6,45.862 240.6,46.062C242,46.062 245.9,46.762 246.6,46.762C250.3,48.662 257.7,52.162 258,56.062C262.1,60.062 261.4,57.062 262.1,58.062C262.7,57.762 263,56.862 263.4,56.062C263.2,54.962 262.9,53.862 262.8,52.762ZM330.7,95.362C328.9,100.562 330.8,101.462 323.7,108.562C320.2,112.062 319.1,112.362 315.9,115.562C311.3,116.962 310,116.462 305.1,120.362C299.523,120.036 294.011,118.994 288.7,117.262C285.9,117.262 284.6,113.762 277.1,108.762C275,106.962 270.9,98.062 270.9,91.762C270,90.962 272.5,88.562 272.5,82.362C272.5,80.362 274.9,78.662 276.3,76.962C275.4,74.762 283.4,65.962 290.3,63.662L305.1,63.662C305.8,64.762 309.6,64.462 312.1,64.462C312.2,65.062 315.3,65.362 317.5,67.662C319.9,67.662 322.8,72.762 325.3,75.462C326.1,76.262 327.7,80.862 328.5,81.662C328.6,82.662 330.8,89.562 330.8,92.462C330.7,94.862 330.7,95.062 330.7,95.362ZM316.7,76.762C315.1,75.062 306.9,64.962 303.5,65.062C301.1,66.062 298,65.862 294.9,65.862C291.858,67.889 289.042,70.235 286.5,72.862C284.4,76.662 284.5,82.062 282.6,83.062C282.6,87.162 283,92.662 281.8,94.662C282.2,96.762 282.4,98.762 282.6,100.862C282.6,109.762 286.2,107.162 287.2,109.462L288.8,112.662C298.4,117.462 297.9,116.462 302.8,116.462C303.8,117.462 310.4,111.462 314.5,109.462C316.6,109.462 319.5,99.062 319.9,98.662C320.5,97.462 319.1,87.862 319.1,82.362C318.632,80.37 317.82,78.475 316.7,76.762L316.7,76.762ZM398.4,116.962L397.6,116.162C396.8,116.162 392.1,113.062 391.3,113.062C389.9,112.262 389.4,109.262 388.9,108.362C388.9,106.162 390.5,98.762 390.4,92.462C389.741,90.988 389.466,89.371 389.6,87.762L390.4,85.362C389.417,82.563 388.877,79.628 388.8,76.662C389.4,75.662 385.6,71.962 385.6,69.462C379.5,61.362 372.6,64.762 368.1,63.962C366.2,64.762 364.8,66.462 361,67.162C358,67.762 356.3,70.462 353.1,70.362C351.7,69.162 353.2,64.062 350.7,64.062L349,63.262C348,62.962 346,65.962 344.3,68.062C340.9,71.462 339.7,72.962 335.6,75.162C335.6,77.662 336.8,78.162 341.1,80.762C341.1,81.562 341.9,87.062 341.9,88.662C341.9,93.762 341.9,103.562 342,114.062C339.3,115.862 338.1,116.762 334.9,117.262L334.9,118.062C334.9,120.962 336,120.262 339.6,120.462C340.4,120.462 342.8,119.662 343.6,119.662L360.3,119.662C361.1,118.962 361.3,118.762 361.1,117.262C360.3,116.162 356.9,114.862 354,114.862C352.5,113.962 351.6,111.462 351.6,109.362L351.7,83.862C352.4,81.962 352.6,79.662 354.1,77.562C360.4,71.262 368.2,69.562 369.9,70.362C371.6,71.162 373.4,72.762 376.2,73.462C379.6,73.462 378.6,80.762 378.6,84.662C378.6,85.462 379.4,88.562 379.4,89.362C379.4,90.162 381,93.262 381,94.062C380.936,95.169 380.664,96.255 380.2,97.262L380.2,112.362C379.4,113.162 379.9,114.762 377.8,114.762C377,115.462 374,115.462 371.5,117.162C371.5,119.762 374.3,118.362 376.2,118.762C377,118.762 380.2,119.562 380.9,119.562L397.6,119.562C398.385,118.948 398.704,117.911 398.4,116.962L398.4,116.962L398.4,116.962ZM434.4,27.662C431.2,27.662 429.3,30.362 425.6,30.962C422.1,34.362 417.5,36.662 417.5,39.762C416.8,42.462 416.8,46.062 414.4,46.062C414.4,49.862 412.2,57.662 412.1,57.262C412.1,64.962 412.8,63.062 404.9,70.062C404.9,72.562 406,72.162 411.3,76.462C411.3,78.962 412.1,82.062 413.7,82.762L413.7,84.362C413.7,85.262 412.1,87.662 412.1,88.462C412.1,97.362 411.8,101.562 412.9,104.362C412.9,106.462 410.1,108.762 411.3,110.762C408.5,117.962 405.3,113.662 402.4,117.862L403.2,118.662L417.6,118.662C419.6,117.862 420.3,117.862 424.8,117.862C427.8,117.862 428.2,118.662 435.3,118.662C436,117.862 436.1,118.762 436.1,115.462C437,114.362 431.2,114.662 428.9,114.662C428.4,114.362 421.1,111.162 421.7,110.762L421.6,86.062C421.6,84.262 420.5,82.662 420.8,79.662C422,75.062 420.2,71.662 429.6,71.662C430.4,71.662 436,70.862 437.6,70.862C438.732,69.889 439.358,68.453 439.3,66.962C439.3,66.162 437.6,64.562 437.6,64.562L426.4,64.562C425.9,64.562 422.6,63.262 422.3,62.062C422.3,58.362 420.9,52.262 421.5,50.962C421.454,45.622 423.458,40.468 427.1,36.562C428.4,35.462 431.9,35.862 431.9,35.762C434.9,35.762 437,38.062 439.9,38.062C440.7,38.062 445.4,38.862 446.3,38.862C448.4,38.862 451.6,35.562 451,34.162C451.1,31.462 451.1,27.662 434.4,27.662L434.4,27.662Z" style="fill:rgb(255,255,252);fill-rule:nonzero;"/>
    </g>
    <g id="c">
        <path d="M7.212,147.341L8.934,147.341C9.194,147.341 9.419,147.331 9.611,147.311C9.802,147.29 9.976,147.249 10.133,147.188C10.291,147.126 10.438,147.047 10.574,146.952C10.71,146.857 10.854,146.734 11.005,146.582L22.71,134.549C22.929,134.33 23.13,134.177 23.315,134.088C23.5,133.999 23.728,133.955 24.001,133.955L25.703,133.955L13.034,146.972C12.774,147.246 12.545,147.457 12.348,147.608C12.149,147.758 11.927,147.881 11.681,147.977C11.968,148.059 12.225,148.185 12.45,148.356C12.675,148.527 12.904,148.749 13.137,149.022L26.502,162.962L24.801,162.962C24.446,162.962 24.193,162.912 24.042,162.809C23.892,162.706 23.735,162.573 23.571,162.409L11.291,149.863C11.141,149.712 11.005,149.582 10.882,149.473C10.759,149.364 10.618,149.272 10.461,149.197C10.304,149.122 10.116,149.067 9.897,149.033C9.679,148.998 9.406,148.981 9.078,148.981L7.212,148.981L7.212,162.962L5.121,162.962L5.121,133.914L7.212,133.914L7.212,147.341Z" style="fill:white;fill-rule:nonzero;"/>
        <path d="M51.349,162.962L49.729,162.962C49.538,162.962 49.38,162.912 49.257,162.809C49.134,162.706 49.039,162.573 48.97,162.409L45.547,153.984L31.299,153.984L27.896,162.409C27.842,162.559 27.746,162.689 27.609,162.798C27.473,162.908 27.309,162.962 27.118,162.962L25.519,162.962L37.388,133.955L39.479,133.955L51.349,162.962ZM31.935,152.425L44.932,152.425L39.007,137.768C38.912,137.536 38.816,137.273 38.72,136.979C38.625,136.685 38.529,136.373 38.434,136.046C38.338,136.373 38.242,136.685 38.146,136.979C38.051,137.273 37.955,137.542 37.859,137.788L31.935,152.425Z" style="fill:white;fill-rule:nonzero;"/>
        <path d="M55.365,134.027C55.475,134.075 55.591,134.18 55.714,134.344L74.492,159.477C74.451,159.068 74.431,158.671 74.431,158.288L74.431,133.955L76.275,133.955L76.275,162.962L75.271,162.962C74.957,162.962 74.704,162.826 74.513,162.552L55.652,137.378C55.693,137.788 55.714,138.178 55.714,138.547L55.714,162.962L53.89,162.962L53.89,133.955L54.915,133.955C55.105,133.955 55.256,133.979 55.365,134.027Z" style="fill:white;fill-rule:nonzero;"/>
        <path d="M96.878,137.481C96.755,137.713 96.577,137.83 96.345,137.83C96.167,137.83 95.937,137.704 95.656,137.45C95.375,137.198 94.994,136.917 94.514,136.61C94.034,136.302 93.435,136.019 92.715,135.759C91.995,135.499 91.107,135.37 90.052,135.37C88.996,135.37 88.067,135.52 87.265,135.821C86.463,136.122 85.791,136.531 85.249,137.05C84.708,137.57 84.296,138.171 84.015,138.854C83.734,139.538 83.594,140.255 83.594,141.007C83.594,141.991 83.802,142.804 84.22,143.447C84.637,144.089 85.188,144.635 85.873,145.086C86.557,145.538 87.334,145.916 88.203,146.224C89.071,146.532 89.964,146.836 90.881,147.136C91.798,147.437 92.691,147.769 93.56,148.13C94.429,148.493 95.206,148.948 95.89,149.494C96.574,150.04 97.125,150.713 97.543,151.513C97.96,152.313 98.169,153.307 98.169,154.496C98.169,155.712 97.961,156.857 97.544,157.929C97.127,159.002 96.522,159.935 95.73,160.728C94.937,161.521 93.967,162.146 92.819,162.604C91.671,163.061 90.359,163.29 88.883,163.29C86.969,163.29 85.322,162.953 83.942,162.276C82.562,161.599 81.352,160.673 80.314,159.497L80.888,158.596C81.052,158.391 81.243,158.288 81.462,158.288C81.585,158.288 81.742,158.371 81.934,158.535C82.125,158.699 82.358,158.9 82.632,159.139C82.905,159.378 83.234,159.638 83.617,159.918C84,160.199 84.445,160.458 84.952,160.697C85.458,160.936 86.04,161.138 86.696,161.302C87.354,161.466 88.099,161.548 88.934,161.548C90.083,161.548 91.11,161.373 92.014,161.025C92.917,160.676 93.68,160.202 94.302,159.6C94.925,158.999 95.4,158.286 95.729,157.458C96.058,156.631 96.222,155.746 96.222,154.803C96.222,153.779 96.013,152.935 95.596,152.272C95.178,151.609 94.627,151.055 93.943,150.611C93.259,150.167 92.482,149.794 91.613,149.494C90.744,149.194 89.851,148.899 88.934,148.613C88.017,148.326 87.124,148.004 86.255,147.649C85.386,147.293 84.609,146.839 83.925,146.286C83.24,145.732 82.689,145.042 82.272,144.215C81.855,143.388 81.646,142.353 81.646,141.11C81.646,140.139 81.831,139.203 82.2,138.301C82.57,137.399 83.11,136.603 83.822,135.913C84.534,135.223 85.413,134.669 86.46,134.252C87.507,133.835 88.701,133.626 90.042,133.626C91.548,133.626 92.899,133.866 94.097,134.344C95.294,134.823 96.385,135.554 97.37,136.538L96.878,137.481L96.878,137.481Z" style="fill:white;fill-rule:nonzero;"/>
        <path d="M124.041,162.962L122.421,162.962C122.229,162.962 122.072,162.912 121.949,162.809C121.826,162.706 121.73,162.573 121.662,162.409L118.239,153.984L103.991,153.984L100.588,162.409C100.534,162.559 100.438,162.689 100.301,162.798C100.165,162.908 100,162.962 99.81,162.962L98.21,162.962L110.08,133.955L112.171,133.955L124.041,162.962ZM104.627,152.425L117.624,152.425L111.699,137.768C111.604,137.536 111.508,137.273 111.412,136.979C111.316,136.685 111.221,136.373 111.126,136.046C111.03,136.373 110.934,136.685 110.838,136.979C110.743,137.273 110.647,137.542 110.551,137.788L104.627,152.425Z" style="fill:white;fill-rule:nonzero;"/>
        <path d="M140.624,137.481C140.501,137.713 140.323,137.83 140.091,137.83C139.913,137.83 139.683,137.704 139.402,137.45C139.121,137.198 138.74,136.917 138.26,136.61C137.78,136.302 137.181,136.019 136.461,135.759C135.741,135.499 134.854,135.37 133.798,135.37C132.742,135.37 131.813,135.52 131.011,135.821C130.209,136.122 129.537,136.531 128.995,137.05C128.454,137.57 128.042,138.171 127.761,138.854C127.48,139.538 127.34,140.255 127.34,141.007C127.34,141.991 127.548,142.804 127.966,143.447C128.383,144.089 128.934,144.635 129.619,145.086C130.303,145.538 131.08,145.916 131.949,146.224C132.817,146.532 133.71,146.836 134.627,147.136C135.544,147.437 136.437,147.769 137.306,148.13C138.175,148.493 138.952,148.948 139.636,149.494C140.32,150.04 140.872,150.713 141.289,151.513C141.707,152.313 141.916,153.307 141.916,154.496C141.916,155.712 141.707,156.857 141.29,157.929C140.873,159.002 140.269,159.935 139.476,160.728C138.683,161.521 137.713,162.146 136.565,162.604C135.417,163.061 134.105,163.29 132.629,163.29C130.715,163.29 129.068,162.953 127.688,162.276C126.308,161.599 125.098,160.673 124.06,159.497L124.634,158.596C124.798,158.391 124.989,158.288 125.208,158.288C125.331,158.288 125.488,158.371 125.68,158.535C125.872,158.699 126.104,158.9 126.378,159.139C126.651,159.378 126.98,159.638 127.363,159.918C127.747,160.199 128.191,160.458 128.698,160.697C129.204,160.936 129.786,161.138 130.442,161.302C131.1,161.466 131.845,161.548 132.68,161.548C133.83,161.548 134.856,161.373 135.76,161.025C136.663,160.676 137.426,160.202 138.048,159.6C138.671,158.999 139.146,158.286 139.475,157.458C139.804,156.631 139.968,155.746 139.968,154.803C139.968,153.779 139.759,152.935 139.342,152.272C138.924,151.609 138.373,151.055 137.689,150.611C137.005,150.167 136.228,149.794 135.359,149.494C134.49,149.194 133.597,148.899 132.68,148.613C131.763,148.326 130.87,148.004 130.001,147.649C129.132,147.293 128.355,146.839 127.671,146.286C126.986,145.732 126.436,145.042 126.018,144.215C125.601,143.388 125.393,142.353 125.393,141.11C125.393,140.139 125.577,139.203 125.946,138.301C126.316,137.399 126.856,136.603 127.568,135.913C128.28,135.223 129.159,134.669 130.207,134.252C131.253,133.835 132.447,133.626 133.789,133.626C135.294,133.626 136.645,133.866 137.843,134.344C139.04,134.823 140.131,135.554 141.116,136.538L140.624,137.481L140.624,137.481Z" style="fill:white;fill-rule:nonzero;"/>
        <path d="M172.89,158.083C173.027,158.083 173.143,158.131 173.239,158.227L174.059,159.109C173.457,159.75 172.801,160.329 172.091,160.84C171.38,161.353 170.604,161.79 169.764,162.153C168.923,162.515 168.001,162.795 166.997,162.993C165.992,163.191 164.888,163.29 163.686,163.29C161.677,163.29 159.835,162.939 158.161,162.235C156.487,161.531 155.052,160.533 153.856,159.242C152.66,157.95 151.727,156.389 151.058,154.557C150.388,152.726 150.053,150.69 150.053,148.449C150.053,146.248 150.398,144.239 151.088,142.421C151.778,140.604 152.749,139.042 154,137.737C155.25,136.432 156.747,135.42 158.489,134.704C160.231,133.986 162.155,133.626 164.26,133.626C165.312,133.626 166.275,133.706 167.15,133.863C168.025,134.02 168.841,134.246 169.6,134.539C170.358,134.833 171.072,135.199 171.742,135.636C172.412,136.074 173.068,136.579 173.71,137.153L173.075,138.076C172.965,138.24 172.794,138.322 172.562,138.322C172.439,138.322 172.282,138.249 172.091,138.106C171.899,137.962 171.657,137.786 171.363,137.573C171.069,137.362 170.714,137.129 170.297,136.876C169.88,136.623 169.385,136.391 168.811,136.179C168.237,135.967 167.574,135.789 166.822,135.646C166.07,135.502 165.216,135.431 164.26,135.431C162.497,135.431 160.877,135.735 159.401,136.343C157.925,136.952 156.654,137.819 155.588,138.947C154.522,140.074 153.692,141.441 153.098,143.046C152.503,144.653 152.206,146.454 152.206,148.449C152.206,150.498 152.5,152.33 153.087,153.943C153.675,155.555 154.488,156.918 155.527,158.032C156.565,159.146 157.792,160 159.207,160.594C160.621,161.189 162.155,161.487 163.809,161.487C164.847,161.487 165.773,161.418 166.586,161.282C167.399,161.145 168.147,160.94 168.831,160.666C169.515,160.393 170.15,160.058 170.738,159.662C171.325,159.266 171.906,158.801 172.48,158.268C172.548,158.213 172.613,158.168 172.675,158.134C172.736,158.101 172.808,158.083 172.89,158.083L172.89,158.083Z" style="fill:white;fill-rule:nonzero;"/>
        <rect x="179.368" y="133.955" width="2.112" height="29.008" style="fill:white;fill-rule:nonzero;"/>
        <path d="M207.76,133.955L207.76,135.739L197.572,135.739L197.572,162.962L195.481,162.962L195.481,135.739L185.231,135.739L185.231,133.955L207.76,133.955Z" style="fill:white;fill-rule:nonzero;"/>
        <path d="M219.773,150.991L219.773,162.962L217.662,162.962L217.662,150.991L206.94,133.955L208.764,133.955C208.956,133.955 209.109,133.999 209.225,134.088C209.341,134.177 209.455,134.303 209.564,134.467L217.867,147.792C218.057,148.107 218.221,148.411 218.358,148.705C218.495,148.998 218.618,149.296 218.727,149.596C218.836,149.296 218.959,148.998 219.096,148.705C219.233,148.411 219.397,148.107 219.588,147.792L227.87,134.467C227.952,134.317 228.055,134.194 228.178,134.098C228.3,134.003 228.457,133.955 228.648,133.955L230.494,133.955L219.773,150.991L219.773,150.991Z" style="fill:white;fill-rule:nonzero;"/>
    </g>
</svg>
