<?xml version="1.0" encoding="UTF-8" standalone="no"?>
<!DOCTYPE svg PUBLIC "-//W3C//DTD SVG 1.1//EN" "http://www.w3.org/Graphics/SVG/1.1/DTD/svg11.dtd">
<svg width="100%" height="100%" viewBox="0 0 480 200" version="1.1" xmlns="http://www.w3.org/2000/svg" xmlns:xlink="http://www.w3.org/1999/xlink" xml:space="preserve" xmlns:serif="http://www.serif.com/" style="fill-rule:evenodd;clip-rule:evenodd;stroke-linejoin:round;stroke-miterlimit:2;">
    <g transform="matrix(0.742286,0,0,0.742286,63.4937,26.2227)">
        <g transform="matrix(0.609182,0,0,0.609182,59.5809,17.6641)">
            <path d="M207.316,94.417L228.473,94.417C229.849,94.417 231.028,95.406 231.257,96.79C232.436,103.249 238.299,108.127 245.668,108.127C253.561,108.127 259.456,103.216 259.456,96.955C259.456,89.013 249.86,84.761 238.954,81.894C222.152,77.676 206.006,67.493 206.006,45.347C206.006,25.541 222.807,10.645 245.013,10.645C266.498,10.645 282.742,24.289 284.38,42.974C284.544,44.688 283.201,46.171 281.498,46.171L260.34,46.171C258.932,46.171 257.786,45.149 257.524,43.765C256.443,38.064 251.497,33.977 244.98,33.977C237.906,33.977 232.698,38.361 232.698,44.292C232.698,51.74 240.427,55.794 251.694,58.859C269.347,63.604 286.181,72.238 286.181,95.241C286.181,115.871 268.692,131.459 245.307,131.459C223.135,131.459 206.104,117.123 204.401,97.581C204.303,95.9 205.613,94.417 207.316,94.417Z" style="fill:white;fill-rule:nonzero;"/>
        </g>
        <g transform="matrix(0.609182,0,0,0.609182,59.5809,17.6641)">
            <path d="M366.717,72.764L366.717,126.613C366.717,128.195 365.44,129.48 363.868,129.48L346.345,129.48C344.773,129.48 343.496,128.195 343.496,126.613L343.496,124.405C338.125,128.788 331.05,131.523 323.157,131.523C305.996,131.523 292.567,119.165 292.567,102.918C292.567,86.507 306.028,74.148 323.157,74.148C330.395,74.148 336.946,76.356 342.153,80.245L342.153,72.962C342.153,66.008 337.797,61.625 331.05,61.625C326.072,61.625 322.273,63.932 320.832,67.623C320.341,68.908 319.162,69.732 317.786,69.732L299.478,69.732C297.316,69.732 295.679,67.623 296.268,65.514C300.297,51.146 313.234,41.127 331.345,41.127C351.749,41.094 366.717,53.98 366.717,72.764ZM342.186,102.885C342.186,97.316 336.815,92.9 329.904,92.9C323.19,92.9 317.786,97.283 317.786,102.885C317.786,108.29 323.157,112.706 329.904,112.706C336.782,112.673 342.186,108.29 342.186,102.885Z" style="fill:white;fill-rule:nonzero;"/>
        </g>
        <g transform="matrix(0.609182,0,0,0.609182,59.5809,17.6641)">
            <path d="M531.129,72.764L531.129,126.613C531.129,128.195 529.851,129.48 528.279,129.48L510.757,129.48C509.185,129.48 507.908,128.195 507.908,126.613L507.908,124.405C502.537,128.788 495.462,131.523 487.569,131.523C470.407,131.523 456.979,119.165 456.979,102.918C456.979,86.507 470.44,74.148 487.569,74.148C494.807,74.148 501.358,76.356 506.565,80.245L506.565,72.962C506.565,66.008 502.209,61.625 495.462,61.625C490.484,61.625 486.685,63.932 485.244,67.623C484.753,68.908 483.574,69.732 482.198,69.732L463.89,69.732C461.728,69.732 460.091,67.623 460.68,65.514C464.709,51.146 477.645,41.127 495.757,41.127C516.161,41.094 531.129,53.98 531.129,72.764ZM506.598,102.885C506.598,97.316 501.227,92.9 494.316,92.9C487.602,92.9 482.198,97.283 482.198,102.885C482.198,108.29 487.569,112.706 494.316,112.706C501.194,112.673 506.598,108.29 506.598,102.885Z" style="fill:white;fill-rule:nonzero;"/>
        </g>
        <g transform="matrix(0.609182,0,0,0.609182,59.5809,17.6641)">
            <path d="M350.374,210.023L350.374,263.872C350.374,265.454 349.096,266.739 347.524,266.739L330.002,266.739C328.43,266.739 327.153,265.454 327.153,263.872L327.153,261.664C321.782,266.047 314.707,268.783 306.814,268.783C289.652,268.783 276.224,256.424 276.224,240.177C276.224,223.766 289.685,211.408 306.814,211.408C314.052,211.408 320.603,213.616 325.81,217.504L325.81,210.221C325.81,203.268 321.454,198.885 314.707,198.885C309.729,198.885 305.93,201.191 304.489,204.882C303.998,206.168 302.818,206.992 301.443,206.992L283.135,206.992C280.973,206.992 279.336,204.882 279.925,202.773C283.954,188.405 296.89,178.386 315.002,178.386C335.406,178.386 350.374,191.239 350.374,210.023ZM325.81,240.145C325.81,234.575 320.439,230.159 313.528,230.159C306.814,230.159 301.41,234.542 301.41,240.145C301.41,245.549 306.781,249.965 313.528,249.965C320.439,249.965 325.81,245.549 325.81,240.145Z" style="fill:white;fill-rule:nonzero;"/>
        </g>
        <g transform="matrix(0.609182,0,0,0.609182,59.5809,17.6641)">
            <path d="M544.033,103.215L560.278,103.215C562.178,103.215 563.848,104.435 564.536,106.214C565.813,109.477 569.121,111.817 573.051,111.817C577.768,111.817 581.468,108.949 581.468,105.225C581.468,99.821 574.754,97.283 567.68,95.734C554.743,92.703 540.595,86.079 540.595,68.316C540.595,50.553 555.562,41.062 572.56,41.062C588.87,41.062 601.545,50.421 604.296,62.944C604.886,65.58 602.888,68.118 600.202,68.118L583.499,68.118C581.927,68.118 580.42,67.228 579.896,65.745C578.881,62.812 575.999,60.67 572.396,60.67C568.368,60.67 565.158,63.372 565.158,66.602C565.158,71.512 571.053,74.215 579.438,76.258C592.375,79.487 605.999,85.551 605.999,102.985C605.999,121.077 591.032,131.425 572.855,131.425C555.726,131.425 542.658,121.439 539.907,108.323C539.383,105.72 541.348,103.215 544.033,103.215Z" style="fill:white;fill-rule:nonzero;"/>
        </g>
        <g transform="matrix(0.609182,0,0,0.609182,59.5809,17.6641)">
            <path d="M463.792,240.473L480.037,240.473C481.936,240.473 483.606,241.693 484.294,243.472C485.572,246.735 488.879,249.075 492.81,249.075C497.526,249.075 501.227,246.207 501.227,242.484C501.227,237.079 494.513,234.541 487.438,232.992C474.502,229.961 460.353,223.337 460.353,205.574C460.353,187.811 475.32,178.32 492.318,178.32C508.629,178.32 521.303,187.679 524.055,200.202C524.644,202.838 522.646,205.376 519.961,205.376L503.257,205.376C501.685,205.376 500.179,204.486 499.655,203.003C498.639,200.07 495.757,197.928 492.155,197.928C488.126,197.928 484.917,200.63 484.917,203.86C484.917,208.77 490.812,211.473 499.196,213.516C512.133,216.745 525.758,222.809 525.758,240.243C525.758,258.335 510.79,268.683 492.613,268.683C475.484,268.683 462.416,258.697 459.665,245.581C459.141,242.978 461.106,240.473 463.792,240.473Z" style="fill:white;fill-rule:nonzero;"/>
        </g>
        <g transform="matrix(0.609182,0,0,0.609182,59.5809,17.6641)">
            <path d="M272.916,245.318L272.916,263.411C272.916,265.223 271.442,266.706 269.641,266.706L213.505,266.706C211.703,266.706 210.23,265.223 210.23,263.411L210.23,153.241C210.23,151.429 211.703,149.946 213.505,149.946L232.992,149.946C234.793,149.946 236.267,151.429 236.267,153.241L236.267,241.99L269.641,241.99C271.442,241.99 272.916,243.473 272.916,245.318Z" style="fill:white;fill-rule:nonzero;"/>
        </g>
        <g transform="matrix(0.609182,0,0,0.609182,59.5809,17.6641)">
            <path d="M455.342,223.567C455.342,249.273 437.689,268.749 413.977,268.749C403.366,268.749 394.457,264.366 388.071,257.083L388.071,262.422C388.071,264.794 386.139,266.739 383.78,266.739L367.798,266.739C365.44,266.739 363.507,264.794 363.507,262.422L363.507,149.188C363.507,146.815 365.44,144.87 367.798,144.87L383.748,144.87C386.106,144.87 388.038,146.815 388.038,149.188L388.038,190.052C394.425,182.769 403.333,178.386 413.945,178.386C437.689,178.386 455.342,197.829 455.342,223.567ZM430.124,223.567C430.124,211.374 421.215,202.245 409.097,202.245C396.979,202.245 388.071,211.374 388.071,223.567C388.071,235.761 396.979,244.889 409.097,244.889C421.215,244.889 430.124,235.728 430.124,223.567Z" style="fill:white;fill-rule:nonzero;"/>
        </g>
        <g transform="matrix(0.609182,0,0,0.609182,59.5809,17.6641)">
            <path d="M426.324,47.159C425.8,67.261 421.444,89.704 413.944,107.203C406.444,89.704 402.088,67.261 401.564,47.159C401.498,44.918 399.73,43.138 397.503,43.138L379.62,43.138C377.36,43.138 375.493,45.017 375.526,47.323C376.181,75.764 383.419,102.622 395.734,126.35C396.716,128.261 398.714,129.448 400.876,129.448L427.012,129.448C429.141,129.448 431.138,128.261 432.154,126.35C444.501,102.589 451.706,75.764 452.361,47.323C452.427,45.05 450.527,43.138 448.267,43.138L430.385,43.138C428.158,43.138 426.389,44.918 426.324,47.159Z" style="fill:white;fill-rule:nonzero;"/>
        </g>
        <g transform="matrix(0.609182,0,0,0.609182,59.5809,17.6641)">
            <path d="M181.663,181.54C181.663,165.659 177.41,150.8 169.992,137.983C165.475,130.175 159.739,123.124 153.112,117.062C152.98,116.93 152.815,116.831 152.683,116.699C152.057,116.139 151.43,115.579 150.771,115.019C150.573,114.854 150.342,114.69 150.144,114.492C149.848,114.261 149.551,113.998 149.254,113.767C149.023,113.602 148.793,113.405 148.595,113.24C148.397,113.075 147.968,112.746 147.968,112.746C136.924,104.146 123.802,98.15 109.427,95.679C107.416,95.317 105.372,96.107 104.053,97.656L94.426,108.924L84.799,97.656C83.48,96.107 81.436,95.35 79.425,95.679C64.522,98.249 50.906,104.641 39.597,113.767C37.289,107.244 36.103,100.226 36.3,92.879C37.092,61.513 62.973,36.308 94.393,36.308C126.472,36.275 152.551,62.369 152.551,94.394C152.551,97.392 152.32,100.325 151.892,103.224C151.595,105.069 152.353,106.947 153.804,108.133C159.607,112.845 164.816,118.149 169.333,124.014C171.443,126.748 175.762,126.024 176.916,122.762C179.982,113.866 181.63,104.344 181.63,94.394C181.63,72.583 173.619,52.65 160.365,37.395C158.947,35.748 158.914,33.343 160.332,31.695L171.377,18.747C172.992,16.869 171.641,13.97 169.168,13.97L142.364,13.97C134.286,13.97 126.241,12.849 118.494,10.642C110.845,8.434 102.767,7.281 94.393,7.281C86.019,7.281 77.941,8.467 70.292,10.642C62.544,12.882 54.5,13.97 46.422,13.97L19.717,13.97C17.244,13.97 15.892,16.869 17.508,18.747L28.552,31.695C29.97,33.343 29.937,35.748 28.52,37.395C15.266,52.65 7.254,72.583 7.254,94.394C7.254,107.672 10.221,120.225 15.53,131.493C15.958,132.382 16.387,133.272 16.848,134.162C16.98,134.458 17.145,134.722 17.277,135.018C17.442,135.315 17.607,135.644 17.771,135.941C18.134,136.6 18.497,137.292 18.892,137.95C18.464,138.675 18.068,139.433 17.673,140.158C17.409,140.619 17.178,141.113 16.914,141.608C16.782,141.838 16.683,142.069 16.552,142.299C16.222,142.926 15.925,143.584 15.628,144.21C15.595,144.276 15.562,144.342 15.53,144.408C15.2,145.1 14.87,145.825 14.573,146.55C9.859,157.291 7.254,169.086 7.254,181.54C7.254,202.428 14.606,221.604 26.871,236.595C42.861,256.166 67.16,268.653 94.393,268.653C98.184,268.653 101.877,268.422 105.537,267.961C109.658,267.434 110.746,261.964 107.152,259.889C98.283,254.749 90.107,248.456 82.754,241.109L82.722,241.076C80.677,239.033 78.205,237.386 75.468,236.463C64.819,232.773 55.555,226.085 48.697,217.387C40.916,207.502 36.267,195.048 36.267,181.54C36.267,174.753 37.454,168.229 39.597,162.167C39.498,162.101 39.432,162.035 39.334,161.936C39.432,162.002 39.498,162.068 39.597,162.167C42.927,152.744 48.631,144.441 55.983,137.95C66.237,128.923 79.688,123.421 94.393,123.421C109.097,123.421 122.549,128.923 132.802,137.95C140.155,144.441 145.858,152.744 149.188,162.167C151.331,168.229 152.518,174.753 152.518,181.54L152.518,238.275C136,235.277 120.571,227.468 108.537,215.476C92.843,199.826 84.205,179.003 84.205,156.862C84.205,150.24 84.964,143.749 86.513,137.39C87.238,134.326 84.403,131.592 81.37,132.382C73.82,134.392 66.764,138.148 60.797,143.387C60.368,143.749 59.94,144.145 59.544,144.54C56.84,147.077 55.291,150.602 55.192,154.292C55.159,155.149 55.159,156.006 55.159,156.862C55.159,171.952 58.126,186.614 63.962,200.386C69.6,213.696 77.677,225.656 87.931,235.936C98.217,246.215 110.185,254.255 123.505,259.889C137.319,265.72 151.958,268.686 167.058,268.686L177.245,268.686C179.652,268.686 181.597,266.742 181.597,264.337L181.663,181.54Z" style="fill:rgb(243,90,105);fill-rule:nonzero;"/>
        </g>
        <g transform="matrix(0.609182,0,0,0.609182,59.5809,17.6641)">
            <path d="M71.413,84.51C79.443,84.51 85.952,78.005 85.952,69.98C85.952,61.955 79.443,55.45 71.413,55.45C63.383,55.45 56.873,61.955 56.873,69.98C56.873,78.005 63.383,84.51 71.413,84.51Z" style="fill:rgb(243,90,105);fill-rule:nonzero;"/>
        </g>
        <g transform="matrix(0.609182,0,0,0.609182,59.5809,17.6641)">
            <path d="M117.505,84.51C125.535,84.51 132.045,78.005 132.045,69.98C132.045,61.955 125.535,55.45 117.505,55.45C109.475,55.45 102.966,61.955 102.966,69.98C102.966,78.005 109.475,84.51 117.505,84.51Z" style="fill:rgb(243,90,105);fill-rule:nonzero;"/>
        </g>
    </g>
</svg>
